<svg width="70" height="71" viewBox="0 0 70 71" fill="none" xmlns="http://www.w3.org/2000/svg">
<circle cx="35" cy="35.3696" r="34" transform="rotate(-180 35 35.3696)" stroke="#E0E0E0" stroke-width="2"/>
<path d="M34.9999 51.0315C35.4269 51.0315 35.7684 50.6899 35.7684 50.263L35.7684 22.3083L41.5053 28.0452C41.8081 28.3479 42.2894 28.3479 42.5921 28.0452C42.8949 27.7424 42.8949 27.2611 42.5921 26.9584L35.5433 19.9095C35.3958 19.762 35.194 19.6844 34.9999 19.6844C34.8058 19.6844 34.604 19.762 34.4565 19.9095L27.4077 26.9584C27.1049 27.2611 27.1049 27.7424 27.4077 28.0452C27.7104 28.3479 28.1917 28.3479 28.4945 28.0452L34.2314 22.3083L34.2314 50.263C34.2314 50.6899 34.5729 51.0315 34.9999 51.0315Z" fill="#BDBDBD"/>
</svg>
