<svg width="100" height="100" viewBox="0 0 100 100" fill="none" xmlns="http://www.w3.org/2000/svg">
<path d="M49.9982 0C29.7 0 13.1842 16.5157 13.1842 36.816C13.1842 42.1111 14.268 47.1667 16.4039 51.8437C25.6084 71.9853 43.256 93.2506 48.4467 99.2877C48.8356 99.739 49.4026 99.999 49.9992 99.999C50.5958 99.999 51.1628 99.739 51.5517 99.2877C56.7404 93.2517 74.388 71.9874 83.5955 51.8437C85.7324 47.1667 86.8152 42.1111 86.8152 36.816C86.8131 16.5157 70.2974 0 49.9982 0ZM49.9982 55.9383C39.454 55.9383 30.8748 47.3591 30.8748 36.815C30.8748 26.2698 39.454 17.6906 49.9982 17.6906C60.5423 17.6906 69.1215 26.2698 69.1215 36.815C69.1226 47.3591 60.5434 55.9383 49.9982 55.9383Z" fill="#00CCC2"/>
</svg>
