<svg width="41" height="39" viewBox="0 0 41 39" fill="none" xmlns="http://www.w3.org/2000/svg">
<path d="M29.5364 21.4809C32.1908 21.0562 34.6328 21.6932 36.8626 23.3921C38.9861 25.0909 40.0479 27.2675 40.0479 29.9219C40.0479 32.364 39.1453 34.4875 37.3403 36.2925C35.5353 38.0975 33.4118 39 30.9698 39C28.5277 39 26.5103 38.0444 24.9177 36.1332C23.325 34.3282 22.4225 32.1516 22.2102 29.6034C21.7855 25.0378 21.9448 21.1623 22.688 17.977C23.4312 14.8979 24.5992 12.0312 26.1918 9.37674C27.3598 7.57175 28.9524 5.81984 30.9698 4.12101C32.8809 2.42218 34.9514 1.25424 37.1811 0.61718C38.349 0.298653 39.0392 0.245567 39.2515 0.457924C39.3577 0.670273 39.4108 1.36042 39.4108 2.52836V4.28028C39.4108 5.55439 39.3577 6.29763 39.2515 6.50999C39.0392 6.82851 38.349 7.20013 37.1811 7.62484C34.8452 8.47425 32.9871 10.0669 31.6068 12.4028C30.2265 14.7387 29.5364 17.7647 29.5364 21.4809ZM7.55784 21.4809C10.2122 21.0562 12.6543 21.6932 14.884 23.3921C17.0075 25.0909 18.0693 27.2675 18.0693 29.9219C18.0693 32.364 17.1668 34.4875 15.3618 36.2925C13.5568 38.0975 11.4333 39 8.99122 39C6.54916 39 4.53181 38.0444 2.93915 36.1332C1.34651 34.3282 0.444008 32.1516 0.231659 29.6034C-0.193047 25.0378 -0.0337868 21.1623 0.709442 17.977C1.45268 14.8979 2.62062 12.0312 4.21327 9.37674C5.38121 7.57175 6.97387 5.81984 8.99122 4.12101C10.9024 2.42218 12.9728 1.25424 15.2025 0.61718C16.3705 0.298653 17.0606 0.245567 17.273 0.457924C17.3792 0.670273 17.4322 1.36042 17.4322 2.52836V4.28028C17.4322 5.55439 17.3792 6.29763 17.273 6.50999C17.0606 6.82851 16.3705 7.20013 15.2025 7.62484C12.8667 8.47425 11.0086 10.0669 9.62828 12.4028C8.24799 14.7387 7.55784 17.7647 7.55784 21.4809Z" fill="#24A3FF"/>
</svg>
