<svg width="18" height="18" viewBox="0 0 18 18" fill="none" xmlns="http://www.w3.org/2000/svg">
<path d="M16.5661 1.52641H15.5988V0.874237C15.5988 0.392212 15.2066 0 14.7246 0C14.2423 0 13.8499 0.392212 13.8499 0.874237V1.52641H13.2619V0.874237C13.2619 0.392212 12.8697 0 12.3876 0C11.9053 0 11.513 0.392212 11.513 0.874237V1.52641H10.8045C10.6543 1.52641 10.5331 1.64795 10.5331 1.79778C10.5331 1.9476 10.6543 2.06914 10.8045 2.06914H11.513V2.72118C11.513 3.20361 11.9053 3.59583 12.3876 3.59583C12.8697 3.59583 13.2619 3.20361 13.2619 2.72118V2.06914H13.8499V2.72118C13.8499 3.20361 14.2423 3.59583 14.7246 3.59583C15.2066 3.59583 15.5988 3.20361 15.5988 2.72118V2.06914H16.5661C16.7421 2.06914 16.8853 2.21251 16.8853 2.38829V4.52225C16.715 4.52225 2.00363 4.52225 1.14052 4.52225V2.38829C1.14052 2.21251 1.28375 2.06914 1.45967 2.06914H2.42688V2.72118C2.42688 3.20361 2.81909 3.59583 3.30112 3.59583C3.78355 3.59583 4.17577 3.20361 4.17577 2.72118V2.06914H4.76381V2.72118C4.76381 3.20361 5.15616 3.59583 5.63805 3.59583C6.12048 3.59583 6.5127 3.20361 6.5127 2.72118V2.06914H9.71892C9.86874 2.06914 9.99028 1.9476 9.99028 1.79778C9.99028 1.64795 9.86874 1.52641 9.71892 1.52641H6.5127V0.874237C6.5127 0.392212 6.12048 0 5.63805 0C5.15616 0 4.76381 0.392212 4.76381 0.874237V1.52641H4.17577V0.874237C4.17577 0.392212 3.78355 0 3.30112 0C2.81909 0 2.42688 0.392212 2.42688 0.874237V1.52641H1.45967C0.984512 1.52641 0.597656 1.91313 0.597656 2.38829V16.5156C0.597656 17.3342 1.26384 18 2.08246 18H2.55432C2.70415 18 2.82568 17.8787 2.82568 17.7286C2.82568 17.5788 2.70415 17.4571 2.55432 17.4571H2.08246C1.56308 17.4571 1.14052 17.0349 1.14052 16.5156V15.1786H16.8853V16.5156C16.8853 17.0349 16.4626 17.4571 15.9434 17.4571H3.63991C3.49008 17.4571 3.36841 17.5788 3.36841 17.7286C3.36841 17.8787 3.49008 18 3.63991 18H15.9434C16.7618 18 17.4282 17.3342 17.4282 16.5156C17.4282 15.9478 17.4282 2.99158 17.4282 2.38829C17.4282 1.91313 17.0413 1.52641 16.5661 1.52641V1.52641ZM12.6218 2.95573C12.562 3.01575 12.4788 3.0531 12.3876 3.0531C12.2046 3.0531 12.0558 2.90437 12.0558 2.72118C12.0558 1.77498 12.0558 1.8214 12.0558 0.874237C12.0558 0.691589 12.2046 0.542862 12.3876 0.542862C12.5704 0.542862 12.7191 0.691589 12.7191 0.874237C12.7191 2.87059 12.7551 2.82239 12.6218 2.95573V2.95573ZM15.0561 2.72118C15.0561 2.90437 14.9073 3.0531 14.7246 3.0531C14.5415 3.0531 14.3928 2.90437 14.3928 2.72118C14.3928 1.77457 14.3928 1.8214 14.3928 0.874237C14.3928 0.691589 14.5415 0.542862 14.7246 0.542862C14.9073 0.542862 15.0561 0.691589 15.0561 0.874237V2.72118ZM5.30667 0.874237C5.30667 0.691589 5.4554 0.542862 5.63805 0.542862C5.82124 0.542862 5.96997 0.691589 5.96997 0.874237V2.72118C5.96997 2.90437 5.82124 3.0531 5.63805 3.0531C5.4554 3.0531 5.30667 2.90437 5.30667 2.72118C5.30667 2.16815 5.30667 1.42754 5.30667 0.874237ZM2.96974 0.874237C2.96974 0.691589 3.11847 0.542862 3.30112 0.542862C3.48431 0.542862 3.63304 0.691589 3.63304 0.874237V2.72118C3.63304 2.90437 3.48431 3.0531 3.30112 3.0531C3.11847 3.0531 2.96974 2.90437 2.96974 2.72118C2.96974 2.16815 2.96974 1.42754 2.96974 0.874237ZM3.85524 14.6357H1.14052V11.8201H3.85524V14.6357ZM3.85524 11.2772H1.14052V8.46194H3.85524V11.2772ZM3.85524 7.88036H1.14052C1.14052 7.30618 1.14052 5.63255 1.14052 5.06511H3.85524V7.88036ZM7.11269 14.6357H4.39796V11.8201H7.11269V14.6357ZM7.11269 11.2772H4.39796V8.46194H7.11269V11.2772ZM7.11269 7.88036H4.39796V5.06511H7.11269V7.88036ZM10.3703 14.6357H7.65555V11.8201H10.3703V14.6357ZM10.3703 11.2772H7.65555V8.46194H10.3703V11.2772ZM10.3703 7.88036H7.65555V5.06511H10.3703V7.88036ZM13.6277 14.6357H10.913V11.8201H13.6277V14.6357ZM13.6277 11.2772H10.913V8.46194H13.6277V11.2772ZM13.6277 7.88036H10.913V5.06511H13.6277V7.88036ZM16.8853 14.6357H14.1706V11.8201H16.8853V14.6357ZM16.8853 11.2772H14.1706V8.46194H16.8853V11.2772ZM16.8853 7.88036H14.1706V5.06511H16.8853V7.88036Z" fill="#4F4F4F"/>
<path d="M11.7532 10.8834C11.8674 10.9977 12.057 10.9877 12.158 10.8597L13.4509 9.22232C13.5437 9.10463 13.5236 8.93393 13.4059 8.84109C13.2883 8.74826 13.1177 8.76831 13.0249 8.88586L11.9211 10.2839L11.5122 9.87477C11.4062 9.76875 11.2344 9.76875 11.1283 9.87477C11.0223 9.98079 11.0223 10.1526 11.1283 10.2586L11.7532 10.8834Z" fill="#4F4F4F"/>
<path d="M2.19894 7.48938C2.2823 7.48938 2.36058 7.45107 2.41194 7.38611L3.70462 5.74859C3.79745 5.63104 3.7774 5.46034 3.65985 5.3675C3.54216 5.27467 3.37146 5.29458 3.27863 5.41227L2.17505 6.81015L1.76608 6.40118C1.66006 6.29516 1.48813 6.29516 1.38225 6.40118C1.27623 6.5072 1.27623 6.679 1.38225 6.78502C2.04967 7.45244 2.05022 7.48938 2.19894 7.48938Z" fill="#4F4F4F"/>
<path d="M5.42746 14.2834C5.51096 14.2834 5.58923 14.2451 5.64059 14.1801L6.93327 12.5426C7.02611 12.4251 7.00606 12.2544 6.88837 12.1614C6.77081 12.0686 6.60011 12.0886 6.50728 12.2063L5.40356 13.6042L4.9946 13.1952C4.88858 13.0892 4.71678 13.0892 4.61076 13.1952C4.50475 13.3012 4.50475 13.473 4.61076 13.5789C5.27818 14.2465 5.27873 14.2834 5.42746 14.2834V14.2834Z" fill="#4F4F4F"/>
</svg>