<svg width="295" height="41" viewBox="0 0 295 41" fill="none" xmlns="http://www.w3.org/2000/svg">
<path fill-rule="evenodd" clip-rule="evenodd" d="M36.2308 6.99342C35.6136 8.14074 34.5694 9.32466 34.5694 9.32466C34.5694 9.32466 34.7607 9.48286 35.2324 9.32466C35.7539 9.15073 36.5625 8.65889 36.5625 8.65889C36.5625 8.65889 36.3947 9.42509 35.8979 9.99073C35.3477 10.6166 34.4619 11.0473 34.4619 11.0473C34.4619 11.0473 34.6376 11.2436 35.0043 11.2294C35.3544 11.2155 35.8979 10.9901 35.8979 10.9901C35.8979 10.9901 34.2941 13.7633 31.5761 15.3199C27.5715 17.6146 21.9377 18.983 21.9377 18.983C21.9377 18.983 22.7988 20.1388 23.2679 20.9821C23.6112 21.6022 23.5994 21.9818 23.5994 21.9818C23.5994 21.9818 23.4199 21.9174 23.1159 21.8294L21.9377 20.6485L21.7647 21.5154C21.483 21.4628 21.1815 21.4168 20.8605 21.3814L20.2748 20.6485V21.3315C19.9518 21.3118 19.6182 21.3025 19.2781 21.3158C19.0181 21.3236 18.7559 21.3433 18.4939 21.3684L18.6138 20.6485L17.8209 21.4431C17.4245 21.497 17.0386 21.5626 16.6709 21.6337L16.9515 20.6485L15.9287 21.7885C14.7781 22.0472 13.9603 22.314 13.9603 22.314C13.9603 22.314 14.9 21.1083 15.9542 20.3164C16.8865 19.6161 17.9487 19.3166 17.9487 19.3166V18.6509C17.9487 18.6509 10.4804 17.5002 6.64727 15.3199C3.75445 13.6741 1.66165 10.3238 1.66165 10.3238C1.66165 10.3238 2.45388 10.6172 3.22241 10.6172C3.72557 10.6172 4.32127 10.3238 4.32127 10.3238C4.32127 10.3238 2.60502 9.60385 1.66165 8.65889C0.473102 7.4674 0 5.99401 0 5.99401C0 5.99401 1.49521 6.84036 2.65889 7.32645C3.1274 7.52156 3.98835 7.65919 3.98835 7.65919C3.98835 7.65919 2.03833 6.06721 0.996635 4.32852C0.0484393 2.74441 0 0.997564 0 0.997564C0 0.997564 5.64412 6.77925 11.6336 10.6565C16.2726 13.6611 21.605 14.9875 21.605 14.9875C21.605 14.9875 21.8054 14.9509 22.1409 14.8771L21.7686 15.2491C21.7686 15.2491 21.8971 15.4932 21.9928 15.8729C22.07 16.1853 21.9966 16.6097 22.0675 16.9473C22.234 17.751 23.3636 17.5725 23.3636 17.5725C23.3636 17.5725 22.9717 16.5111 23.6872 16.0988C24.4669 15.6484 24.9845 16.2984 24.9845 16.2984C24.9845 16.2984 25.177 16.0305 25.0841 15.773C24.9688 15.4578 24.4604 15.2491 24.4604 15.2491C24.4604 15.2491 24.4315 14.7013 23.8864 14.5253C23.8131 14.5017 23.7461 14.4911 23.6767 14.4754C25.1994 14.0262 27.3277 13.2461 29.2501 11.9889C33.361 9.30288 36.8953 4.99429 36.8953 4.99429C36.8953 4.99429 36.7722 5.98463 36.2308 6.99342" fill="#15191E"/>
<path fill-rule="evenodd" clip-rule="evenodd" d="M93.3586 40.9976H91.8635V38.3339L89.2043 37.0021L90.5335 35.6702V33.0041H89.2043V35.003L88.5401 35.6702L87.21 37.6666L85.88 35.6702L91.8635 29.0087V27.6756L95.8527 23.6786L91.8635 19.0155L89.7678 19.4357L92.9524 9.66699L95.1869 12.3543L99.1758 15.0185L99.8404 18.3495L104.495 20.348L107.001 22.4998L104.495 25.0113L105.16 26.3438L107.818 25.0113L109.147 26.3438L105.824 30.3405L106.311 30.829L93.3586 40.9976" fill="#59A8A4"/>
<path fill-rule="evenodd" clip-rule="evenodd" d="M85.0542 11.0297L82.5565 7.02479L59.569 31.5698L59.7398 13.2345L61.9481 11.0216H69.9261L79.8973 1.02979L88.5399 4.36048L90.0351 6.15937L85.0542 11.0297" fill="#4992C7"/>
<path fill-rule="evenodd" clip-rule="evenodd" d="M29.938 38.4155L31.115 40.9976H26.7151L29.938 38.4155ZM26.7151 37.002L28.1803 34.554L29.6307 37.7401L26.7151 40.9976H13.4191L26.7151 37.002ZM56.9225 34.3964L49.8728 29.0899L49.9823 29.0086L44.8964 22.7789L45.9934 21.6803L51.3118 23.6785L56.6304 15.0183L58.6241 14.3526L61.3158 11.6562L60.9724 30.0712L56.9225 34.3964ZM114.373 38.9065L116.461 40.9976H92.3156L105.904 30.2445L105.824 30.3404L113.114 37.6445L116.461 34.3371L117.125 35.0029L114.373 38.9065" fill="#5790A9"/>
<path fill-rule="evenodd" clip-rule="evenodd" d="M27.5812 35.5546L28.7097 33.6714L35.6719 30.9865L28.9303 38.5232L27.5812 35.5546ZM40.6754 29.6731H39.346L43.9995 25.6776L44.6637 27.6755H43.3343L40.6754 29.6731ZM30.0554 40.9976L29.1636 39.0353L33.3625 35.6702L34.6926 35.0029L34.0274 38.3339L34.6926 38.9999L39.346 35.0029L40.0103 37.002H43.3343L48.6529 32.3395L47.3235 31.0062L49.9824 29.0086L48.1097 26.7151L57.5515 33.7237L50.739 40.9976H30.0554ZM60.6187 35.0029L67.2668 27.0095L69.2605 28.3413L61.2839 35.6702L60.6187 35.0029ZM65.0428 40.9976L77.2385 28.3413L69.7388 40.9976H65.0428ZM83.487 40.9976H79.4547L81.892 38.9999L83.487 40.9976ZM88.5401 19.6818L86.5458 16.3508L80.562 20.3478L85.88 12.3541L84.7609 10.56L89.6579 5.70544L93.1437 9.89728L90.1532 19.3581L88.5401 19.6818ZM111.617 28.8168L111.807 29.0086L112.452 28.9272L110.477 30.3404L111.617 28.8168ZM125.102 40.9976L123.773 39.6657V37.6666H119.784L119.12 37.002V32.3395L117.125 31.6723L115.773 28.5107L117.125 28.3413L131.085 40.9976H125.102" fill="#76A9B6"/>
<path fill-rule="evenodd" clip-rule="evenodd" d="M149.961 20.947H148.625V5.05838H158.952V6.35239H149.961V20.947ZM178.901 6.07895C174.259 6.07895 172.017 9.55171 172.017 13.0021C172.017 16.4521 174.259 19.9252 178.901 19.9252C183.544 19.9252 185.786 16.4521 185.786 13.0021C185.786 9.55171 183.544 6.07895 178.901 6.07895ZM178.901 21.1965C173.376 21.1965 170.658 17.042 170.658 13.0021C170.658 8.9622 173.376 4.80884 178.901 4.80884C184.427 4.80884 187.145 8.9622 187.145 13.0021C187.145 17.042 184.427 21.1965 178.901 21.1965V21.1965ZM207.026 6.35239H203.108V13.8651H207.026C209.879 13.8651 212.28 13.0928 212.28 10.0967C212.28 7.10072 209.901 6.35239 207.026 6.35239ZM206.958 15.1588H203.086V20.947H201.749V5.05838H206.958C210.559 5.05838 213.639 6.19328 213.639 10.0967C213.639 14.0239 210.559 15.1588 206.958 15.1588V15.1588ZM239.566 13.6152H229.284V20.947H227.949V5.05838H229.284V12.3219H239.566V5.05838H240.903V20.947H239.566V13.6152ZM262.687 6.94192C262.618 6.76073 262.55 6.60193 262.482 6.44283C262.414 6.60193 262.346 6.76073 262.278 6.94192L258.542 15.408H266.423L262.687 6.94192ZM266.967 16.6796H258.022L256.118 20.947H254.669L261.735 5.05838H263.253L270.295 20.947H268.846L266.967 16.6796ZM293.641 6.35239H289.068C286.53 6.35239 284.515 7.50937 284.515 10.0064C284.515 12.5253 286.53 13.6836 289.068 13.6836H293.641V6.35239ZM293.665 20.947V14.9773H288.773L284.13 20.947H282.499L287.278 14.7949C284.9 14.2734 283.134 12.7301 283.134 10.0064C283.134 6.62401 285.92 5.05838 289.136 5.05838H295V20.947H293.665" fill="#15191E"/>
<path fill-rule="evenodd" clip-rule="evenodd" d="M163.537 35.9252H163.107V30.8882H160.911V30.4796H165.722V30.8882H163.537V35.9252ZM168.112 38.5469C167.919 38.5469 167.738 38.5232 167.546 38.467V38.0819C167.727 38.1267 167.897 38.1609 168.066 38.1609C168.722 38.1609 169.186 37.7063 169.617 36.7081L169.945 35.9488L167.194 30.4796H167.658L170.15 35.4722L172.345 30.4796H172.798L169.967 36.879C169.425 38.1044 168.847 38.5469 168.112 38.5469ZM177.849 30.7637C176.727 30.7637 175.845 31.5002 175.516 32.4092V33.9972C175.845 34.9047 176.727 35.6418 177.849 35.6418C179.162 35.6418 180.168 34.734 180.168 33.2026C180.168 31.6828 179.162 30.7637 177.849 30.7637ZM177.893 36.0502C176.773 36.0502 175.935 35.4264 175.516 34.6774V38.4222H175.086V30.4796H175.482V31.7736C175.935 30.979 176.773 30.355 177.893 30.355C179.433 30.355 180.599 31.4899 180.599 33.2026C180.599 34.9165 179.433 36.0502 177.893 36.0502V36.0502ZM187.539 31.1602L183.566 35.9252H183.181V30.4796H183.612V35.245L187.573 30.4796H187.969V35.9252H187.539V31.1602ZM193.371 36.0502C191.967 36.0502 190.552 35.1769 190.552 33.2489C190.552 31.2285 192.07 30.355 193.473 30.355C194.027 30.355 194.628 30.4914 195.092 30.7975V31.218C194.65 30.9107 194.062 30.7637 193.518 30.7637C192.273 30.7637 190.982 31.4899 190.982 33.2365C190.982 34.8928 192.182 35.6418 193.415 35.6418C194.027 35.6418 194.65 35.4945 195.148 35.2108V35.6418C194.616 35.9252 194.005 36.0502 193.371 36.0502ZM199.576 35.9252H199.145V30.8882H196.95V30.4796H201.761V30.8882H199.576V35.9252ZM208.338 31.1602L204.366 35.9252H203.981V30.4796H204.41V35.245L208.372 30.4796H208.769V35.9252H208.338V31.1602ZM215.324 33.8726C214.77 34.11 214.193 34.2244 213.502 34.2244C212.199 34.2244 211.328 33.6112 211.328 32.2727V30.4796H211.759V32.2504C211.759 33.3735 212.483 33.8161 213.615 33.8161C214.26 33.8161 214.803 33.7255 215.324 33.4863V30.4796H215.755V35.9252H215.324V33.8726ZM221.02 30.7637C219.866 30.7637 218.812 31.5583 218.768 33.0332H223.069C223.171 32.1022 222.673 30.7637 221.02 30.7637V30.7637ZM218.768 33.418C218.835 34.9954 220.057 35.6418 221.36 35.6418C222.005 35.6418 222.661 35.4827 223.125 35.2108V35.6418C222.651 35.9031 221.97 36.0502 221.303 36.0502C219.752 36.0502 218.337 35.1887 218.337 33.2026C218.337 31.3532 219.661 30.355 220.997 30.355C223.024 30.355 223.691 32.0795 223.442 33.418H218.768ZM228.448 36.0502C227.043 36.0502 225.629 35.1769 225.629 33.2489C225.629 31.2285 227.146 30.355 228.549 30.355C229.105 30.355 229.703 30.4914 230.169 30.7975V31.218C229.727 30.9107 229.139 30.7637 228.595 30.7637C227.35 30.7637 226.059 31.4899 226.059 33.2365C226.059 34.8928 227.26 35.6418 228.493 35.6418C229.105 35.6418 229.727 35.4945 230.225 35.2108V35.6418C229.693 35.9252 229.081 36.0502 228.448 36.0502V36.0502ZM236.928 35.9252L234.561 33.3272H233.204V35.9252H232.773V30.4796H233.204V32.9189H234.595L236.633 30.4796H237.143L234.935 33.1345L237.448 35.9252H236.928ZM243.336 33.3955C242.804 33.2247 242.158 33.1 241.525 33.1C240.551 33.1 239.556 33.4403 239.556 34.4503C239.556 35.2791 240.291 35.6654 241.061 35.6654C241.967 35.6654 242.849 35.2225 243.336 34.3834V33.3955ZM244.196 35.9488C243.754 35.9488 243.336 35.7217 243.336 35.0638V34.9165C242.793 35.6418 241.943 36.0502 240.982 36.0502C240.042 36.0502 239.114 35.5511 239.114 34.4622C239.114 33.1684 240.315 32.7258 241.479 32.7258C242.125 32.7258 242.77 32.8402 243.336 33.0213V32.5222C243.336 31.4676 242.692 30.7637 241.469 30.7637C240.654 30.7637 239.974 30.9445 239.533 31.1154V30.6953C239.951 30.5483 240.642 30.355 241.503 30.355C242.941 30.355 243.766 31.1837 243.766 32.567V35.0516C243.766 35.4501 244.015 35.5734 244.31 35.5734C244.445 35.5734 244.593 35.5405 244.728 35.4945V35.8581C244.559 35.9149 244.378 35.9488 244.196 35.9488V35.9488ZM250.706 30.8764H248.636C247.616 30.8764 247.016 31.3873 247.016 32.1478C247.016 32.9189 247.628 33.418 248.636 33.418H250.706V30.8764ZM250.706 33.8161H248.465L246.869 35.9252H246.361L248.001 33.7583C247.108 33.5768 246.586 32.953 246.586 32.1478C246.586 31.1837 247.345 30.4796 248.602 30.4796H251.137V35.9252H250.706V33.8161ZM260.647 36.0502C259.244 36.0502 257.83 35.1769 257.83 33.2489C257.83 31.2285 259.346 30.355 260.75 30.355C261.304 30.355 261.904 30.4914 262.368 30.7975V31.218C261.926 30.9107 261.338 30.7637 260.796 30.7637C259.551 30.7637 258.26 31.4899 258.26 33.2365C258.26 34.8928 259.459 35.6418 260.693 35.6418C261.304 35.6418 261.926 35.4945 262.426 35.2108V35.6418C261.894 35.9252 261.282 36.0502 260.647 36.0502V36.0502ZM267.113 30.7637C265.959 30.7637 264.906 31.5583 264.861 33.0332H269.162C269.264 32.1022 268.766 30.7637 267.113 30.7637ZM264.861 33.418C264.929 34.9954 266.151 35.6418 267.453 35.6418C268.097 35.6418 268.754 35.4827 269.219 35.2108V35.6418C268.744 35.9031 268.065 36.0502 267.396 36.0502C265.845 36.0502 264.431 35.1887 264.431 33.2026C264.431 31.3532 265.755 30.355 267.091 30.355C269.117 30.355 269.784 32.0795 269.535 33.418H264.861ZM273.85 35.9252H273.419V30.8882H271.224V30.4796H276.035V30.8882H273.85V35.9252ZM280.62 32.9189H278.685V35.5286H280.62C281.65 35.5286 282.273 35.0072 282.273 34.2244C282.273 33.4297 281.64 32.9189 280.62 32.9189V32.9189ZM280.666 35.9252H278.255V30.4796H278.685V32.5222H280.666C281.923 32.5222 282.714 33.2365 282.714 34.2244C282.714 35.2108 281.923 35.9252 280.666 35.9252" fill="#15191E"/>
</svg>
