<svg width="18" height="18" viewBox="0 0 18 18" fill="none" xmlns="http://www.w3.org/2000/svg">
<path d="M14.1923 0H3.8077C2.85578 0 2.07693 0.778846 2.07693 1.73077V14.1923C2.07693 14.7288 2.37117 15.1788 2.78655 15.4904C2.78655 15.5077 2.76924 15.5423 2.76924 15.5769V16.7885C2.76924 17.4635 3.30578 18 3.98078 18H4.32693C5.00193 18 5.53847 17.4635 5.53847 16.7885V15.9231H12.4615V16.7885C12.4615 17.4635 12.9981 18 13.6731 18H14.0192C14.6942 18 15.2308 17.4635 15.2308 16.7885V15.5769C15.6462 15.2654 15.9231 14.7635 15.9231 14.1923V1.73077C15.9231 0.778846 15.1442 0 14.1923 0ZM4.84617 16.7885C4.84617 17.0827 4.62117 17.3077 4.32693 17.3077H3.98078C3.68655 17.3077 3.46155 17.0827 3.46155 16.7885V15.8365C3.63463 15.8885 3.8077 15.9231 3.98078 15.9231H4.84617V16.7885ZM14.5385 16.7885C14.5385 17.0827 14.3135 17.3077 14.0192 17.3077H13.6731C13.3789 17.3077 13.1539 17.0827 13.1539 16.7885V15.9231H14.1923C14.3135 15.9231 14.4346 15.9058 14.5385 15.8885V16.7885ZM15.2308 14.1923C15.2308 14.7635 14.7635 15.2308 14.1923 15.2308H3.98078C3.42693 15.2308 2.76924 14.7635 2.76924 14.1923V11.0769H15.2308V14.1923ZM15.2308 10.3846H2.76924V3.46154H15.2308V10.3846ZM15.2308 2.76923H2.76924V1.73077C2.76924 1.15962 3.23655 0.692308 3.8077 0.692308H14.1923C14.7635 0.692308 15.2308 1.15962 15.2308 1.73077V2.76923Z" fill="#828282"/>
<path d="M8.3077 1.38461H6.0577C5.86732 1.38461 5.71155 1.54038 5.71155 1.73077C5.71155 1.92115 5.86732 2.07692 6.0577 2.07692H8.3077C8.49809 2.07692 8.65386 1.92115 8.65386 1.73077C8.65386 1.54038 8.49809 1.38461 8.3077 1.38461Z" fill="#828282"/>
<path d="M10.3846 1.38461H9.86541C9.67503 1.38461 9.51926 1.54038 9.51926 1.73077C9.51926 1.92115 9.67503 2.07692 9.86541 2.07692H10.3846C10.575 2.07692 10.7308 1.92115 10.7308 1.73077C10.7308 1.54038 10.575 1.38461 10.3846 1.38461Z" fill="#828282"/>
<path d="M4.67307 14.0192C5.24423 14.0192 5.71154 13.5519 5.71154 12.9808C5.71154 12.4096 5.24423 11.9423 4.67307 11.9423C4.10192 11.9423 3.63461 12.4096 3.63461 12.9808C3.63461 13.5519 4.10192 14.0192 4.67307 14.0192ZM4.67307 12.6346C4.86346 12.6346 5.01923 12.7904 5.01923 12.9808C5.01923 13.1712 4.86346 13.3269 4.67307 13.3269C4.48269 13.3269 4.32692 13.1712 4.32692 12.9808C4.32692 12.7904 4.48269 12.6346 4.67307 12.6346Z" fill="#828282"/>
<path d="M13.3269 14.0192C13.8981 14.0192 14.3654 13.5519 14.3654 12.9808C14.3654 12.4096 13.8981 11.9423 13.3269 11.9423C12.7558 11.9423 12.2885 12.4096 12.2885 12.9808C12.2885 13.5519 12.7558 14.0192 13.3269 14.0192ZM13.3269 12.6346C13.5173 12.6346 13.6731 12.7904 13.6731 12.9808C13.6731 13.1712 13.5173 13.3269 13.3269 13.3269C13.1366 13.3269 12.9808 13.1712 12.9808 12.9808C12.9808 12.7904 13.1366 12.6346 13.3269 12.6346Z" fill="#828282"/>
</svg>
