<svg width="18" height="18" viewBox="0 0 18 18" fill="none" xmlns="http://www.w3.org/2000/svg">
<path d="M17.3115 7.21153L16.9192 6.79614L15.5423 3.08461C15.3077 2.45768 14.7077 2.0423 14.0385 2.03845H4.20385C3.53462 2.03845 2.93462 2.45768 2.7 3.08461L1.34231 6.74999L0.776923 7.27307C0.284615 7.6923 0 8.30768 0 8.95384V14.3615C0.00384615 15.2461 0.723077 15.9615 1.60769 15.9615H2.62308C3.50769 15.9615 4.22692 15.2461 4.23077 14.3615V13.5769H13.7692V14.3615C13.7731 15.2461 14.4923 15.9615 15.3769 15.9615H16.3923C17.2769 15.9615 17.9962 15.2461 18 14.3615V8.81153C17.9962 8.20768 17.75 7.63076 17.3115 7.21153ZM3.42308 3.34614C3.54615 3.01922 3.85769 2.80768 4.20385 2.80768H14.0423C14.3885 2.80768 14.7 3.02307 14.8231 3.34614L16.0231 6.57691H15.1269C14.9154 5.13461 13.5731 4.13845 12.1308 4.35384C10.9808 4.52307 10.0769 5.42691 9.90769 6.57691H2.22308L3.42308 3.34614ZM14.3423 6.57691H10.6846C10.8962 5.56538 11.8885 4.91922 12.9 5.13076C13.6231 5.28461 14.1885 5.84999 14.3423 6.57691ZM3.46154 14.3615C3.45769 14.8231 3.08462 15.1923 2.62308 15.1923H1.60769C1.14615 15.1923 0.773077 14.8231 0.769231 14.3615V13.3538C1 13.5038 1.30385 13.5769 1.60769 13.5769H3.46154V14.3615ZM17.2308 14.3615C17.2269 14.8231 16.8538 15.1923 16.3923 15.1923H15.3769C14.9154 15.1923 14.5423 14.8192 14.5385 14.3615V13.5769H16.3923C16.6962 13.5769 17 13.5038 17.2308 13.3538V14.3615ZM16.3923 12.8077H1.60769C1.15 12.8115 0.773077 12.4461 0.769231 11.9846V8.95384C0.769231 8.53076 0.957692 8.12691 1.28077 7.85384C1.28462 7.84999 1.29231 7.8423 1.29615 7.83845L1.81923 7.34614H16.3846L16.7538 7.7423C16.7577 7.74999 16.7692 7.75384 16.7731 7.76153C17.0615 8.03461 17.2269 8.41538 17.2269 8.81153V11.9846H17.2308C17.2269 12.4423 16.85 12.8115 16.3923 12.8077Z" fill="#24A3FF"/>
<path d="M5.07727 8.88461H2.19266C1.98112 8.88461 1.80804 9.05769 1.80804 9.26923V11.2692C1.80804 11.4808 1.98112 11.6538 2.19266 11.6538H5.07727C5.28881 11.6538 5.46189 11.4808 5.46189 11.2692V9.26923C5.46189 9.05769 5.28881 8.88461 5.07727 8.88461ZM4.69266 10.8846H2.57728V9.65384H4.69266V10.8846Z" fill="#24A3FF"/>
<path d="M15.8075 8.88461H12.9229C12.7113 8.88461 12.5383 9.05769 12.5383 9.26923V11.2692C12.5383 11.4808 12.7113 11.6538 12.9229 11.6538H15.8075C16.019 11.6538 16.1921 11.4808 16.1921 11.2692V9.26923C16.1921 9.05769 16.019 8.88461 15.8075 8.88461ZM15.4229 10.8846H13.3075V9.65384H15.4229V10.8846Z" fill="#24A3FF"/>
<path d="M10.8577 10.5H7.14237C6.93083 10.5 6.75775 10.6731 6.75775 10.8846C6.75775 11.0962 6.93083 11.2692 7.14237 11.2692H10.8577C11.0693 11.2692 11.2424 11.0962 11.2424 10.8846C11.2424 10.6731 11.0693 10.5 10.8577 10.5Z" fill="#24A3FF"/>
<path d="M10.8577 9.30771H7.14237C6.93083 9.30771 6.75775 9.48079 6.75775 9.69232C6.75775 9.90386 6.93083 10.0769 7.14237 10.0769H10.8577C11.0693 10.0769 11.2424 9.90386 11.2424 9.69232C11.2424 9.48079 11.0693 9.30771 10.8577 9.30771Z" fill="#24A3FF"/>
</svg>
