<svg width="18" height="18" viewBox="0 0 18 18" fill="none" xmlns="http://www.w3.org/2000/svg">
<path d="M11.8147 1.40625C11.6207 1.40625 11.4632 1.56375 11.4632 1.75781C11.4632 1.95187 11.6207 2.10938 11.8147 2.10938C12.0088 2.10938 12.1663 1.95187 12.1663 1.75781C12.1663 1.56375 12.0088 1.40625 11.8147 1.40625Z" fill="#828282"/>
<path d="M6.18973 1.40625C5.99567 1.40625 5.83817 1.56375 5.83817 1.75781C5.83817 1.95187 5.99567 2.10938 6.18973 2.10938C6.38379 2.10938 6.54129 1.95187 6.54129 1.75781C6.54129 1.56375 6.38379 1.40625 6.18973 1.40625Z" fill="#828282"/>
<path d="M16.3146 17.4053L13.9882 14.9749C14.9281 14.9413 15.6824 14.1667 15.6824 13.2188V2.78684C15.6824 2.21882 15.4838 1.66412 15.1233 1.22491C14.7625 0.785812 14.257 0.483223 13.7002 0.373078C12.4524 0.125508 11.1749 0 9.90307 0H8.04577C6.83615 0 5.57618 0.115875 4.3012 0.370687C3.15493 0.600012 2.323 1.61501 2.323 2.78402V13.2188C2.323 14.1746 3.09011 14.9542 4.04098 14.9755L1.68836 17.4038C1.59009 17.5052 1.56204 17.6555 1.61713 17.7855C1.67215 17.9155 1.79966 18 1.94085 18H4.45452C4.56723 18 4.67309 17.946 4.73922 17.8547L5.80565 16.3828H12.231L13.2974 17.8547C13.3636 17.946 13.4695 18 13.5821 18H16.0607C16.2015 18 16.3286 17.916 16.3839 17.7865C16.4392 17.657 16.412 17.5071 16.3146 17.4053ZM3.02612 13.2188V2.78402C3.02612 1.94896 3.62037 1.22396 4.43905 1.06014C5.58666 0.830777 6.7993 0.703125 8.04573 0.703125H9.90304C11.129 0.703125 12.3605 0.824098 13.5634 1.06274C13.9612 1.14145 14.3222 1.35759 14.5799 1.67115C14.8374 1.98485 14.9792 2.38106 14.9792 2.7868V13.2188C14.9792 13.8003 14.5061 14.2734 13.9245 14.2734H4.08077C3.49925 14.2734 3.02612 13.8003 3.02612 13.2188ZM4.27512 17.2969H2.77096L5.01895 14.9766H5.95629L4.27512 17.2969ZM6.31509 15.6797L6.82454 14.9766H11.2121L11.7216 15.6797H6.31509ZM13.7615 17.2969L12.0804 14.9766H13.0165L15.2375 17.2969H13.7615Z" fill="#828282"/>
<path d="M13.9241 2.8125H4.08035C3.88622 2.8125 3.72879 2.96993 3.72879 3.16406V9C3.72879 9.19413 3.88622 9.35156 4.08035 9.35156H13.9241C14.1182 9.35156 14.2757 9.19413 14.2757 9V3.16406C14.2757 2.96993 14.1182 2.8125 13.9241 2.8125ZM8.65067 8.64844H4.43192V3.51562H8.65067V8.64844ZM13.5725 8.64844H9.35379V3.51562H13.5725V8.64844Z" fill="#828282"/>
<path d="M10.4085 1.40625H7.59598C7.40184 1.40625 7.24442 1.56368 7.24442 1.75781C7.24442 1.95195 7.40184 2.10938 7.59598 2.10938H10.4085C10.6026 2.10938 10.76 1.95195 10.76 1.75781C10.76 1.56368 10.6026 1.40625 10.4085 1.40625Z" fill="#828282"/>
<path d="M12.8694 10.4062C12.094 10.4062 11.4632 11.0371 11.4632 11.8125C11.4632 12.5879 12.094 13.2188 12.8694 13.2188C13.6448 13.2188 14.2757 12.5879 14.2757 11.8125C14.2757 11.0371 13.6448 10.4062 12.8694 10.4062ZM12.8694 12.5156C12.4817 12.5156 12.1663 12.2002 12.1663 11.8125C12.1663 11.4248 12.4817 11.1094 12.8694 11.1094C13.2571 11.1094 13.5725 11.4248 13.5725 11.8125C13.5725 12.2002 13.2571 12.5156 12.8694 12.5156Z" fill="#828282"/>
<path d="M5.13504 10.4062C4.35963 10.4062 3.72879 11.0371 3.72879 11.8125C3.72879 12.5879 4.35967 13.2188 5.13504 13.2188C5.91044 13.2188 6.54128 12.5879 6.54128 11.8125C6.54128 11.0371 5.91044 10.4062 5.13504 10.4062ZM5.13504 12.5156C4.74733 12.5156 4.43191 12.2002 4.43191 11.8125C4.43191 11.4248 4.74733 11.1094 5.13504 11.1094C5.52274 11.1094 5.83816 11.4248 5.83816 11.8125C5.83816 12.2002 5.52274 12.5156 5.13504 12.5156Z" fill="#828282"/>
<path d="M10.4085 10.7578H7.59598C7.40184 10.7578 7.24442 10.9152 7.24442 11.1094C7.24442 11.3035 7.40184 11.4609 7.59598 11.4609H10.4085C10.6026 11.4609 10.76 11.3035 10.76 11.1094C10.76 10.9152 10.6026 10.7578 10.4085 10.7578Z" fill="#828282"/>
<path d="M10.4085 12.1641H7.59598C7.40184 12.1641 7.24442 12.3215 7.24442 12.5156C7.24442 12.7098 7.40184 12.8672 7.59598 12.8672H10.4085C10.6026 12.8672 10.76 12.7098 10.76 12.5156C10.76 12.3215 10.6026 12.1641 10.4085 12.1641Z" fill="#828282"/>
</svg>
