<svg width="18" height="18" viewBox="0 0 18 18" fill="none" xmlns="http://www.w3.org/2000/svg">
<g clip-path="url(#clip0)">
<path d="M8.48072 9.0578C8.34326 9.19512 8.34326 9.41817 8.48072 9.5559C8.61819 9.69364 8.84067 9.69364 8.97786 9.5559C9.11532 9.41817 9.11532 9.19512 8.97786 9.0578C8.84067 8.92006 8.61819 8.92006 8.48072 9.0578Z" fill="#828282"/>
<path d="M14.0695 1.04809C13.4663 1.51606 13.3019 1.75727 11.1623 3.87889L9.87963 3.6696L10.4682 3.07986C10.8805 2.66679 10.8806 1.99848 10.4682 1.58541C10.0561 1.17248 9.38867 1.17234 8.97655 1.58541L7.31404 3.25117L1.49979 2.30271C1.12406 2.24161 0.739675 2.36614 0.470784 2.63556C-0.0462607 3.15361 0.0239145 4.01071 0.613744 4.43836L6.4078 8.64253L5.32304 9.72955C4.95129 10.102 4.56004 10.6143 4.15794 11.254L1.45585 10.4579C1.05704 10.3405 0.626378 10.4504 0.331807 10.745C-0.16972 11.2475 -0.093914 12.0821 0.488637 12.4863L2.70376 14.0227C2.31814 14.8754 2.08372 15.492 2.07287 15.5205C2.0237 15.6501 2.05515 15.7967 2.15293 15.8946C2.25126 15.9931 2.39765 16.0238 2.52633 15.9748C2.55476 15.9641 3.17013 15.7291 4.02116 15.3427L5.55471 17.5623C5.95887 18.147 6.79178 18.221 7.29275 17.719C7.58664 17.4242 7.69636 16.9927 7.57909 16.5931L6.78464 13.8858C7.42349 13.4827 7.93449 13.0907 8.30611 12.7185L9.39101 11.6314L13.5868 17.4368C14.0143 18.0288 14.8698 18.0976 15.3863 17.5801C15.655 17.3108 15.7793 16.9254 15.7185 16.5488L14.7718 10.7236L16.4342 9.05794C16.8465 8.64487 16.8465 7.97614 16.4342 7.56321C16.0221 7.15014 15.3551 7.15014 14.9428 7.56321L14.3541 8.15296L14.1453 6.86779C16.265 4.72182 16.5019 4.56096 16.9692 3.9565C16.9698 3.95581 16.9705 3.95498 16.971 3.95416C18.0554 2.54612 18.3092 1.12404 17.6021 0.415277C16.8948 -0.292939 15.4754 -0.0389337 14.0695 1.04809ZM9.47368 2.08365C9.61101 1.94592 9.83362 1.94592 9.97109 2.08365C10.1086 2.22139 10.1084 2.44388 9.97109 2.58162L9.02434 3.53008L8.16919 3.39056L9.47368 2.08365ZM1.02601 3.86761C0.785405 3.69327 0.757802 3.34418 0.968053 3.13366C1.0775 3.02386 1.23433 2.97308 1.38705 2.99799L10.5497 4.49271L6.91139 8.13796L1.02601 3.86761ZM0.828939 11.2434C0.941274 11.131 1.10552 11.0889 1.25754 11.1337L3.78481 11.8784C3.52636 12.3319 3.26557 12.8329 3.00547 13.3752L0.888952 11.9072C0.66689 11.7531 0.637776 11.4348 0.828939 11.2434ZM6.79535 17.2212C6.60583 17.4111 6.28778 17.3855 6.13273 17.1612L4.66757 15.0404C5.20919 14.7795 5.70935 14.5181 6.16144 14.2597L6.90452 16.7918C6.94929 16.9442 6.90741 17.1088 6.79535 17.2212ZM15.4401 8.06131C15.5774 7.92372 15.7996 7.92358 15.9371 8.06131C16.0746 8.19905 16.0744 8.42196 15.9371 8.55969L14.6326 9.8666L14.4935 9.00978L15.4401 8.06131ZM15.0244 16.6617C15.0492 16.8152 14.9986 16.9723 14.8891 17.082C14.68 17.2915 14.3313 17.2659 14.1565 17.0238L9.89446 11.127L13.5327 7.48162L15.0244 16.6617ZM7.80897 12.2202C7.42212 12.608 6.85591 13.0265 6.12614 13.4645C5.17747 14.0337 4.0548 14.5729 3.04214 15.0038C3.48393 13.9616 4.03214 12.8186 4.6125 11.8572C5.03698 11.1536 5.44334 10.6052 5.82031 10.2277C14.4081 1.64375 13.8993 2.08654 14.4204 1.66893C14.9986 1.63192 15.5075 1.80391 15.8618 2.15892C16.2161 2.51392 16.3879 3.02399 16.351 3.60314C15.9332 4.12657 16.3699 3.62172 7.80897 12.2202ZM16.9526 2.67752C16.8403 2.28922 16.6408 1.94303 16.3591 1.66081C16.0774 1.37874 15.7319 1.17867 15.3445 1.06611C15.8533 0.807568 16.7101 0.518062 17.1049 0.913381C17.4167 1.22587 17.3392 1.91372 16.9526 2.67752Z" fill="#828282"/>
<path d="M10.4691 7.06508L9.47482 8.06115C9.33749 8.19875 9.33749 8.4218 9.47482 8.55939C9.61215 8.69699 9.83463 8.69685 9.97209 8.55939L10.9662 7.56319C11.1035 7.42573 11.1035 7.20268 10.9662 7.06508C10.8289 6.92748 10.6064 6.92748 10.4691 7.06508Z" fill="#828282"/>
<path d="M12.4577 5.07241L11.463 6.06889C11.3258 6.20649 11.3258 6.42953 11.463 6.56713C11.6005 6.70459 11.8229 6.70459 11.9603 6.56713L12.9548 5.57065C13.0921 5.43305 13.0921 5.21 12.9548 5.07241C12.8175 4.93481 12.595 4.93481 12.4577 5.07241Z" fill="#828282"/>
</g>
<defs>
<clipPath id="clip0">
<rect width="18" height="18" fill="white"/>
</clipPath>
</defs>
</svg>
