<svg width="32" height="32" viewBox="0 0 32 32" fill="none" xmlns="http://www.w3.org/2000/svg">
<path d="M16.0002 3.69067C15.6407 3.69067 15.353 3.97831 15.353 4.33786V27.8786L10.522 23.0476C10.267 22.7926 9.8617 22.7926 9.60674 23.0476C9.35179 23.3025 9.35179 23.7078 9.60674 23.9628L15.5426 29.8986C15.6668 30.0229 15.8368 30.0882 16.0002 30.0882C16.1636 30.0882 16.3336 30.0229 16.4578 29.8986L22.3937 23.9628C22.6486 23.7078 22.6486 23.3025 22.3937 23.0476C22.1387 22.7926 21.7334 22.7926 21.4784 23.0476L16.6474 27.8786V4.33786C16.6474 3.97831 16.3598 3.69067 16.0002 3.69067Z" fill="white"/>
</svg>
