<svg width="19" height="19" viewBox="0 0 19 19" fill="none" xmlns="http://www.w3.org/2000/svg">
<path d="M11.0177 9.52472L18.096 2.44644C18.5357 2.00705 18.5357 1.29412 18.096 0.854727C17.6562 0.414961 16.944 0.414961 16.5042 0.854727L9.42597 7.933L2.34732 0.854727C1.90755 0.414961 1.19537 0.414961 0.755606 0.854727C0.31584 1.29412 0.31584 2.00705 0.755606 2.44644L7.83426 9.52472L0.755606 16.603C0.31584 17.0424 0.31584 17.7553 0.755606 18.1947C0.975488 18.4142 1.26366 18.5242 1.55146 18.5242C1.83926 18.5242 2.12743 18.4142 2.34732 18.1943L9.42597 11.1161L16.5042 18.1943C16.7241 18.4142 17.0123 18.5242 17.3001 18.5242C17.5879 18.5242 17.8761 18.4142 18.096 18.1943C18.5357 17.7549 18.5357 17.042 18.096 16.6026L11.0177 9.52472Z" fill="#BDBDBD"/>
</svg>
