<svg width="32" height="33" viewBox="0 0 32 33" fill="none" xmlns="http://www.w3.org/2000/svg">
<path d="M30.4 17.4637H29.8667V6.26374C29.8667 3.59706 27.7334 1.46375 25.0667 1.46375C22.7061 1.46375 21.0082 3.21412 20.8183 5.77881C19.579 6.01306 18.6667 7.08043 18.6667 8.39706C18.6667 8.71706 18.88 8.93037 19.2 8.93037H23.4667C23.7867 8.93037 24 8.71706 24 8.39706C24 7.095 23.1079 6.0365 21.8896 5.78662C22.0489 4.09187 23.0668 2.53037 25.0667 2.53037C27.1467 2.53037 28.8 4.18368 28.8 6.26368V17.4637H12.7484C12.5072 16.2336 11.4436 15.3304 10.1334 15.3304C9.60006 14.6904 8.85338 14.2637 8.00006 14.2637C6.98675 14.2637 6.08006 14.8504 5.65338 15.7037C5.22669 15.4904 4.74669 15.3304 4.26669 15.3304C2.9565 15.3304 1.89288 16.2336 1.65163 17.4637H1.6C0.693313 17.4637 0 18.157 0 19.0637C0 19.9704 0.693313 20.6637 1.6 20.6637H2.24094L3.68 26.3704C4.10669 28.0237 5.6 29.1971 7.30669 29.1971H7.73338L7.04006 30.5837C6.88006 30.8504 6.98675 31.1704 7.25338 31.2771C7.30669 31.3304 7.41338 31.3304 7.46669 31.3304C7.68 31.3304 7.84 31.2237 7.94669 31.0637L8.88 29.1971H23.68L24.5867 31.0104C24.6934 31.2237 24.8534 31.3304 25.0667 31.3304C25.1734 31.3304 25.2267 31.3304 25.28 31.2237C25.4933 31.117 25.6 30.797 25.4933 30.5304L24.8253 29.1942C26.4764 29.1356 27.9044 27.9823 28.32 26.4237L29.7725 20.6637H30.4C31.3067 20.6637 32 19.9704 32 19.0637C32 18.1571 31.3067 17.4637 30.4 17.4637ZM22.88 7.86375H19.84C20.0533 7.22375 20.6933 6.79706 21.3867 6.79706C22.0801 6.79706 22.6667 7.22375 22.88 7.86375ZM4.26669 16.3971C4.74669 16.3971 5.17338 16.6104 5.54669 16.9837C5.65338 17.1437 5.86669 17.1971 6.08 17.1437C6.29331 17.0904 6.4 16.9304 6.45331 16.7171C6.61331 15.9171 7.25331 15.3304 8.05331 15.3304C8.64 15.3304 9.17331 15.5971 9.44 16.1304C9.54669 16.3437 9.81331 16.4504 10.0267 16.3971C10.08 16.3971 10.1334 16.3971 10.1867 16.3971C10.88 16.3971 11.4667 16.8237 11.68 17.4637H2.77331C2.98669 16.8237 3.57331 16.3971 4.26669 16.3971ZM27.36 26.1037C27.04 27.2771 25.9733 28.1304 24.7467 28.1304H7.36C6.13331 28.1304 5.06669 27.2771 4.74669 26.1037L3.36 20.6637H28.64L27.36 26.1037ZM30.4 19.5971H29.3333H2.66669H1.6C1.28 19.5971 1.06669 19.3837 1.06669 19.0637C1.06669 18.7437 1.28 18.5304 1.6 18.5304H2.13331H12.2666H30.4C30.72 18.5304 30.9333 18.7437 30.9333 19.0637C30.9333 19.3837 30.72 19.5971 30.4 19.5971Z" fill="#24A3FF"/>
<path d="M19.2001 11.3304C19.5201 11.3304 19.7334 11.1171 19.7334 10.7971V10.5304C19.7334 10.2104 19.5201 9.99707 19.2001 9.99707C18.8801 9.99707 18.6667 10.2104 18.6667 10.5304V10.7971C18.6667 11.1171 18.8801 11.3304 19.2001 11.3304Z" fill="#24A3FF"/>
<path d="M19.2001 13.7837C19.5201 13.7837 19.7334 13.517 19.7334 13.2504V12.6637C19.7334 12.3437 19.5201 12.1304 19.2001 12.1304C18.8801 12.1304 18.6667 12.3437 18.6667 12.6637V13.2504C18.6667 13.5703 18.8801 13.7837 19.2001 13.7837Z" fill="#24A3FF"/>
<path d="M19.2001 15.8638C19.5201 15.8638 19.7334 15.6505 19.7334 15.3305V15.0638C19.7334 14.7438 19.5201 14.5305 19.2001 14.5305C18.8801 14.5305 18.6667 14.7438 18.6667 15.0638V15.3305C18.6667 15.6505 18.8801 15.8638 19.2001 15.8638Z" fill="#24A3FF"/>
<path d="M21.3336 11.3304C21.6536 11.3304 21.8669 11.1171 21.8669 10.7971V10.5304C21.8669 10.2104 21.6536 9.99707 21.3336 9.99707C21.0136 9.99707 20.8003 10.2104 20.8003 10.5304V10.7971C20.8003 11.1171 21.0136 11.3304 21.3336 11.3304Z" fill="#24A3FF"/>
<path d="M20.8003 13.2504C20.8003 13.5704 21.0136 13.7837 21.3336 13.7837C21.6536 13.7837 21.8669 13.517 21.8669 13.2504V12.6637C21.8669 12.3437 21.6536 12.1304 21.3336 12.1304C21.0136 12.1304 20.8003 12.3437 20.8003 12.6637V13.2504Z" fill="#24A3FF"/>
<path d="M20.8003 15.3304C20.8003 15.6504 21.0136 15.8637 21.3336 15.8637C21.6536 15.8637 21.8669 15.6504 21.8669 15.3304V15.0637C21.8669 14.7437 21.6536 14.5304 21.3336 14.5304C21.0136 14.5304 20.8003 14.7437 20.8003 15.0637V15.3304Z" fill="#24A3FF"/>
<path d="M23.4672 11.3304C23.7872 11.3304 24.0005 11.1171 24.0005 10.7971V10.5304C24.0005 10.2104 23.7872 9.99707 23.4672 9.99707C23.1472 9.99707 22.9338 10.2104 22.9338 10.5304V10.7971C22.9338 11.1171 23.1472 11.3304 23.4672 11.3304Z" fill="#24A3FF"/>
<path d="M22.9336 13.2504C22.9336 13.5704 23.1469 13.7837 23.4669 13.7837C23.7869 13.7837 24.0003 13.5171 24.0003 13.2504V12.6637C24.0003 12.3437 23.787 12.1304 23.467 12.1304C23.147 12.1304 22.9337 12.3437 22.9337 12.6637V13.2504H22.9336Z" fill="#24A3FF"/>
<path d="M22.9336 15.3304C22.9336 15.6504 23.1469 15.8637 23.4669 15.8637C23.7869 15.8637 24.0002 15.6504 24.0002 15.3304V15.0637C24.0002 14.7437 23.7869 14.5304 23.4669 14.5304C23.1469 14.5304 22.9336 14.7437 22.9336 15.0637V15.3304Z" fill="#24A3FF"/>
</svg>
