<svg width="32" height="32" viewBox="0 0 32 32" fill="none" xmlns="http://www.w3.org/2000/svg">
<path d="M31.252 16.5544C31.0331 16.1107 26.349 8.38963 26.2303 8.19682C25.356 6.77782 23.8403 5.9307 22.176 5.9307C21.9386 5.9307 21.7054 5.9487 21.4771 5.98245C21.477 5.98201 21.4763 5.98107 21.4761 5.98082C21.0728 5.32726 20.3748 4.93701 19.6089 4.93701C18.3997 4.93701 17.4158 5.92082 17.4158 7.13013V10.9621H14.5842V7.13013C14.5842 5.92089 13.6003 4.93701 12.391 4.93701C11.6265 4.93701 10.9298 5.32582 10.5229 5.98245C10.2947 5.9487 10.0614 5.9307 9.82392 5.9307C8.15961 5.9307 6.64399 6.77788 5.76955 8.19694C5.75749 8.21651 5.7208 8.27613 4.83943 9.75369C4.68793 10.0077 4.77105 10.3364 5.02499 10.4879C5.27899 10.6394 5.60774 10.5564 5.75924 10.3024C6.48449 9.08663 6.66111 8.79188 6.68155 8.75869C7.35942 7.65857 8.53417 7.00176 9.82398 7.00176C11.8582 7.00176 13.5131 8.65669 13.5131 10.6909V10.6912V15.9686C12.23 13.8761 9.92142 12.4771 7.29211 12.4771C6.10468 12.4771 4.98274 12.7626 3.99105 13.2682C4.24574 12.8409 4.5148 12.3894 4.7848 11.9367C4.93624 11.6826 4.85312 11.3539 4.59905 11.2024C4.34499 11.051 4.0163 11.1341 3.86481 11.3882C2.72693 13.2966 0.935998 16.1601 0.709749 16.6328C0.255 17.5832 0 18.647 0 19.7693C0 23.7902 3.27124 27.0614 7.29211 27.0614C11.313 27.0614 14.5842 23.7902 14.5842 19.7693V18.3464H17.4158V19.7693C17.4158 23.7902 20.687 27.0614 24.7078 27.0614C28.7287 27.0614 31.9999 23.7902 31.9999 19.7693C32 18.616 31.7308 17.5247 31.252 16.5544ZM13.5131 7.68669C13.0184 7.08026 12.3775 6.59788 11.6445 6.29332C11.8473 6.11145 12.1102 6.00807 12.3911 6.00807C13.0098 6.00807 13.5131 6.51138 13.5131 7.13007V7.68669ZM7.29211 25.9902C3.86181 25.9902 1.07106 23.1995 1.07106 19.7692C1.07106 16.3389 3.86181 13.5482 7.29211 13.5482C10.7224 13.5482 13.5131 16.3389 13.5131 19.7692C13.5131 23.1995 10.7224 25.9902 7.29211 25.9902ZM14.5841 15.2189V12.0331H17.4157V15.2189H14.5841ZM17.4158 17.2753H14.5842V16.2901H17.4158V17.2753ZM18.4868 7.13013C18.4868 6.51145 18.9902 6.00813 19.6088 6.00813C19.8906 6.00813 20.1544 6.1122 20.3561 6.29313C19.6229 6.5977 18.9817 7.0802 18.4868 7.68676V7.13013ZM18.4868 10.6912V10.6909C18.4868 8.65663 20.1418 7.00176 22.176 7.00176C23.4658 7.00176 24.6405 7.65863 25.3184 8.75869C25.3826 8.863 26.7211 11.1077 28.0089 13.2682C27.0171 12.7626 25.8952 12.4771 24.7078 12.4771C22.0785 12.4771 19.7699 13.8761 18.4868 15.9686V10.6912H18.4868ZM24.7079 25.9902C21.2776 25.9902 18.4869 23.1995 18.4869 19.7692C18.4869 16.3389 21.2776 13.5481 24.7079 13.5481C28.1382 13.5481 30.9289 16.3389 30.9289 19.7692C30.9289 23.1995 28.1381 25.9902 24.7079 25.9902Z" fill="#24A3FF"/>
<path d="M29.4033 18.0816C29.3032 17.8034 28.9966 17.6588 28.7182 17.7589C28.44 17.8589 28.2954 18.1657 28.3955 18.444C28.5478 18.8679 28.6252 19.3138 28.6252 19.7692C28.6252 21.929 26.8681 23.6861 24.7082 23.6861C22.5484 23.6861 20.7913 21.929 20.7913 19.7692C20.7913 17.6094 22.5484 15.8523 24.7082 15.8523C25.7922 15.8523 26.8375 16.3076 27.5764 17.1016C27.7779 17.3181 28.1167 17.3302 28.3333 17.1287C28.5498 16.9272 28.562 16.5884 28.3605 16.3718C27.4198 15.3609 26.0886 14.7811 24.7082 14.7811C21.9578 14.7811 19.7202 17.0187 19.7202 19.7691C19.7202 22.5196 21.9578 24.7571 24.7082 24.7571C27.4587 24.7571 29.6962 22.5196 29.6962 19.7691C29.6963 19.19 29.5977 18.6222 29.4033 18.0816Z" fill="#24A3FF"/>
<path d="M7.29191 14.7814C4.54148 14.7814 2.30392 17.0189 2.30392 19.7694C2.30392 22.5198 4.54148 24.7574 7.29191 24.7574C10.0423 24.7574 12.2799 22.5198 12.2799 19.7694C12.2799 17.0189 10.0423 14.7814 7.29191 14.7814ZM7.29191 23.6862C5.13211 23.6862 3.37498 21.9292 3.37498 19.7693C3.37498 17.6095 5.13204 15.8524 7.29191 15.8524C9.45179 15.8524 11.2088 17.6094 11.2088 19.7693C11.2088 21.9292 9.45166 23.6862 7.29191 23.6862Z" fill="#24A3FF"/>
</svg>
