<svg width="32" height="33" viewBox="0 0 32 33" fill="none" xmlns="http://www.w3.org/2000/svg">
<g clip-path="url(#clip0)">
<path d="M28.361 14.7533V5.85577C28.361 4.04652 26.8891 2.57458 25.0798 2.57458H6.92006C5.11081 2.57458 3.639 4.04652 3.639 5.85577V14.7533C1.55425 15.2548 0 17.134 0 19.3704V26.0068C0 26.5333 0.426813 26.9601 0.953313 26.9601H3.63894V29.2658C3.63894 29.7923 4.06575 30.2191 4.59225 30.2191C5.11875 30.2191 5.54556 29.7923 5.54556 29.2658V26.9601H26.4543V29.2658C26.4543 29.7923 26.8811 30.2191 27.4076 30.2191C27.9341 30.2191 28.3609 29.7923 28.3609 29.2658V26.9601H31.0466C31.5731 26.9601 31.9999 26.5333 31.9999 26.0068V19.3704C32 17.134 30.4457 15.2548 28.361 14.7533ZM5.54563 5.85577C5.54563 5.0979 6.16225 4.48127 6.92006 4.48127H25.0799C25.8378 4.48127 26.4544 5.0979 26.4544 5.85577V14.6209H23.3041V13.1169C23.3041 10.625 21.2767 8.59777 18.7849 8.59777H13.2152C10.7233 8.59777 8.69606 10.6251 8.69606 13.1169V14.6208H5.54563V5.85577ZM21.3974 13.1169V14.6208H10.6026V13.1169C10.6026 11.6763 11.7745 10.5044 13.2151 10.5044H18.7849C20.2254 10.5043 21.3974 11.6764 21.3974 13.1169ZM1.90663 25.0535V19.3704C1.90663 17.8028 3.18194 16.5275 4.7495 16.5275H27.2504C28.8179 16.5275 30.0933 17.8028 30.0933 19.3704V25.0535H1.90663Z" fill="#24A3FF" stroke="white" stroke-width="0.5"/>
</g>
<defs>
<clipPath id="clip0">
<rect width="32" height="32" fill="white" transform="translate(0 0.396973)"/>
</clipPath>
</defs>
</svg>
