<svg width="32" height="33" viewBox="0 0 32 33" fill="none" xmlns="http://www.w3.org/2000/svg">
<path d="M31.8181 12.8727L16.2409 2.06705C16.0959 1.96642 15.9038 1.96642 15.7589 2.06705L0.181858 12.8727C0.0299183 12.9781 -0.0359036 13.1699 0.0193473 13.3464C0.0745277 13.5229 0.238025 13.643 0.422876 13.643H2.45116V30.6975H0.883488C0.64994 30.6975 0.46065 30.8868 0.46065 31.1203C0.46065 31.3538 0.64994 31.5431 0.883488 31.5431H31.1164C31.35 31.5431 31.5393 31.3538 31.5393 31.1203C31.5393 30.8868 31.35 30.6975 31.1164 30.6975H29.5488V13.643H31.5771C31.762 13.643 31.9254 13.5229 31.9806 13.3464C32.0358 13.1699 31.97 12.9781 31.8181 12.8727ZM3.29684 30.6975V13.643H4.77677V30.6975H3.29684ZM12.9025 7.13618H19.0973L21.0783 8.51041H10.9215L12.9025 7.13618ZM14.1216 6.29051L15.9999 4.9876L17.8781 6.29051H14.1216ZM9.70242 9.35609H22.2974L24.2785 10.7303H7.72135L9.70242 9.35609ZM6.50224 11.576H25.4976L27.2583 12.7973H4.74168L6.50224 11.576ZM10.5031 23.6974V23.204H21.4969V23.6974H10.5031ZM21.9197 24.543C22.1532 24.543 22.3425 24.3537 22.3425 24.1202V22.7812C22.3425 22.5477 22.1532 22.3584 21.9197 22.3584H10.0802C9.84675 22.3584 9.65739 22.5477 9.65739 22.7812V24.1202C9.65739 24.3537 9.84675 24.543 10.0802 24.543H14.9076V30.6975H5.62245V18.4349L10.4143 13.643H21.5857L26.3775 18.4349V30.6975H17.0923V24.543H21.9197ZM6.67708 13.643L5.62245 14.6976V13.643H6.67708ZM5.62245 15.8935L7.87301 13.643H9.21834L5.62245 17.2389V15.8935ZM24.1269 13.643L26.3775 15.8935V17.2389L22.7816 13.643H24.1269ZM26.3775 14.6976L25.3229 13.643H26.3775V14.6976ZM15.7533 30.6975V24.543H16.2466V30.6975H15.7533ZM28.7031 30.6975H27.2232V13.643H28.7031V30.6975ZM28.7419 12.7973L16.2409 4.1255C16.0959 4.02487 15.9038 4.02487 15.7589 4.1255L3.25794 12.7973H1.77427L16 2.92915L30.2257 12.7973H28.7419Z" fill="#24A3FF"/>
</svg>
