<svg width="32" height="32" viewBox="0 0 32 32" fill="none" xmlns="http://www.w3.org/2000/svg">
<g clip-path="url(#clip0)">
<path d="M28.2943 19.9368L19.9713 14.6841V10.8557C20.4915 10.7296 20.8794 10.2612 20.8794 9.70281C20.8794 9.04806 20.3468 8.51544 19.692 8.51544H19.2529L16.8142 4.89375C16.7245 4.7605 16.6053 4.65375 16.4686 4.5795V2.31325H17.7711C18.0301 2.31325 18.24 2.10331 18.24 1.84438C18.24 1.58544 18.0301 1.3755 17.7711 1.3755H16.4686V0.468875C16.4685 0.209937 16.2587 0 15.9997 0C15.7407 0 15.5308 0.209937 15.5308 0.468875V1.37544H14.2283C13.9693 1.37544 13.7594 1.58538 13.7594 1.84431C13.7594 2.10325 13.9693 2.31319 14.2283 2.31319H15.5308V4.57944C15.3941 4.65375 15.2749 4.76044 15.1852 4.89362L12.7465 8.51538H12.3073C11.6526 8.51538 11.12 9.048 11.12 9.70275C11.12 10.2612 11.5079 10.7295 12.0281 10.8556V14.684L3.70504 19.9368C3.31154 20.1852 3.0766 20.6154 3.0766 21.0877C3.0766 21.5854 3.34322 22.0417 3.77247 22.2784C3.97185 22.3883 4.18772 22.4431 4.40297 22.4431C4.64372 22.4431 4.88379 22.3746 5.09941 22.2385L15.9997 15.3594L26.8998 22.2385C27.3082 22.4964 27.8043 22.5112 28.2268 22.2784C28.656 22.0418 28.9227 21.5855 28.9227 21.0877C28.9227 20.6154 28.6878 20.1852 28.2943 19.9368ZM15.963 5.4175C15.9666 5.41219 15.9761 5.39806 15.9996 5.39806C16.0231 5.39806 16.0327 5.41219 16.0362 5.41756L18.1222 8.5155H13.877L15.963 5.4175ZM12.3073 9.45325H19.692C19.8296 9.45325 19.9415 9.56525 19.9415 9.70281C19.9415 9.84044 19.8295 9.95238 19.692 9.95238H12.3073C12.1697 9.95238 12.0577 9.84037 12.0577 9.70281C12.0577 9.56525 12.1697 9.45325 12.3073 9.45325ZM19.0335 10.8903V14.0922L16.2499 12.3354C16.097 12.239 15.9023 12.239 15.7494 12.3354L12.9658 14.0922V10.8903H19.0335ZM27.774 21.4572C27.7172 21.4886 27.5666 21.5504 27.4004 21.4454L16.2499 14.4083C16.097 14.3119 15.9023 14.3119 15.7494 14.4083L4.59891 21.4455C4.43266 21.5502 4.28216 21.4885 4.22522 21.4572C4.09316 21.3844 4.01435 21.2463 4.01435 21.0877C4.01435 20.9414 4.0876 20.8044 4.20554 20.7299L15.9997 13.2866L27.7938 20.7299C27.9117 20.8044 27.985 20.9414 27.985 21.0877C27.9849 21.2462 27.9061 21.3843 27.774 21.4572Z" fill="#24A3FF"/>
<path d="M25.8074 22.7099C25.5484 22.7099 25.3386 22.9199 25.3386 23.1788V31.0623H19.8063V24.9084C19.8063 22.8095 18.0988 21.1019 15.9999 21.1019C13.9011 21.1019 12.1936 22.8094 12.1936 24.9084V31.0623H6.66132V23.1789C6.66132 22.9199 6.45138 22.71 6.19245 22.71C5.93351 22.71 5.72357 22.9199 5.72357 23.1789V31.5312C5.72357 31.7902 5.93351 32.0001 6.19245 32.0001H25.8074C26.0664 32.0001 26.2763 31.7902 26.2763 31.5312V23.1789C26.2763 22.9199 26.0664 22.7099 25.8074 22.7099ZM18.8686 31.0623H13.1314V24.9084C13.1314 23.3266 14.4183 22.0397 16 22.0397C17.5818 22.0397 18.8686 23.3266 18.8686 24.9084V31.0623Z" fill="#24A3FF"/>
</g>
<defs>
<clipPath id="clip0">
<rect width="32" height="32" fill="white"/>
</clipPath>
</defs>
</svg>
