<svg width="32" height="33" viewBox="0 0 32 33" fill="none" xmlns="http://www.w3.org/2000/svg">
<g clip-path="url(#clip0)">
<path d="M22.9434 32.8838C21.4909 32.8838 20.31 31.7019 20.31 30.2494L21.0698 14.2865C18.8576 13.4566 17.5505 11.048 17.5505 7.74943C17.5505 3.96367 19.9693 0.883789 22.9434 0.883789C25.9165 0.883789 28.3362 3.96367 28.3362 7.74943C28.3362 11.048 27.0292 13.4555 24.8179 14.2865L25.5767 30.226C25.5767 31.7019 24.3958 32.8838 22.9434 32.8838ZM22.9434 1.90092C20.5307 1.90092 18.5677 4.52411 18.5677 7.74943C18.5677 10.754 19.7516 12.8798 21.733 13.4342C21.9618 13.4983 22.1154 13.7108 22.1042 13.9478L21.3261 30.2738C21.3261 31.1425 22.0513 31.8667 22.9434 31.8667C23.8344 31.8667 24.5596 31.1414 24.5596 30.2494L23.7825 13.9478C23.7713 13.7119 23.9249 13.4983 24.1538 13.4342C26.1362 12.8798 27.3191 10.754 27.3191 7.74943C27.3191 4.52411 25.356 1.90092 22.9434 1.90092Z" fill="#24A3FF"/>
<path d="M9.05647 32.8838C7.60401 32.8838 6.42312 31.7019 6.42312 30.2494L7.18291 14.2774C5.09169 13.5206 3.66364 11.524 3.66364 9.28734V1.39236C3.66364 1.11163 3.89147 0.883789 4.1722 0.883789H6.44956C6.73029 0.883789 6.95813 1.11163 6.95813 1.39236V8.21833H7.52263V1.39236C7.52263 1.11163 7.75047 0.883789 8.0312 0.883789H10.0817C10.3625 0.883789 10.5903 1.11163 10.5903 1.39236V8.21833H11.1548V1.39236C11.1548 1.11163 11.3827 0.883789 11.6634 0.883789H13.9407C14.2215 0.883789 14.4493 1.11163 14.4493 1.39236V9.28734C14.4493 11.524 13.0213 13.5206 10.93 14.2774L11.6898 30.226C11.6898 31.7019 10.5089 32.8838 9.05647 32.8838ZM4.68077 1.90092V9.28734C4.68077 11.2056 5.98168 12.9063 7.84507 13.422C8.07392 13.4861 8.22853 13.6976 8.21734 13.9356L7.44025 30.2738C7.44025 31.1425 8.16546 31.8667 9.05647 31.8667C9.94748 31.8667 10.6727 31.1414 10.6727 30.2494L9.8956 13.9356C9.88442 13.6986 10.039 13.4861 10.2679 13.422C12.1313 12.9053 13.4322 11.2046 13.4322 9.28734V1.90092H12.1719V8.7269C12.1719 9.00762 11.9441 9.23546 11.6634 9.23546H10.0817C9.80101 9.23546 9.57317 9.00762 9.57317 8.7269V1.90092H8.53977V8.7269C8.53977 9.00762 8.31193 9.23546 8.0312 9.23546H6.45058C6.16985 9.23546 5.94201 9.00762 5.94201 8.7269V1.90092H4.68077Z" fill="#24A3FF"/>
</g>
<defs>
<clipPath id="clip0">
<rect width="32" height="32" fill="white" transform="translate(0 0.883789)"/>
</clipPath>
</defs>
</svg>
