<svg width="32" height="32" viewBox="0 0 32 32" fill="none" xmlns="http://www.w3.org/2000/svg">
<path d="M0.5 18.5C0.223389 18.5 0 18.2766 0 18C0 16.0706 1.57056 14.5 3.5 14.5C3.77661 14.5 4 14.7241 4 15C4 15.2759 3.77661 15.5 3.5 15.5C2.12158 15.5 1 16.6216 1 18C1 18.2766 0.776611 18.5 0.5 18.5Z" fill="#24A3FF"/>
<path d="M31.5 18.5C31.2241 18.5 31 18.2766 31 18C30.9995 16.6216 29.8779 15.5 28.5 15.5C28.2234 15.5 28 15.2759 28 15C28 14.7241 28.2234 14.5 28.5 14.5C30.429 14.5 31.9995 16.0701 32 18C32 18.2759 31.7766 18.5 31.5 18.5Z" fill="#24A3FF"/>
<path d="M28.5 15.5005H3.5C3.22339 15.5005 3 15.2766 3 15.0005C3 14.7246 3.22339 14.5005 3.5 14.5005H28.5C28.7766 14.5005 29 14.7246 29 15.0005C29 15.2766 28.7766 15.5005 28.5 15.5005Z" fill="#24A3FF"/>
<path d="M0.5 23.5029C0.223389 23.5029 0 23.2795 0 23.0029V18C0 17.7234 0.223389 17.5 0.5 17.5C0.776611 17.5 1 17.7234 1 18V23.0029C1 23.2795 0.776611 23.5029 0.5 23.5029Z" fill="#24A3FF"/>
<path d="M1.5 24.5029C0.673096 24.5029 0 23.8301 0 23.0029C0 22.7266 0.223389 22.5029 0.5 22.5029C0.776611 22.5029 1 22.7266 1 23.0029C1 23.2791 1.22412 23.5029 1.5 23.5029C1.77661 23.5029 2 23.7266 2 24.0029C2 24.2795 1.77661 24.5029 1.5 24.5029Z" fill="#24A3FF"/>
<path d="M31.5 23.5029C31.2234 23.5029 31 23.2795 31 23.0029V18C31 17.7234 31.2234 17.5 31.5 17.5C31.7766 17.5 32 17.7234 32 18V23.0029C32 23.2795 31.7766 23.5029 31.5 23.5029Z" fill="#24A3FF"/>
<path d="M30.5 24.5029C30.2234 24.5029 30 24.2795 30 24.0029C30 23.7266 30.2234 23.5029 30.5 23.5029C30.7759 23.5029 31 23.2791 31 23.0029C31 22.7266 31.2234 22.5029 31.5 22.5029C31.7766 22.5029 32 22.7266 32 23.0029C32 23.8301 31.3269 24.5029 30.5 24.5029Z" fill="#24A3FF"/>
<path d="M30.5 24.5029H1.5C1.22339 24.5029 1 24.2795 1 24.0029C1 23.7266 1.22339 23.5029 1.5 23.5029H30.5C30.7766 23.5029 31 23.7266 31 24.0029C31 24.2795 30.7766 24.5029 30.5 24.5029Z" fill="#24A3FF"/>
<path d="M31.5 22.002H0.5C0.223389 22.002 0 21.7786 0 21.502C0 21.2256 0.223389 21.002 0.5 21.002H31.5C31.7766 21.002 32 21.2256 32 21.502C32 21.7786 31.7766 22.002 31.5 22.002Z" fill="#24A3FF"/>
<path d="M2.50098 26.502C2.22461 26.502 2.00098 26.2786 2.00098 26.002V24.0029C2.00098 23.7266 2.22461 23.5029 2.50098 23.5029C2.77759 23.5029 3.00098 23.7266 3.00098 24.0029V26.002C3.00098 26.2786 2.77759 26.502 2.50098 26.502Z" fill="#24A3FF"/>
<path d="M7.50098 26.502H2.50098C2.22461 26.502 2.00098 26.2786 2.00098 26.002C2.00098 25.7256 2.22461 25.502 2.50098 25.502H7.50098C7.77759 25.502 8.00098 25.7256 8.00098 26.002C8.00098 26.2786 7.77759 26.502 7.50098 26.502Z" fill="#24A3FF"/>
<path d="M7.50098 26.502C7.22461 26.502 7.00098 26.2786 7.00098 26.002V24.0029C7.00098 23.7266 7.22461 23.5029 7.50098 23.5029C7.77759 23.5029 8.00098 23.7266 8.00098 24.0029V26.002C8.00098 26.2786 7.77759 26.502 7.50098 26.502Z" fill="#24A3FF"/>
<path d="M24.499 26.502C24.2224 26.502 23.999 26.2786 23.999 26.002V24.0029C23.999 23.7266 24.2224 23.5029 24.499 23.5029C24.7754 23.5029 24.999 23.7266 24.999 24.0029V26.002C24.999 26.2786 24.7754 26.502 24.499 26.502Z" fill="#24A3FF"/>
<path d="M29.499 26.502H24.499C24.2224 26.502 23.999 26.2786 23.999 26.002C23.999 25.7256 24.2224 25.502 24.499 25.502H29.499C29.7754 25.502 29.999 25.7256 29.999 26.002C29.999 26.2786 29.7754 26.502 29.499 26.502Z" fill="#24A3FF"/>
<path d="M29.499 26.502C29.2224 26.502 28.999 26.2786 28.999 26.002V24.0029C28.999 23.7266 29.2224 23.5029 29.499 23.5029C29.7754 23.5029 29.999 23.7266 29.999 24.0029V26.002C29.999 26.2786 29.7754 26.502 29.499 26.502Z" fill="#24A3FF"/>
<path d="M3.5 15.5005C3.22339 15.5005 3 15.2766 3 15.0005V7.00098C3 6.7251 3.22339 6.50098 3.5 6.50098C3.77661 6.50098 4 6.7251 4 7.00098V15C4 15.2766 3.77661 15.5005 3.5 15.5005Z" fill="#24A3FF"/>
<path d="M28.5 15.5005C28.2234 15.5005 28 15.2766 28 15.0005V7.00098C28 6.7251 28.2234 6.50098 28.5 6.50098C28.7766 6.50098 29 6.7251 29 7.00098V15C29 15.2766 28.7766 15.5005 28.5 15.5005Z" fill="#24A3FF"/>
<path d="M27.499 6.50098H4.50098C4.22461 6.50098 4.00098 6.2771 4.00098 6.00098C4.00098 5.7251 4.22461 5.50098 4.50098 5.50098H27.499C27.7754 5.50098 27.999 5.7251 27.999 6.00098C27.999 6.2771 27.7754 6.50098 27.499 6.50098Z" fill="#24A3FF"/>
<path d="M6.49902 13.5015C6.22241 13.5015 5.99902 13.2776 5.99902 13.0015C5.99902 12.1741 6.67212 11.501 7.49902 11.501C7.77539 11.501 7.99902 11.7251 7.99902 12.001C7.99902 12.2771 7.77539 12.501 7.49902 12.501C7.2229 12.501 6.99902 12.7256 6.99902 13.0015C6.99902 13.2781 6.77539 13.5015 6.49902 13.5015Z" fill="#24A3FF"/>
<path d="M14.501 13.5015C14.2246 13.5015 14.001 13.2776 14.001 13.0015C14.001 12.7261 13.7771 12.502 13.501 12.502C13.2246 12.502 13.001 12.2781 13.001 12.002C13.001 11.7261 13.2246 11.502 13.501 11.502C14.3279 11.502 15.001 12.1746 15.001 13.0015C15.001 13.2781 14.7776 13.5015 14.501 13.5015Z" fill="#24A3FF"/>
<path d="M6.49902 15.5015C6.22241 15.5015 5.99902 15.2776 5.99902 15.0015V13.0015C5.99902 12.7256 6.22241 12.5015 6.49902 12.5015C6.77539 12.5015 6.99902 12.7256 6.99902 13.0015V15.0015C6.99902 15.2781 6.77539 15.5015 6.49902 15.5015Z" fill="#24A3FF"/>
<path d="M14.501 15.5005C14.2246 15.5005 14.001 15.2766 14.001 15.0005V13.002C14.001 12.7261 14.2246 12.502 14.501 12.502C14.7776 12.502 15.001 12.7261 15.001 13.002V15.0005C15.001 15.2766 14.7776 15.5005 14.501 15.5005Z" fill="#24A3FF"/>
<path d="M13.501 12.502H7.49902C7.22241 12.502 6.99902 12.2781 6.99902 12.002C6.99902 11.7261 7.22241 11.502 7.49902 11.502H13.501C13.7776 11.502 14.001 11.7261 14.001 12.002C14.001 12.2781 13.7776 12.502 13.501 12.502Z" fill="#24A3FF"/>
<path d="M17.5 13.5015C17.2234 13.5015 17 13.2776 17 13.0015C17 12.1746 17.6731 11.501 18.5 11.501C18.7766 11.501 19 11.7251 19 12.001C19 12.2771 18.7766 12.501 18.5 12.501C18.2241 12.501 18 12.7256 18 13.0015C18 13.2781 17.7766 13.5015 17.5 13.5015Z" fill="#24A3FF"/>
<path d="M25.502 13.5015C25.2256 13.5015 25.002 13.2776 25.002 13.0015C25.002 12.7261 24.7781 12.502 24.502 12.502C24.2256 12.502 24.002 12.2781 24.002 12.002C24.002 11.7261 24.2256 11.502 24.502 11.502C25.3291 11.502 26.002 12.1746 26.002 13.0015C26.002 13.2781 25.7786 13.5015 25.502 13.5015Z" fill="#24A3FF"/>
<path d="M17.5 15.5015C17.2234 15.5015 17 15.2776 17 15.0015V13.0015C17 12.7256 17.2234 12.5015 17.5 12.5015C17.7766 12.5015 18 12.7256 18 13.0015V15.0015C18 15.2781 17.7766 15.5015 17.5 15.5015Z" fill="#24A3FF"/>
<path d="M25.502 15.5005C25.2256 15.5005 25.002 15.2766 25.002 15.0005V13.002C25.002 12.7261 25.2256 12.502 25.502 12.502C25.7786 12.502 26.002 12.7261 26.002 13.002V15.0005C26.002 15.2766 25.7786 15.5005 25.502 15.5005Z" fill="#24A3FF"/>
<path d="M24.502 12.502H18.5C18.2234 12.502 18 12.2781 18 12.002C18 11.7261 18.2234 11.502 18.5 11.502H24.502C24.7786 11.502 25.002 11.7261 25.002 12.002C25.002 12.2781 24.7786 12.502 24.502 12.502Z" fill="#24A3FF"/>
<path d="M3.5 7.50098C3.22339 7.50098 3 7.2771 3 7.00098C3 6.17358 3.67358 5.5 4.50098 5.5C4.77759 5.5 5.00098 5.72412 5.00098 6C5.00098 6.27588 4.77759 6.5 4.50098 6.5C4.22461 6.5 4 6.7251 4 7.00098C4 7.2771 3.77661 7.50098 3.5 7.50098Z" fill="#24A3FF"/>
<path d="M28.5 7.50098C28.2234 7.50098 28 7.2771 28 7.00098C28 6.7251 27.7754 6.5 27.499 6.5C27.2224 6.5 26.999 6.27588 26.999 6C26.999 5.72412 27.2224 5.5 27.499 5.5C28.3264 5.50049 29 6.17358 29 7.00098C29 7.27759 28.7766 7.50098 28.5 7.50098Z" fill="#24A3FF"/>
</svg>
