<svg width="32" height="33" viewBox="0 0 32 33" fill="none" xmlns="http://www.w3.org/2000/svg">
<g clip-path="url(#clip0)">
<path d="M1.26835 23.453L1.35598 23.42C3.78686 22.5037 6.08293 21.6382 8.46888 21.6382C9.59057 21.6382 10.7133 22.0641 11.902 22.5148C13.1963 23.0057 14.5347 23.5133 16 23.5133C17.4652 23.5133 18.8036 23.0057 20.0979 22.5148C21.2866 22.064 22.4093 21.6382 23.5311 21.6382C25.8416 21.6382 28.178 22.5054 30.4374 23.3439L30.7366 23.4549C30.844 23.4946 30.954 23.5135 31.0621 23.5135C31.4431 23.5135 31.8013 23.2796 31.9413 22.9014C32.1212 22.4158 31.8733 21.8764 31.3878 21.6966L31.0898 21.5861C28.7876 20.7317 26.1783 19.7632 23.5311 19.7632C23.4578 19.7632 23.3851 19.7654 23.3124 19.7679L23.3124 5.94618C23.3124 3.87842 21.6301 2.19617 19.5624 2.19617C17.4946 2.19617 15.8123 3.87842 15.8123 5.94618C15.8123 6.46393 16.2321 6.88369 16.7499 6.88369C17.2676 6.88369 17.6874 6.46393 17.6874 5.94618C17.6874 4.9123 18.5285 4.07117 19.5624 4.07117C20.5962 4.07117 21.4374 4.9123 21.4374 5.94618L21.4374 8.75875H10.5625L10.5625 5.94618C10.5625 3.87842 8.88019 2.19617 6.81244 2.19617C4.74468 2.19617 3.06242 3.87842 3.06242 5.94618C3.06242 6.46393 3.48217 6.88369 3.99992 6.88369C4.51768 6.88369 4.93743 6.46393 4.93743 5.94618C4.93743 4.9123 5.77856 4.07117 6.81244 4.07117C7.84631 4.07117 8.68744 4.9123 8.68744 5.94618L8.68751 19.7679C8.61488 19.7654 8.54213 19.7632 8.46888 19.7632C5.74131 19.7632 3.1758 20.7302 0.694661 21.6654L0.607098 21.6984C0.122597 21.8811 -0.122154 22.4218 0.0604713 22.9063C0.243097 23.3907 0.783537 23.6356 1.26835 23.453ZM10.5625 14.3837H21.4374V16.2587H10.5625V14.3837ZM21.4374 10.6337V12.5087H10.5625V10.6337H21.4374ZM10.5625 18.1337H21.4374V20.0732C20.751 20.262 20.0864 20.5139 19.4331 20.7616C18.2444 21.2124 17.1217 21.6382 16 21.6382C14.8782 21.6382 13.7555 21.2124 12.5668 20.7616C11.9135 20.5139 11.2489 20.262 10.5625 20.0732V18.1337Z" fill="#24A3FF" stroke="white" stroke-width="0.5"/>
<path d="M26.2086 29.7576L26.1863 29.7491C24.8244 29.2302 22.7663 28.4462 20.9374 28.4462C19.9316 28.4462 19.0177 28.7953 18.134 29.1329C17.3759 29.4225 16.6598 29.6962 15.9999 29.6962C15.34 29.6962 14.6239 29.4226 13.8658 29.1329C12.982 28.7953 12.0683 28.4462 11.0624 28.4462C9.49233 28.4462 8.48026 28.8055 6.80338 29.4009C6.50313 29.5075 6.17719 29.6233 5.81775 29.7479C5.32856 29.9175 5.06943 30.4515 5.239 30.9407C5.37337 31.3283 5.73644 31.5714 6.12475 31.5714C6.22663 31.5714 6.33025 31.5547 6.43188 31.5195C6.79613 31.3932 7.12644 31.2759 7.43076 31.1678C9.06795 30.5865 9.8152 30.3212 11.0623 30.3212C11.7222 30.3212 12.4383 30.5948 13.1965 30.8845C14.0802 31.222 14.9939 31.5712 15.9998 31.5712C17.0057 31.5712 17.9195 31.222 18.8032 30.8844C19.5614 30.5948 20.2774 30.3212 20.9373 30.3212C22.4211 30.3212 24.2852 31.0313 25.5187 31.5012L25.5411 31.5098C26.0249 31.6939 26.5665 31.4512 26.7509 30.9674C26.9353 30.4836 26.6925 29.9419 26.2086 29.7576Z" fill="#24A3FF" stroke="white" stroke-width="0.5"/>
<path d="M31.3878 25.5984L31.0907 25.4882C28.7882 24.6336 26.1786 23.665 23.5311 23.665C22.0658 23.665 20.7274 24.1726 19.4331 24.6635C18.2444 25.1143 17.1217 25.54 16 25.54C14.8782 25.54 13.7555 25.1142 12.5668 24.6635C11.2725 24.1726 9.93414 23.665 8.46888 23.665C5.74131 23.665 3.1758 24.6321 0.694661 25.5673L0.607098 25.6003C0.122597 25.7829 -0.122154 26.3237 0.0604713 26.8082C0.243097 27.2926 0.783537 27.5374 1.26835 27.3548L1.35598 27.3218C3.78686 26.4055 6.08293 25.54 8.46888 25.54C9.59057 25.54 10.7133 25.9659 11.902 26.4166C13.1963 26.9075 14.5347 27.415 16 27.415C17.4652 27.415 18.8036 26.9075 20.0979 26.4166C21.2866 25.9658 22.4093 25.54 23.5311 25.54C25.8419 25.54 28.1785 26.4073 30.4382 27.246L30.7366 27.3567C30.844 27.3964 30.954 27.4153 31.0621 27.4153C31.4431 27.4153 31.8013 27.1814 31.9413 26.8032C32.1212 26.3177 31.8734 25.7783 31.3878 25.5984Z" fill="#24A3FF" stroke="white" stroke-width="0.5"/>
</g>
<defs>
<clipPath id="clip0">
<rect width="32" height="32" fill="white" transform="translate(0 0.883789)"/>
</clipPath>
</defs>
</svg>
