<svg width="32" height="33" viewBox="0 0 32 33" fill="none" xmlns="http://www.w3.org/2000/svg">
<g clip-path="url(#clip0)">
<path d="M30.2245 19.1047H29.1417L23.8556 14.5503C23.316 14.0854 22.6331 13.8718 21.9596 13.9213L19.8331 10.6677C19.5741 10.2714 19.1759 10.0017 18.7117 9.90815C18.2479 9.81439 17.7762 9.90863 17.3841 10.1733L15.4476 11.4792C15.2357 11.6223 14.9656 11.6557 14.7252 11.5688L13.3411 11.0688C12.7837 10.8676 12.168 10.9597 11.6941 11.3149C11.4839 11.4724 11.4415 11.7702 11.5989 11.9802C11.7564 12.1904 12.054 12.2329 12.2642 12.0754C12.4813 11.9128 12.7632 11.8708 13.0184 11.9628L14.4022 12.4628C14.9268 12.6523 15.5162 12.5793 15.9791 12.2673L17.9156 10.9614C18.0953 10.84 18.3114 10.7971 18.5238 10.8398C18.7364 10.8828 18.919 11.0063 19.0377 11.1879L19.3831 11.7167L17.5155 12.2768C17.264 12.3522 17.1214 12.6171 17.1968 12.8686C17.2723 13.1201 17.5372 13.2627 17.7884 13.1872L19.0902 12.7968L18.7308 13.396C18.5958 13.6211 18.6688 13.9128 18.8939 14.0478C18.9703 14.094 19.0548 14.1157 19.1378 14.1157C19.2994 14.1157 19.4569 14.0334 19.546 13.8847L20.1461 12.8842L20.9959 14.1845C20.9215 14.2212 20.8482 14.2612 20.7765 14.3054L16.9627 16.657L15.8697 15.0664C15.2278 14.1325 13.9964 13.8418 13.0047 14.3899L11.8677 15.0183C11.574 15.1804 11.222 15.2168 10.9017 15.1176L10.4158 14.9675L11.3145 13.509C11.4522 13.2856 11.3826 12.9929 11.1592 12.8552C10.9358 12.7172 10.6429 12.7868 10.5054 13.0105L9.47807 14.6777L8.43778 14.3562C7.41629 14.0405 6.32302 14.5029 5.8384 15.4563L3.98293 19.1047H1.77564C0.796634 19.1047 0 19.9014 0 20.8804V22.8271C0 23.8064 0.796634 24.6028 1.77564 24.6028H2.97291V32.2723C2.97291 32.5347 3.1858 32.7476 3.44826 32.7476H28.5516C28.8141 32.7476 29.027 32.5347 29.027 32.2723V24.6028H30.2242C31.2035 24.6028 31.9999 23.8064 31.9999 22.8271V20.8804C32.0001 19.9014 31.2035 19.1047 30.2245 19.1047ZM19.1204 16.4431V17.4389C19.1204 17.7014 19.3333 17.9143 19.5958 17.9143C19.8582 17.9143 20.0711 17.7014 20.0711 17.4389V16.2893L22.0199 17.0554C22.264 17.1516 22.5399 17.0312 22.6361 16.7871C22.732 16.5427 22.6119 16.2668 22.3675 16.1709L20.6544 15.4973L21.2752 15.1145C21.8956 14.7321 22.683 14.7946 23.235 15.2702L27.6854 19.1047H18.6451L17.5018 17.4411L19.1204 16.4431ZM6.68557 15.8869C6.95999 15.3474 7.57889 15.0857 8.15726 15.2644L10.6209 16.0258C11.1868 16.2009 11.8089 16.1367 12.3274 15.8503L13.4644 15.2219C14.0259 14.9116 14.723 15.0764 15.0862 15.6049L17.4918 19.1047H15.4085L14.7046 17.4209C14.6036 17.1787 14.325 17.0644 14.0831 17.1655C13.8409 17.2668 13.7266 17.5451 13.8277 17.7873L14.3782 19.1047H9.92875L9.88627 18.2595L11.1272 17.8022C11.3736 17.7114 11.4998 17.4382 11.409 17.1921C11.3182 16.9458 11.045 16.8196 10.7989 16.9104L9.43241 17.4138L7.80496 16.5263C7.57449 16.4006 7.28592 16.4856 7.16019 16.7158C7.03445 16.9463 7.11941 17.2351 7.34988 17.3608L8.9329 18.2241L8.97684 19.1047H5.04934L6.68557 15.8869ZM3.9236 31.7972V30.0354H23.8453C24.1078 30.0354 24.3207 29.8225 24.3207 29.5601C24.3207 29.2976 24.1078 29.0847 23.8453 29.0847H3.9236V27.3152H28.0765V29.0847H25.7464C25.484 29.0847 25.2711 29.2976 25.2711 29.5601C25.2711 29.8225 25.484 30.0354 25.7464 30.0354H28.0765V31.7972H3.9236ZM28.0765 26.3648H3.9236V24.6028H28.0765V26.3648ZM31.0497 22.8271C31.0497 23.2822 30.6793 23.6523 30.2245 23.6523H1.77564C1.32056 23.6523 0.950443 23.2822 0.950443 22.8271V20.8804C0.950443 20.4253 1.32081 20.0552 1.77564 20.0552H30.2245C30.6793 20.0552 31.0497 20.4255 31.0497 20.8804V22.8271Z" fill="#24A3FF"/>
<path d="M9.61173 7.5082C9.23087 7.85269 8.75699 8.28116 8.75699 9.12369C8.75699 9.38614 8.96964 9.59903 9.23209 9.59903C9.49454 9.59903 9.70743 9.38614 9.70743 9.12369C9.70743 8.72207 9.89323 8.53531 10.2492 8.21328C10.6303 7.8688 11.1042 7.44033 11.1042 6.5978C11.1042 5.75527 10.6303 5.3268 10.2492 4.98231C9.89323 4.66029 9.70743 4.47377 9.70743 4.07191C9.70743 3.6703 9.89323 3.48353 10.2492 3.16175C10.6303 2.81727 11.1044 2.3888 11.1044 1.54627C11.1044 1.28381 10.8915 1.07117 10.6291 1.07117C10.3666 1.07117 10.1537 1.28381 10.1537 1.54627C10.1537 1.94812 9.96793 2.13465 9.61197 2.45667C9.23111 2.80091 8.75699 3.22938 8.75699 4.07191C8.75699 4.91444 9.23087 5.34291 9.61173 5.6874C9.96793 6.00942 10.1537 6.19619 10.1537 6.5978C10.1537 6.99966 9.96793 7.18618 9.61173 7.5082Z" fill="#24A3FF"/>
<path d="M15.6812 7.5082C15.3004 7.85269 14.8262 8.28116 14.8262 9.12369C14.8262 9.38614 15.0391 9.59903 15.3016 9.59903C15.564 9.59903 15.7769 9.38614 15.7769 9.12369C15.7769 8.72207 15.9627 8.53531 16.3187 8.21328C16.6995 7.8688 17.1737 7.44033 17.1737 6.5978C17.1737 5.75527 16.6998 5.3268 16.3187 4.98231C15.9627 4.66029 15.7769 4.47377 15.7769 4.07191C15.7769 3.6703 15.9627 3.48353 16.3187 3.16175C16.6998 2.81727 17.1737 2.3888 17.1737 1.54627C17.1737 1.28381 16.961 1.07117 16.6986 1.07117C16.4361 1.07117 16.2232 1.28381 16.2232 1.54627C16.2232 1.94788 16.0374 2.13465 15.6812 2.45667C15.3004 2.80091 14.8262 3.22938 14.8262 4.07191C14.8262 4.91444 15.3004 5.34291 15.6812 5.6874C16.0374 6.00942 16.2232 6.19619 16.2232 6.5978C16.2232 6.99966 16.0374 7.18618 15.6812 7.5082Z" fill="#24A3FF"/>
<path d="M21.751 7.5082C21.3701 7.85269 20.896 8.28116 20.896 9.12369C20.896 9.38614 21.1086 9.59903 21.3711 9.59903C21.6335 9.59903 21.8464 9.38614 21.8464 9.12369C21.8464 8.72207 22.0322 8.53531 22.3884 8.21328C22.7693 7.8688 23.2434 7.44033 23.2434 6.5978C23.2434 5.75527 22.7693 5.3268 22.3884 4.98231C22.0322 4.66029 21.8464 4.47377 21.8464 4.07191C21.8464 3.6703 22.0322 3.48353 22.3884 3.16175C22.7693 2.81727 23.2434 2.3888 23.2434 1.54627C23.2434 1.28381 23.0305 1.07117 22.7681 1.07117C22.5056 1.07117 22.2927 1.28381 22.2927 1.54627C22.2927 1.94788 22.1069 2.13465 21.751 2.45667C21.3699 2.80091 20.896 3.22938 20.896 4.07191C20.896 4.91444 21.3699 5.34291 21.751 5.6874C22.1069 6.00942 22.2927 6.19619 22.2927 6.5978C22.2927 6.99966 22.1069 7.18618 21.751 7.5082Z" fill="#24A3FF"/>
</g>
<defs>
<clipPath id="clip0">
<rect width="32" height="32" fill="white" transform="translate(0 0.883789)"/>
</clipPath>
</defs>
</svg>
