<svg width="32" height="32" viewBox="0 0 32 32" fill="none" xmlns="http://www.w3.org/2000/svg">
<g clip-path="url(#clip0)">
<path d="M32.0005 12.3876H30.9683V10.9028C30.9683 9.71632 30.1641 8.68712 29.0132 8.39907L26.8388 7.85574V7.60801C27.8008 6.9359 28.3877 5.82731 28.3877 4.64589V3.74319C28.3877 1.7382 26.8167 0.0603195 24.8858 0.00235724C23.8855 -0.0331761 22.9657 0.334254 22.2588 1.02073C21.5517 1.7072 21.1621 2.62805 21.1621 3.61366V4.64589C21.1621 5.82681 21.7482 6.9354 22.7104 7.60751V7.85574L20.5363 8.39907C19.3854 8.68712 18.5815 9.71632 18.5815 10.9028V12.3876H17.5493V15.4843H18.5815V24.7744H21.1621V25.2905C21.1621 26.0972 21.5512 26.8595 22.1943 27.3441V27.482L20.4529 27.979C19.898 28.138 19.4277 28.4762 19.0976 28.9185C18.7667 28.4762 18.297 28.1375 17.7418 27.979L16.0009 27.482V27.3441C16.6438 26.8595 17.0331 26.0972 17.0331 25.2905V24.3651C17.0331 22.9778 16.0004 21.8022 14.6822 21.6875C13.9576 21.6245 13.2402 21.8687 12.7089 22.3554C12.1769 22.8438 11.872 23.5373 11.872 24.2583V25.2905C11.872 26.0972 12.2611 26.8595 12.9042 27.3441V27.482L11.1628 27.979C10.6079 28.138 10.1377 28.4762 9.80754 28.9185C9.47665 28.4762 9.0069 28.1375 8.45172 27.979L6.71084 27.482V27.3441C7.35372 26.8595 7.74307 26.0972 7.74307 25.2905V24.3651C7.74307 22.9778 6.71034 21.8022 5.39208 21.6875C4.66705 21.6245 3.95008 21.8687 3.41884 22.3554C2.88685 22.8438 2.58192 23.5373 2.58192 24.2583V25.2905C2.58192 26.0972 2.97102 26.8595 3.61415 27.3441V27.482L1.87276 27.979C0.770728 28.2945 0.00134277 29.3149 0.00134277 30.461V32H28.9038V30.461C28.9038 29.3149 28.1342 28.295 27.0319 27.979L25.291 27.482V27.3441C25.9339 26.8595 26.3232 26.0972 26.3232 25.2905V24.7744H30.9683V15.4843H32.0005V12.3876ZM19.6137 10.9028C19.6137 10.1911 20.0963 9.57343 20.7863 9.40081L23.7426 8.66191V7.02788L23.4851 6.87869C22.6887 6.41726 22.1943 5.56144 22.1943 4.64589V3.61366C22.1943 2.90979 22.4723 2.2518 22.9783 1.76189C23.4836 1.27148 24.1519 1.0167 24.8548 1.03459C26.2333 1.07592 27.3555 2.29086 27.3555 3.74319V4.64589C27.3555 5.56194 26.8605 6.41777 26.0634 6.87869L25.8053 7.02839L25.8076 8.66191L28.7634 9.40081C29.4534 9.57343 29.936 10.1911 29.936 10.9028V12.3876H19.6137V10.9028ZM9.29142 30.9678H1.03357V30.461C1.03357 29.7735 1.49551 29.1609 2.15653 28.9721L4.64638 28.2602V26.7718L4.38984 26.6226C3.90421 26.3399 3.61415 25.8419 3.61415 25.2905V24.2583C3.61415 23.8253 3.79686 23.4093 4.11666 23.1167C4.43973 22.8206 4.86412 22.6779 5.30287 22.7162C6.09241 22.7848 6.71084 23.5091 6.71084 24.3651V25.2905C6.71084 25.8419 6.42078 26.3399 5.93491 26.6226L5.67861 26.7718V28.2602L8.16771 28.9721C8.82949 29.1609 9.29142 29.7735 9.29142 30.461V30.9678ZM18.5815 30.9678H10.3237V30.461C10.3237 29.7735 10.7856 29.1609 11.4466 28.9721L13.9365 28.2602V26.7718L13.6799 26.6226C13.1943 26.3399 12.9042 25.8419 12.9042 25.2905V24.2583C12.9042 23.8253 13.0869 23.4093 13.4067 23.1167C13.7303 22.8206 14.1522 22.6779 14.5929 22.7162C15.3825 22.7848 16.0009 23.5091 16.0009 24.3651V25.2905C16.0009 25.8419 15.7109 26.3399 15.225 26.6226L14.9687 26.7718V28.2602L17.4578 28.9721C18.1196 29.1609 18.5815 29.7735 18.5815 30.461V30.9678ZM25.291 25.2905C25.291 25.8419 25.0009 26.3399 24.5151 26.6226L24.2588 26.7718V28.2602L26.7479 28.9721C27.4096 29.1609 27.8716 29.7735 27.8716 30.461V30.9678H19.6137V30.461C19.6137 29.7735 20.0757 29.1609 20.7367 28.9721L23.2265 28.2602V26.7718L22.97 26.6226C22.4844 26.3399 22.1943 25.8419 22.1943 25.2905V24.2583C22.1943 23.8253 22.377 23.4093 22.6968 23.1167C23.0204 22.8206 23.4428 22.6779 23.883 22.7162C24.6726 22.7848 25.291 23.5091 25.291 24.3651V25.2905ZM29.936 23.7422H26.2441C25.9893 22.6424 25.0866 21.7846 23.9727 21.688C23.2464 21.625 22.5307 21.8692 21.9998 22.3559C21.5955 22.7256 21.3246 23.2137 21.2163 23.7422H19.6137V15.4843H29.936V23.7422ZM30.9683 14.4521H18.5815V13.4199H30.9683V14.4521Z" fill="#24A3FF"/>
<path d="M1.03357 13.4197H8.2592V16.5898C7.37086 16.8206 6.71085 17.6215 6.71085 18.5809C6.71085 19.7195 7.63673 20.6454 8.77531 20.6454C9.91389 20.6454 10.8398 19.7195 10.8398 18.5809C10.8398 17.6215 10.1795 16.8206 9.29143 16.5898V13.4197H16.517V3.09743H17.5493V0.000732422H0.00134277V3.09743H1.03357V13.4197ZM9.80754 18.5809C9.80754 19.1502 9.3446 19.6131 8.77531 19.6131C8.20602 19.6131 7.74308 19.1502 7.74308 18.5809C7.74308 18.0116 8.20602 17.5487 8.77531 17.5487C9.3446 17.5487 9.80754 18.0116 9.80754 18.5809ZM15.4848 12.3875H2.06581V3.09743H15.4848V12.3875ZM1.03357 1.03296H16.517V2.0652H1.03357V1.03296Z" fill="#24A3FF"/>
<path d="M14.452 4.12964H11.3553V11.3553H14.452V4.12964ZM13.4198 10.323H12.3876V5.16187H13.4198V10.323Z" fill="#24A3FF"/>
<path d="M10.3228 5.16187H7.22614V11.3553H10.3228V5.16187ZM9.29059 10.323H8.25836V6.1941H9.29059V10.323Z" fill="#24A3FF"/>
<path d="M6.19453 7.22632H3.09784V11.3553H6.19453V7.22632ZM5.1623 10.323H4.13007V8.25855H5.1623V10.323Z" fill="#24A3FF"/>
</g>
<defs>
<clipPath id="clip0">
<rect width="32" height="32" fill="white"/>
</clipPath>
</defs>
</svg>
