<svg width="32" height="32" viewBox="0 0 32 32" fill="none" xmlns="http://www.w3.org/2000/svg">
<path d="M28.0181 11.8714H27.9102V8.8427C27.9102 7.61857 26.914 6.62263 25.6894 6.62263H6.33099C5.10686 6.62263 4.11099 7.61857 4.11099 8.8427V12.0264H3.98355C2.78824 12.0264 1.81567 12.9989 1.81567 14.1943V18.2705H1.83586V22.9106C1.83586 23.4461 2.27161 23.8818 2.80717 23.8818H3.48805V24.7916C3.48805 25.1144 3.75067 25.3771 4.07342 25.3771H4.59842C4.92117 25.3771 5.18374 25.1144 5.18374 24.7916V23.8818H26.8373V24.7916C26.8373 25.1144 27.0999 25.3771 27.4226 25.3771H27.9476C28.2704 25.3771 28.533 25.1144 28.533 24.7916V23.8818H29.2147C29.7502 23.8818 30.1857 23.4461 30.1857 22.9106V18.2756V17.8206V14.0393C30.1859 12.8439 29.2134 11.8714 28.0181 11.8714ZM4.56099 8.8427C4.56099 7.8667 5.35499 7.0727 6.33092 7.0727H25.6894C26.6658 7.0727 27.4602 7.8667 27.4602 8.8427V11.8714H27.105C26.499 11.8714 26.006 12.3644 26.006 12.9705V14.7526C23.9297 13.4029 21.6379 12.5035 19.1865 12.0786C17.0767 11.7127 14.9394 11.7169 12.8337 12.0907C10.3299 12.5343 7.99811 13.4708 5.8953 14.8749V13.1255C5.8953 12.5195 5.40224 12.0264 4.79624 12.0264H4.56092V8.8427H4.56099ZM26.0061 15.2926V17.8203H19.3735V12.5713C21.7614 13.0214 23.9909 13.9358 26.0061 15.2926ZM12.8168 12.552C12.8487 12.5462 12.8803 12.5394 12.9122 12.5338C14.9663 12.169 17.0515 12.165 19.1097 12.522C19.1636 12.5313 19.2169 12.5423 19.2705 12.552H18.9235V17.8203H13.0979V12.552H12.8168ZM12.6479 12.5843V17.8203H5.89536V15.4194C7.93711 14.0064 10.207 13.0538 12.6479 12.5843ZM2.26574 14.1943C2.26574 13.2471 3.0363 12.4764 3.98355 12.4764H4.7963C5.1543 12.4764 5.44542 12.7676 5.44542 13.1255V17.8206H2.26574V14.1943ZM4.7338 24.7916C4.7338 24.8663 4.67311 24.927 4.59849 24.927H4.07349C3.9988 24.927 3.93811 24.8663 3.93811 24.7916V23.9221H4.7338V24.7916ZM28.0832 24.7916C28.0832 24.8663 28.0224 24.927 27.9477 24.927H27.4227C27.348 24.927 27.2873 24.8663 27.2873 24.7916V23.9221H28.0832V24.7916ZM29.7359 22.9106C29.7359 23.1981 29.5022 23.4319 29.2148 23.4319H2.80724C2.5198 23.4319 2.28592 23.1981 2.28592 22.9106V18.2705H5.89536H6.3383H25.6837H26.0061V18.2756H29.7359V22.9106ZM29.7359 17.8206H26.456V12.9705C26.456 12.6126 26.7471 12.3214 27.105 12.3214H28.0181C28.9654 12.3214 29.7359 13.092 29.7359 14.0392V17.8206H29.7359Z" fill="#24A3FF" stroke="#24A3FF" stroke-width="0.5"/>
</svg>
