<svg width="32" height="32" viewBox="0 0 32 32" fill="none" xmlns="http://www.w3.org/2000/svg">
<g clip-path="url(#clip0)">
<path d="M23.4666 26.1328V20.2661C23.4666 19.3594 22.7733 18.6661 21.8666 18.6661H21.6C21.3333 18.6661 21.12 18.5061 21.0666 18.2928L19.2 11.7862V11.7329C18.7733 10.7729 17.8133 10.1329 16.7466 10.1329H6.71997C5.6533 10.1329 4.69331 10.7729 4.26663 11.7329V11.7862L2.39997 18.2928C2.29328 18.5061 2.07997 18.6661 1.86666 18.6661H1.59998C0.693302 18.6661 0 19.3594 0 20.2661V26.1328C0 27.0395 0.693302 27.7328 1.59998 27.7328V30.3994C1.59998 31.3061 2.29328 31.9994 3.19996 31.9994H4.26663C5.1733 31.9994 5.86661 31.3061 5.86661 30.3994V27.7328H17.5999V30.3994C17.5999 31.3061 18.2932 31.9994 19.1999 31.9994H20.2666C21.1733 31.9994 21.8666 31.3061 21.8666 30.3994V27.7328C22.7733 27.7328 23.4666 27.0395 23.4666 26.1328ZM4.8 30.3994C4.8 30.7194 4.58669 30.9327 4.26669 30.9327H3.20002C2.88002 30.9327 2.66671 30.7194 2.66671 30.3994V27.7328H4.80006V30.3994H4.8ZM20.8 30.3994C20.8 30.7194 20.5867 30.9327 20.2667 30.9327H19.2C18.88 30.9327 18.6667 30.7194 18.6667 30.3994V27.7328H20.8V30.3994H20.8ZM22.4 26.1328C22.4 26.4528 22.1867 26.6661 21.8667 26.6661H21.3334H18.1334H5.3333H2.13335H1.59998C1.27998 26.6661 1.06667 26.4528 1.06667 26.1328V20.2661C1.06667 19.9461 1.27998 19.7328 1.59998 19.7328H1.86666C2.55996 19.7328 3.20002 19.2528 3.41333 18.5594L5.27999 12.1061C5.54667 11.5728 6.07998 11.1994 6.71997 11.1994H16.7466C17.3333 11.1994 17.92 11.5194 18.1866 12.1061L20.0533 18.5594C20.2666 19.2527 20.9066 19.7328 21.6 19.7328H21.8666C22.1866 19.7328 22.3999 19.9461 22.3999 20.2661V26.1328H22.4Z" fill="#24A3FF"/>
<path d="M4.80009 20.7995C3.62674 20.7995 2.66675 21.7595 2.66675 22.9328C2.66675 24.1062 3.62674 25.0662 4.80009 25.0662C5.97345 25.0662 6.93344 24.1062 6.93344 22.9328C6.93344 21.7595 5.97345 20.7995 4.80009 20.7995ZM4.80009 23.9995C4.21341 23.9995 3.73342 23.5195 3.73342 22.9328C3.73342 22.3462 4.21341 21.8662 4.80009 21.8662C5.38677 21.8662 5.86677 22.3462 5.86677 22.9328C5.86677 23.5195 5.38677 23.9995 4.80009 23.9995Z" fill="#24A3FF"/>
<path d="M18.6665 20.7995C17.4932 20.7995 16.5332 21.7595 16.5332 22.9328C16.5332 24.1062 17.4932 25.0662 18.6665 25.0662C19.8399 25.0662 20.7999 24.1062 20.7999 22.9328C20.7999 21.7595 19.8398 20.7995 18.6665 20.7995ZM18.6665 23.9995C18.0799 23.9995 17.5999 23.5195 17.5999 22.9328C17.5999 22.3462 18.0799 21.8662 18.6665 21.8662C19.2532 21.8662 19.7332 22.3462 19.7332 22.9328C19.7332 23.5195 19.2532 23.9995 18.6665 23.9995Z" fill="#24A3FF"/>
<path d="M12.7995 23.4661H10.6661C10.3461 23.4661 10.1328 23.6794 10.1328 23.9994C10.1328 24.3194 10.3461 24.5327 10.6661 24.5327H12.7995C13.1195 24.5327 13.3328 24.3194 13.3328 23.9994C13.3328 23.6795 13.1195 23.4661 12.7995 23.4661Z" fill="#24A3FF"/>
<path d="M13.8671 21.3328H9.60044C9.28045 21.3328 9.06714 21.5461 9.06714 21.8661C9.06714 22.1861 9.28045 22.3994 9.60044 22.3994H13.8671C14.1871 22.3994 14.4004 22.1861 14.4004 21.8661C14.4005 21.5461 14.1872 21.3328 13.8671 21.3328Z" fill="#24A3FF"/>
<path d="M6.61382 18.6662H16.9071C17.2271 18.6662 17.5471 18.5062 17.7605 18.2395C17.9739 17.9729 18.0272 17.5995 17.9205 17.2796L16.6404 13.0129C16.5338 12.5862 16.1071 12.2662 15.6271 12.2662H7.8938C7.41381 12.2662 7.04044 12.5329 6.88044 13.0129L5.60046 17.2796C5.49377 17.5995 5.54715 17.9729 5.76045 18.2395C5.97383 18.5062 6.29382 18.6662 6.61382 18.6662ZM7.8938 13.3328H15.6271L16.9071 17.5995H6.61382L7.8938 13.3328Z" fill="#24A3FF"/>
<path d="M31.4659 -0.000488281H22.3993C22.0793 -0.000488281 21.866 0.212821 21.866 0.532816V9.59951C21.866 9.9195 22.0793 10.1328 22.3993 10.1328H26.1326V26.6661H25.0659C24.7459 26.6661 24.5326 26.8795 24.5326 27.1995V28.7994H23.4659C23.1459 28.7994 22.9326 29.0127 22.9326 29.3327V31.4661C22.9326 31.7861 23.1459 31.9994 23.4659 31.9994H29.8659C30.1859 31.9994 30.3992 31.7861 30.3992 31.4661V29.3327C30.3992 29.0127 30.1859 28.7994 29.8659 28.7994H28.7992V27.1995C28.7992 26.8795 28.5859 26.6661 28.2659 26.6661H27.1993V10.1328H31.4659C31.7859 10.1328 31.9992 9.9195 31.9992 9.59951V0.532816C31.9992 0.212821 31.7859 -0.000488281 31.4659 -0.000488281ZM29.3325 30.9328H23.9992V29.8662H25.0659H28.2659H29.3326V30.9328H29.3325ZM27.7326 28.7995H25.5992V27.7328H27.7326V28.7995ZM30.9326 9.0662H22.9326V1.06618H30.9326V9.0662Z" fill="#24A3FF"/>
<path d="M26.1335 7.99955C26.4535 7.99955 26.6668 7.78624 26.6668 7.46625V6.39951H27.2001C28.3734 6.39951 29.3334 5.43952 29.3334 4.26616C29.3334 3.0928 28.3734 2.13281 27.2001 2.13281H26.1334C25.8134 2.13281 25.6001 2.34612 25.6001 2.66612V5.86614V7.46612C25.6001 7.78618 25.8135 7.99955 26.1335 7.99955ZM28.2668 4.26622C28.2668 4.85291 27.7868 5.3329 27.2001 5.3329H26.6668V3.19955H27.2001C27.7868 3.19955 28.2668 3.67954 28.2668 4.26622Z" fill="#24A3FF"/>
</g>
<defs>
<clipPath id="clip0">
<rect width="32" height="32" fill="white" transform="translate(0 -0.000488281)"/>
</clipPath>
</defs>
</svg>
