<svg width="32" height="32" viewBox="0 0 32 32" fill="none" xmlns="http://www.w3.org/2000/svg">
<g clip-path="url(#clip0)">
<path d="M25.5 0.00012207H6.5C4.77688 0.00012207 3.375 1.402 3.375 3.12512V28.8751C3.375 30.5982 4.77688 32.0001 6.5 32.0001H25.5C27.2231 32.0001 28.625 30.5982 28.625 28.8751V18.8126C28.625 18.4674 28.3452 18.1876 28 18.1876C27.6548 18.1876 27.375 18.4674 27.375 18.8126V28.8751C27.375 29.909 26.5339 30.7501 25.5 30.7501H6.5C5.46613 30.7501 4.625 29.909 4.625 28.8751V3.12512C4.625 2.09125 5.46613 1.25012 6.5 1.25012H25.5C26.5339 1.25012 27.375 2.09125 27.375 3.12512V13.1876C27.375 13.5328 27.6548 13.8126 28 13.8126C28.3452 13.8126 28.625 13.5328 28.625 13.1876V3.12512C28.625 1.402 27.2231 0.00012207 25.5 0.00012207Z" fill="#24A3FF"/>
<path d="M21.75 2.50012H10.25H6.5C6.15481 2.50012 5.875 2.77993 5.875 3.12512V28.8751C5.875 29.2203 6.15481 29.5001 6.5 29.5001H10.25H21.75H25.5C25.8452 29.5001 26.125 29.2203 26.125 28.8751V3.12512C26.125 2.77993 25.8452 2.50012 25.5 2.50012H21.75ZM21.125 3.75012V6.50012H10.875V3.75012H21.125ZM9.625 3.75012V7.12512C9.625 7.47031 9.90481 7.75012 10.25 7.75012H21.75C22.0952 7.75012 22.375 7.47031 22.375 7.12512V3.75012H24.875V15.3751H21.0855C20.7761 12.8431 18.6142 10.8751 16 10.8751C13.3858 10.8751 11.2239 12.8431 10.9145 15.3751H7.125V3.75012H9.625ZM12.1761 15.3751C12.4759 13.5347 14.0761 12.1251 16 12.1251C17.9239 12.1251 19.5241 13.5347 19.8239 15.3751H12.1761ZM19.8239 16.6251C19.5241 18.4656 17.9239 19.8751 16 19.8751C14.0761 19.8751 12.4759 18.4656 12.1761 16.6251H19.8239ZM10.875 28.2501V25.5001H21.125V28.2501H10.875ZM22.375 28.2501V24.8751C22.375 24.5299 22.0952 24.2501 21.75 24.2501H10.25C9.90481 24.2501 9.625 24.5299 9.625 24.8751V28.2501H7.125V16.6251H10.9145C11.2239 19.1571 13.3858 21.1251 16 21.1251C18.6142 21.1251 20.7761 19.1571 21.0855 16.6251H24.875V28.2501H22.375Z" fill="#24A3FF"/>
<path d="M28 15.3748C27.8356 15.3748 27.6744 15.4417 27.5581 15.5579C27.4419 15.6748 27.375 15.8354 27.375 15.9998C27.375 16.1648 27.4419 16.3254 27.5581 16.4423C27.6744 16.5586 27.8356 16.6248 28 16.6248C28.1644 16.6248 28.3256 16.5586 28.4419 16.4423C28.5581 16.3261 28.625 16.1648 28.625 15.9998C28.625 15.8354 28.5581 15.6742 28.4419 15.5579C28.3256 15.4416 28.1644 15.3748 28 15.3748Z" fill="#24A3FF"/>
</g>
<defs>
<clipPath id="clip0">
<rect width="32" height="32" fill="white" transform="translate(0 0.00012207)"/>
</clipPath>
</defs>
</svg>
