<svg width="32" height="32" viewBox="0 0 32 32" fill="none" xmlns="http://www.w3.org/2000/svg">
<g clip-path="url(#clip0)">
<path d="M32.0006 12.3877H30.9684V10.9028C30.9684 9.71638 30.1642 8.68718 29.0133 8.39913L26.839 7.8558V7.60807C27.8009 6.93596 28.3878 5.82737 28.3878 4.64595V3.74325C28.3878 1.73826 26.8168 0.0603805 24.8859 0.00241828C23.8857 -0.0331151 22.9658 0.334315 22.2589 1.02079C21.5518 1.70726 21.1622 2.62811 21.1622 3.61372V4.64595C21.1622 5.82687 21.7484 6.93546 22.7105 7.60757V7.8558L20.5365 8.39913C19.3855 8.68718 18.5816 9.71638 18.5816 10.9028V12.3877H17.5494V15.4844H18.5816V24.7745H21.1622V25.2906C21.1622 26.0973 21.5513 26.8596 22.1944 27.3442V27.4821L20.453 27.979C19.8981 28.138 19.4279 28.4762 19.0977 28.9185C18.7668 28.4762 18.2971 28.1375 17.7419 27.979L16.001 27.4821V27.3442C16.6439 26.8596 17.0333 26.0973 17.0333 25.2906V24.3652C17.0333 22.9779 16.0005 21.8023 14.6823 21.6876C13.9577 21.6246 13.2403 21.8688 12.709 22.3554C12.177 22.8438 11.8721 23.5373 11.8721 24.2584V25.2906C11.8721 26.0973 12.2612 26.8596 12.9043 27.3442V27.4821L11.163 27.979C10.608 28.138 10.1378 28.4762 9.80766 28.9185C9.47677 28.4762 9.00702 28.1375 8.45185 27.979L6.71096 27.4821V27.3442C7.35384 26.8596 7.7432 26.0973 7.7432 25.2906V24.3652C7.7432 22.9779 6.71046 21.8023 5.3922 21.6876C4.66717 21.6246 3.9502 21.8688 3.41897 22.3554C2.88697 22.8438 2.58204 23.5373 2.58204 24.2584V25.2906C2.58204 26.0973 2.97114 26.8596 3.61427 27.3442V27.4821L1.87289 27.979C0.77085 28.2945 0.00146484 29.3149 0.00146484 30.4611V32.0001H28.9039V30.4611C28.9039 29.3149 28.1343 28.295 27.032 27.979L25.2911 27.4821V27.3442C25.934 26.8596 26.3233 26.0973 26.3233 25.2906V24.7745H30.9684V15.4844H32.0006V12.3877ZM19.6138 10.9028C19.6138 10.1912 20.0964 9.57349 20.7864 9.40087L23.7428 8.66198V7.02794L23.4852 6.87875C22.6889 6.41733 22.1944 5.5615 22.1944 4.64595V3.61372C22.1944 2.90985 22.4724 2.25186 22.9784 1.76195C23.4837 1.27154 24.152 1.01676 24.8549 1.03465C26.2334 1.07598 27.3556 2.29092 27.3556 3.74325V4.64595C27.3556 5.562 26.8606 6.41783 26.0635 6.87875L25.8055 7.02845L25.8077 8.66198L28.7636 9.40087C29.4536 9.57349 29.9362 10.1912 29.9362 10.9028V12.3877H19.6138V10.9028ZM9.29154 30.9679H1.0337V30.4611C1.0337 29.7736 1.49563 29.1609 2.15665 28.9722L4.6465 28.2603V26.7719L4.38996 26.6227C3.90434 26.34 3.61427 25.842 3.61427 25.2906V24.2584C3.61427 23.8254 3.79698 23.4093 4.11678 23.1167C4.43986 22.8206 4.86424 22.678 5.30299 22.7163C6.09253 22.7848 6.71096 23.5091 6.71096 24.3652V25.2906C6.71096 25.842 6.4209 26.34 5.93503 26.6227L5.67873 26.7719V28.2603L8.16783 28.9722C8.82961 29.1609 9.29154 29.7736 9.29154 30.4611V30.9679ZM18.5816 30.9679H10.3238V30.4611C10.3238 29.7736 10.7857 29.1609 11.4467 28.9722L13.9366 28.2603V26.7719L13.68 26.6227C13.1944 26.34 12.9043 25.842 12.9043 25.2906V24.2584C12.9043 23.8254 13.0871 23.4093 13.4069 23.1167C13.7304 22.8206 14.1523 22.678 14.5931 22.7163C15.3826 22.7848 16.001 23.5091 16.001 24.3652V25.2906C16.001 25.842 15.711 26.34 15.2251 26.6227L14.9688 26.7719V28.2603L17.4579 28.9722C18.1197 29.1609 18.5816 29.7736 18.5816 30.4611V30.9679ZM25.2911 25.2906C25.2911 25.842 25.0011 26.34 24.5152 26.6227L24.2589 26.7719V28.2603L26.748 28.9722C27.4098 29.1609 27.8717 29.7736 27.8717 30.4611V30.9679H19.6138V30.4611C19.6138 29.7736 20.0758 29.1609 20.7368 28.9722L23.2267 28.2603V26.7719L22.9701 26.6227C22.4845 26.34 22.1944 25.842 22.1944 25.2906V24.2584C22.1944 23.8254 22.3771 23.4093 22.6969 23.1167C23.0205 22.8206 23.4429 22.678 23.8831 22.7163C24.6727 22.7848 25.2911 23.5091 25.2911 24.3652V25.2906ZM29.9362 23.7422H26.2442C25.9894 22.6425 25.0867 21.7846 23.9729 21.6881C23.2466 21.6251 22.5309 21.8693 21.9999 22.3559C21.5957 22.7256 21.3247 23.2138 21.2164 23.7422H19.6138V15.4844H29.9362V23.7422ZM30.9684 14.4522H18.5816V13.4199H30.9684V14.4522Z" fill="#24A3FF"/>
<path d="M1.0337 13.4199H8.25932V16.5899C7.37098 16.8207 6.71097 17.6216 6.71097 18.581C6.71097 19.7196 7.63685 20.6455 8.77543 20.6455C9.91401 20.6455 10.8399 19.7196 10.8399 18.581C10.8399 17.6216 10.1796 16.8207 9.29155 16.5899V13.4199H16.5172V3.09755H17.5494V0.000854492H0.00146484V3.09755H1.0337V13.4199ZM9.80767 18.581C9.80767 19.1503 9.34472 19.6133 8.77543 19.6133C8.20614 19.6133 7.7432 19.1503 7.7432 18.581C7.7432 18.0117 8.20614 17.5488 8.77543 17.5488C9.34472 17.5488 9.80767 18.0117 9.80767 18.581ZM15.4849 12.3876H2.06593V3.09755H15.4849V12.3876ZM1.0337 1.03309H16.5172V2.06532H1.0337V1.03309Z" fill="#24A3FF"/>
<path d="M14.4522 4.12982H11.3555V11.3555H14.4522V4.12982ZM13.4199 10.3232H12.3877V5.16205H13.4199V10.3232Z" fill="#24A3FF"/>
<path d="M10.3228 5.16205H7.22607V11.3554H10.3228V5.16205ZM9.29053 10.3232H8.2583V6.19428H9.29053V10.3232Z" fill="#24A3FF"/>
<path d="M6.1946 7.2265H3.0979V11.3554H6.1946V7.2265ZM5.16236 10.3232H4.13013V8.25874H5.16236V10.3232Z" fill="#24A3FF"/>
</g>
<defs>
<clipPath id="clip0">
<rect width="32" height="32" fill="white" transform="translate(0 0.00012207)"/>
</clipPath>
</defs>
</svg>
