<svg width="32" height="33" viewBox="0 0 32 33" fill="none" xmlns="http://www.w3.org/2000/svg">
<path d="M30.3479 17.7876C30.3025 17.7296 30.2411 17.6862 30.1713 17.6629C30.1015 17.6395 30.0263 17.6373 29.9552 17.6563L25.392 18.8787L22.0361 17.8623C21.8903 17.8182 21.7439 17.7757 21.597 17.7349L21.6771 15.1133C21.68 15.019 21.6472 14.927 21.5852 14.8558C21.5232 14.7845 21.4367 14.7393 21.3428 14.7291C19.5303 14.5318 18.0837 16.3944 17.6522 17.0202C17.0415 16.9678 16.4285 16.9413 15.8131 16.9407C14.537 16.9398 13.288 17.3084 12.2167 18.0018L9.39042 19.8286C9.34345 19.859 9.30386 19.8994 9.27456 19.9471C9.24526 19.9947 9.22699 20.0483 9.22109 20.1039C9.21519 20.1596 9.2218 20.2158 9.24045 20.2685C9.25909 20.3213 9.2893 20.3692 9.32886 20.4087L10.3137 21.3935L9.32886 22.3784C9.2893 22.4179 9.25909 22.4658 9.24045 22.5186C9.2218 22.5713 9.21519 22.6275 9.22109 22.6832C9.22699 22.7388 9.24526 22.7924 9.27456 22.84C9.30386 22.8877 9.34345 22.9282 9.39042 22.9585L12.2167 24.7853C13.288 25.4787 14.537 25.8473 15.8131 25.8465C17.9215 25.8467 20.0183 25.5362 22.0361 24.9248L25.392 23.9085L29.9552 25.1308C30.0264 25.1499 30.1016 25.1476 30.1714 25.1242C30.2413 25.1009 30.3027 25.0574 30.3481 24.9994C30.3934 24.9413 30.4206 24.8712 30.4263 24.7977C30.4321 24.7243 30.416 24.6508 30.3802 24.5864L28.6065 21.3934L30.3803 18.2006C30.4161 18.1362 30.4321 18.0627 30.4263 17.9892C30.4205 17.9158 30.3932 17.8456 30.3479 17.7876ZM19.1252 16.4384C19.5649 16.0162 20.2084 15.5384 20.9159 15.4725L20.8528 17.5406C20.0832 17.3547 19.3039 17.2116 18.5185 17.1118C18.7051 16.8737 18.9078 16.6487 19.1252 16.4384ZM10.1877 22.5805L11.1095 21.6586C11.1799 21.5883 11.2194 21.4929 11.2194 21.3934C11.2194 21.294 11.1799 21.1986 11.1095 21.1283L10.1873 20.2063L12.6239 18.6313C13.383 18.1402 14.2456 17.8314 15.144 17.7291C15.6079 18.5361 15.9596 19.4026 16.1894 20.3046C16.667 22.249 16.3512 23.8501 15.2519 25.0688C14.3152 24.9797 13.4139 24.6664 12.6239 24.1553L10.1877 22.5805ZM27.8502 21.2113C27.8193 21.267 27.803 21.3297 27.803 21.3934C27.803 21.4572 27.8193 21.5199 27.8502 21.5756L29.2957 24.1773L25.4827 23.1563C25.4152 23.1383 25.3439 23.1394 25.277 23.1596L21.819 24.2069C19.9933 24.76 18.0999 25.0582 16.1925 25.0928C17.1408 23.757 17.3925 22.0586 16.9175 20.1257C16.704 19.2799 16.3895 18.4628 15.9809 17.6921C17.9593 17.7075 19.9254 18.0065 21.819 18.58L25.2772 19.6273C25.3442 19.6475 25.4154 19.6487 25.483 19.6306L29.2952 18.6095L27.8502 21.2113Z" fill="#24A3FF" stroke="#24A3FF" stroke-width="0.3"/>
<path d="M13.8438 19.1017C13.646 19.1017 13.4526 19.1604 13.2882 19.2703C13.1237 19.3802 12.9956 19.5363 12.9199 19.7191C12.8442 19.9018 12.8244 20.1029 12.863 20.2968C12.9016 20.4908 12.9968 20.669 13.1366 20.8089C13.2765 20.9487 13.4547 21.0439 13.6487 21.0825C13.8426 21.1211 14.0437 21.1013 14.2264 21.0256C14.4092 20.9499 14.5653 20.8218 14.6752 20.6573C14.7851 20.4929 14.8438 20.2995 14.8438 20.1017C14.8434 19.8366 14.738 19.5825 14.5505 19.395C14.363 19.2075 14.1089 19.1021 13.8438 19.1017ZM13.8438 20.3517C13.7943 20.3517 13.746 20.3371 13.7049 20.3096C13.6637 20.2821 13.6317 20.2431 13.6128 20.1974C13.5939 20.1517 13.5889 20.1015 13.5986 20.053C13.6082 20.0045 13.632 19.9599 13.667 19.925C13.7019 19.89 13.7465 19.8662 13.795 19.8565C13.8435 19.8469 13.8937 19.8519 13.9394 19.8708C13.9851 19.8897 14.0241 19.9217 14.0516 19.9629C14.0791 20.004 14.0938 20.0523 14.0938 20.1017C14.0938 20.1681 14.0674 20.2316 14.0205 20.2785C13.9736 20.3254 13.9101 20.3517 13.8438 20.3517Z" fill="#24A3FF" stroke="#24A3FF" stroke-width="0.3"/>
<path d="M6.50994 23.9183C6.43962 23.848 6.34425 23.8085 6.24481 23.8085C6.14538 23.8085 6.05001 23.848 5.97969 23.9183L4.22281 25.6751C4.15249 25.7454 4.11299 25.8408 4.11299 25.9402C4.11299 26.0397 4.15249 26.1351 4.22281 26.2054C4.25712 26.2401 4.29799 26.2678 4.34305 26.2866C4.38811 26.3054 4.43647 26.3151 4.48531 26.3151C4.53416 26.3151 4.58252 26.3054 4.62758 26.2866C4.67264 26.2678 4.71351 26.2401 4.74781 26.2054L5.875 25.0731V27.7371C5.875 28.2095 5.68733 28.6626 5.35329 28.9967C5.01924 29.3307 4.56617 29.5184 4.09375 29.5184C3.62133 29.5184 3.16827 29.3307 2.83422 28.9967C2.50017 28.6626 2.3125 28.2095 2.3125 27.7371V3.60675C2.3125 3.50729 2.27299 3.41191 2.20267 3.34159C2.13234 3.27126 2.03696 3.23175 1.9375 3.23175C1.83804 3.23175 1.74266 3.27126 1.67233 3.34159C1.60201 3.41191 1.5625 3.50729 1.5625 3.60675V27.7371C1.5625 28.4085 1.82918 29.0523 2.30389 29.527C2.77859 30.0017 3.42242 30.2684 4.09375 30.2684C4.76508 30.2684 5.40891 30.0017 5.88362 29.527C6.35832 29.0523 6.625 28.4085 6.625 27.7371V25.1044L7.73125 26.2054C7.80235 26.2758 7.89833 26.3152 7.99835 26.3152C8.09836 26.3152 8.19434 26.2758 8.26544 26.2054C8.33584 26.1352 8.37546 26.0399 8.37558 25.9404C8.3757 25.841 8.3363 25.7455 8.26607 25.6751L6.50994 23.9183Z" fill="#24A3FF" stroke="#24A3FF" stroke-width="0.3"/>
</svg>
