<svg width="32" height="33" viewBox="0 0 32 33" fill="none" xmlns="http://www.w3.org/2000/svg">
<g clip-path="url(#clip0)">
<path d="M20.9063 0.913979C17.9628 0.906167 15.1386 2.07596 13.0631 4.1632L9.16959 8.05903C7.52167 9.70825 6.54277 11.9093 6.42193 14.2377V14.2512C6.33313 15.8812 6.67011 17.5062 7.40006 18.9663C7.79954 19.7145 7.93547 20.5752 7.78626 21.4101C5.66881 23.6007 3.41464 25.6549 1.03756 27.5603L0.199537 28.2309C0.0810478 28.3257 0.00865205 28.4663 0.0003187 28.6179C-0.00801462 28.7694 0.0484958 28.9171 0.155787 29.0244L3.88912 32.7577C3.98912 32.8577 4.1248 32.914 4.2662 32.914H4.29563C4.44719 32.9059 4.58782 32.8335 4.68287 32.715L5.35318 31.8773C7.25917 29.4997 9.3136 27.2452 11.5047 25.1273C12.3396 24.9786 13.2001 25.1148 13.9485 25.514C15.2516 26.1637 16.6873 26.5041 18.1435 26.5088C18.3068 26.5088 18.4743 26.5028 18.6381 26.4931H18.6758C21.0034 26.3721 23.2037 25.3939 24.8529 23.7471L28.749 19.8507C31.9206 16.678 32.8693 11.9075 31.1529 7.76268C29.4363 3.61789 25.3925 0.915021 20.9063 0.913979ZM11.2594 19.3278L12.8193 20.8885L13.5863 21.6554C12.9159 21.9838 12.1118 21.8556 11.5766 21.3353C11.0482 20.8051 10.9204 19.9955 11.2594 19.3278ZM8.35422 18.489C7.89928 17.5788 7.61438 16.5931 7.5136 15.5806L10.4631 18.5296L9.34303 19.7598C9.19641 19.92 9.0412 20.0757 8.89303 20.2361C8.81256 19.6278 8.63053 19.0372 8.35422 18.489ZM4.52011 31.2075L4.22193 31.5806L1.33287 28.6916L1.70631 28.3934C4.6873 26.0067 7.4774 23.3908 10.0514 20.5694C10.237 21.7512 11.1631 22.6786 12.3446 22.8661C9.52349 25.4387 6.90735 28.2275 4.52011 31.2075ZM12.6758 24.0197C12.8357 23.8713 12.9904 23.7161 13.1516 23.5694L14.3826 22.4494L17.3329 25.401C16.3209 25.2981 15.3357 25.0132 14.4251 24.5598C13.8766 24.2825 13.2852 24.0999 12.6758 24.0197ZM27.9964 19.0965L24.1029 22.9924C22.6972 24.3971 20.8373 25.2554 18.856 25.4132L11.2844 17.8447L7.50032 14.0606C7.65761 12.0799 8.51516 10.2197 9.91959 8.81372L13.8157 4.91736C17.731 1.00122 24.0797 1.00096 27.9956 4.91632C31.9115 8.83195 31.9118 15.1806 27.9964 19.0965Z" fill="#24A3FF"/>
<path d="M19.8071 4.19036C20.1714 4.13984 20.5389 4.11458 20.9068 4.11458V3.04791C20.4894 3.04791 20.0727 3.07656 19.6594 3.13385L19.8071 4.19036Z" fill="#24A3FF"/>
<path d="M14.572 5.67183L12.2402 8.00412L12.9944 8.75828L15.3262 6.42599C16.291 5.45881 17.4908 4.75907 18.8077 4.395L18.5262 3.36792C17.0306 3.78042 15.6681 4.57443 14.572 5.67183Z" fill="#24A3FF"/>
<path d="M3.35596 28.8044L7.08929 25.0714L7.84346 25.8255L4.11038 29.5586L3.35596 28.8044Z" fill="#24A3FF"/>
<path d="M28.2665 25.4479C26.2048 25.4479 24.5332 27.1195 24.5332 29.1812C24.5332 31.2432 26.2048 32.9145 28.2665 32.9145C30.3285 32.9145 31.9999 31.2432 31.9999 29.1812C31.9975 27.1203 30.3275 25.4502 28.2665 25.4479ZM28.2665 31.8479C26.7939 31.8479 25.5999 30.6541 25.5999 29.1812C25.5999 27.7086 26.7939 26.5145 28.2665 26.5145C29.7395 26.5145 30.9332 27.7086 30.9332 29.1812C30.9314 30.6533 29.7387 31.8461 28.2665 31.8479Z" fill="#24A3FF"/>
</g>
<defs>
<clipPath id="clip0">
<rect width="32" height="32" fill="white" transform="translate(0 0.914551)"/>
</clipPath>
</defs>
</svg>
