<svg width="32" height="32" viewBox="0 0 32 32" fill="none" xmlns="http://www.w3.org/2000/svg">
<g clip-path="url(#clip0)">
<path d="M22.9434 32.0001C21.4909 32.0001 20.31 30.8182 20.31 29.3657L21.0698 13.4029C18.8576 12.5729 17.5505 10.1643 17.5505 6.86577C17.5505 3.08 19.9693 0.00012207 22.9434 0.00012207C25.9165 0.00012207 28.3362 3.08 28.3362 6.86577C28.3362 10.1643 27.0292 12.5719 24.8179 13.4029L25.5767 29.3424C25.5767 30.8182 24.3958 32.0001 22.9434 32.0001ZM22.9434 1.01725C20.5307 1.01725 18.5677 3.64044 18.5677 6.86577C18.5677 9.87037 19.7516 11.9962 21.733 12.5505C21.9618 12.6146 22.1154 12.8272 22.1042 13.0642L21.3261 29.3902C21.3261 30.2588 22.0513 30.983 22.9434 30.983C23.8344 30.983 24.5596 30.2578 24.5596 29.3657L23.7825 13.0642C23.7713 12.8282 23.9249 12.6146 24.1538 12.5505C26.1362 11.9962 27.3191 9.87037 27.3191 6.86577C27.3191 3.64044 25.356 1.01725 22.9434 1.01725Z" fill="#24A3FF"/>
<path d="M9.05641 32.0001C7.60394 32.0001 6.42305 30.8182 6.42305 29.3657L7.18285 13.3937C5.09163 12.637 3.66357 10.6403 3.66357 8.40367V0.508688C3.66357 0.22796 3.89141 0.00012207 4.17214 0.00012207H6.4495C6.73023 0.00012207 6.95807 0.22796 6.95807 0.508688V7.33466H7.52257V0.508688C7.52257 0.22796 7.75041 0.00012207 8.03114 0.00012207H10.0817C10.3624 0.00012207 10.5902 0.22796 10.5902 0.508688V7.33466H11.1548V0.508688C11.1548 0.22796 11.3826 0.00012207 11.6633 0.00012207H13.9407C14.2214 0.00012207 14.4492 0.22796 14.4492 0.508688V8.40367C14.4492 10.6403 13.0212 12.637 10.93 13.3937L11.6898 29.3424C11.6898 30.8182 10.5089 32.0001 9.05641 32.0001ZM4.68071 1.01725V8.40367C4.68071 10.322 5.98162 12.0226 7.84501 12.5383C8.07386 12.6024 8.22846 12.814 8.21728 13.052L7.44019 29.3902C7.44019 30.2588 8.1654 30.983 9.05641 30.983C9.94742 30.983 10.6726 30.2578 10.6726 29.3657L9.89554 13.052C9.88436 12.815 10.039 12.6024 10.2678 12.5383C12.1312 12.0216 13.4321 10.321 13.4321 8.40367V1.01725H12.1719V7.84323C12.1719 8.12396 11.944 8.3518 11.6633 8.3518H10.0817C9.80095 8.3518 9.57311 8.12396 9.57311 7.84323V1.01725H8.53971V7.84323C8.53971 8.12396 8.31187 8.3518 8.03114 8.3518H6.45052C6.16979 8.3518 5.94195 8.12396 5.94195 7.84323V1.01725H4.68071Z" fill="#24A3FF"/>
</g>
<defs>
<clipPath id="clip0">
<rect width="32" height="32" fill="white" transform="translate(0 0.00012207)"/>
</clipPath>
</defs>
</svg>
