<svg width="32" height="32" viewBox="0 0 32 32" fill="none" xmlns="http://www.w3.org/2000/svg">
<g clip-path="url(#clip0)">
<path d="M1.26838 22.5693L1.35601 22.5363C3.78689 21.62 6.08296 20.7545 8.46891 20.7545C9.5906 20.7545 10.7134 21.1803 11.902 21.6311C13.1964 22.122 14.5347 22.6295 16 22.6295C17.4653 22.6295 18.8036 22.122 20.098 21.6311C21.2866 21.1803 22.4093 20.7545 23.5311 20.7545C25.8417 20.7545 28.1781 21.6216 30.4374 22.4602L30.7366 22.5711C30.844 22.6109 30.954 22.6298 31.0621 22.6298C31.4431 22.6298 31.8013 22.3958 31.9414 22.0176C32.1212 21.5321 31.8734 20.9927 31.3879 20.8129L31.0898 20.7023C28.7877 19.8479 26.1784 18.8795 23.5311 18.8795C23.4578 18.8795 23.3851 18.8817 23.3125 18.8842L23.3124 5.06245C23.3124 2.9947 21.6301 1.31244 19.5624 1.31244C17.4946 1.31244 15.8124 2.9947 15.8124 5.06245C15.8124 5.58021 16.2321 5.99996 16.7499 5.99996C17.2676 5.99996 17.6874 5.58021 17.6874 5.06245C17.6874 4.02857 18.5285 3.18745 19.5624 3.18745C20.5963 3.18745 21.4374 4.02857 21.4374 5.06245L21.4375 7.87503H10.5625L10.5625 5.06245C10.5625 2.9947 8.88022 1.31244 6.81247 1.31244C4.74471 1.31244 3.06245 2.9947 3.06245 5.06245C3.06245 5.58021 3.4822 5.99996 3.99995 5.99996C4.51771 5.99996 4.93746 5.58021 4.93746 5.06245C4.93746 4.02857 5.77859 3.18745 6.81247 3.18745C7.84634 3.18745 8.68747 4.02857 8.68747 5.06245L8.68754 18.8841C8.61491 18.8816 8.54216 18.8794 8.46891 18.8794C5.74134 18.8794 3.17583 19.8465 0.694692 20.7817L0.607129 20.8147C0.122627 20.9973 -0.122124 21.5381 0.0605018 22.0226C0.243127 22.507 0.783567 22.7518 1.26838 22.5693ZM10.5625 13.5H21.4375V15.3749H10.5625V13.5ZM21.4375 9.74997V11.625H10.5625V9.74997H21.4375ZM10.5625 17.2499H21.4375V19.1894C20.751 19.3783 20.0865 19.6301 19.4331 19.8779C18.2444 20.3287 17.1218 20.7545 16 20.7545C14.8782 20.7545 13.7556 20.3286 12.5669 19.8779C11.9135 19.6301 11.2489 19.3783 10.5625 19.1894V17.2499Z" fill="#24A3FF" stroke="white" stroke-width="0.5"/>
<path d="M26.2086 28.8739L26.1862 28.8654C24.8244 28.3466 22.7663 27.5625 20.9374 27.5625C19.9315 27.5625 19.0177 27.9116 18.134 28.2492C17.3758 28.5389 16.6598 28.8125 15.9999 28.8125C15.34 28.8125 14.6239 28.5389 13.8658 28.2492C12.982 27.9116 12.0682 27.5625 11.0624 27.5625C9.4923 27.5625 8.48023 27.9219 6.80335 28.5172C6.5031 28.6239 6.17716 28.7396 5.81772 28.8642C5.32853 29.0338 5.0694 29.5679 5.23897 30.0571C5.37334 30.4446 5.73641 30.6877 6.12472 30.6877C6.2266 30.6877 6.33022 30.671 6.43185 30.6358C6.7961 30.5095 7.12641 30.3922 7.43073 30.2842C9.06792 29.7028 9.81517 29.4375 11.0622 29.4375C11.7222 29.4375 12.4383 29.7111 13.1964 30.0008C14.0801 30.3384 14.9939 30.6875 15.9998 30.6875C17.0056 30.6875 17.9195 30.3384 18.8031 30.0007C19.5613 29.7111 20.2774 29.4375 20.9373 29.4375C22.4211 29.4375 24.2852 30.1476 25.5187 30.6176L25.541 30.6261C26.0249 30.8102 26.5665 30.5676 26.7509 30.0837C26.9353 29.5999 26.6924 29.0582 26.2086 28.8739Z" fill="#24A3FF" stroke="white" stroke-width="0.5"/>
<path d="M31.3879 24.7147L31.0907 24.6044C28.7882 23.7499 26.1787 22.7813 23.5311 22.7813C22.0658 22.7813 20.7275 23.2889 19.4331 23.7797C18.2444 24.2306 17.1218 24.6563 16 24.6563C14.8782 24.6563 13.7556 24.2305 12.5669 23.7797C11.2725 23.2889 9.93417 22.7813 8.46891 22.7813C5.74134 22.7813 3.17583 23.7484 0.694692 24.6836L0.607129 24.7166C0.122627 24.8992 -0.122124 25.4399 0.0605018 25.9244C0.243127 26.4089 0.783567 26.6536 1.26838 26.4711L1.35601 26.4381C3.78689 25.5218 6.08296 24.6563 8.46891 24.6563C9.5906 24.6563 10.7134 25.0821 11.902 25.5329C13.1964 26.0238 14.5347 26.5313 16 26.5313C17.4653 26.5313 18.8036 26.0238 20.098 25.5329C21.2866 25.0821 22.4093 24.6563 23.5311 24.6563C25.842 24.6563 28.1786 25.5236 30.4382 26.3623L30.7366 26.4729C30.844 26.5127 30.954 26.5316 31.0621 26.5316C31.4431 26.5316 31.8013 26.2976 31.9414 25.9194C32.1213 25.4339 31.8734 24.8946 31.3879 24.7147Z" fill="#24A3FF" stroke="white" stroke-width="0.5"/>
</g>
<defs>
<clipPath id="clip0">
<rect width="32" height="32" fill="white" transform="translate(0 0.00012207)"/>
</clipPath>
</defs>
</svg>
