<svg width="32" height="32" viewBox="0 0 32 32" fill="none" xmlns="http://www.w3.org/2000/svg">
<g clip-path="url(#clip0)">
<path d="M23.25 21.3751C23.25 21.7203 22.9702 22.0001 22.625 22.0001C22.2798 22.0001 22 21.7203 22 21.3751C22 21.0299 22.2798 20.7501 22.625 20.7501C22.9702 20.7501 23.25 21.0299 23.25 21.3751Z" fill="#24A3FF"/>
<path d="M31.375 30.7501H30.125C29.7803 30.7501 29.5 30.4698 29.5 30.1251C29.5 29.5272 29.5 11.3668 29.5 10.7501H30.125C30.3645 10.7501 30.583 10.6132 30.6875 10.3976C30.792 10.182 30.7639 9.9259 30.6155 9.73792L23.1155 0.237916C22.8662 -0.0780024 22.3855 -0.0799555 22.1345 0.237916L14.6345 9.73792C14.4861 9.9259 14.4583 10.182 14.5627 10.3976C14.667 10.6132 14.8855 10.7501 15.125 10.7501H15.75V17.0868C10.9231 17.1652 9.65503 19.1974 8.19482 21.5338L4.96265 26.7062C4.84741 26.8903 4.64941 27.0001 4.43262 27.0001H2.625C2.27979 27.0001 2 27.2799 2 27.6251V31.3751C2 31.7203 2.27979 32.0001 2.625 32.0001H4.29688C5.8147 32.0001 7.20166 31.2316 8.00684 29.944L11.8301 23.8263C12.9268 22.0712 14.73 21.9552 15.75 21.9789V30.1251C15.75 30.4698 15.4697 30.7501 15.125 30.7501H13.875C13.5298 30.7501 13.25 31.0299 13.25 31.3751C13.25 31.7203 13.5298 32.0001 13.875 32.0001H15.125C16.1589 32.0001 17 31.1591 17 30.1251V22.0001H18.25V31.3751C18.25 31.7203 18.5298 32.0001 18.875 32.0001C19.2202 32.0001 19.5 31.7203 19.5 31.3751V29.5001H25.75V31.3751C25.75 31.7203 26.0298 32.0001 26.375 32.0001C26.7202 32.0001 27 31.7203 27 31.3751V22.0001H28.25V30.1251C28.25 31.1591 29.0911 32.0001 30.125 32.0001H31.375C31.7202 32.0001 32 31.7203 32 31.3751C32 31.0299 31.7202 30.7501 31.375 30.7501ZM22.625 1.63391L28.8352 9.50012H16.4148L22.625 1.63391ZM10.77 23.1639L6.94702 29.2811C6.37158 30.201 5.3811 30.7501 4.29688 30.7501H3.25V28.2501H4.43262C5.08276 28.2501 5.67725 27.9208 6.02246 27.3688L9.25488 22.1964C10.6702 19.932 11.6284 18.402 15.75 18.3363V20.7284C14.5354 20.7025 12.2114 20.8571 10.77 23.1639ZM19.5 28.2501V25.7501H25.75V28.2501H19.5ZM25.75 24.5001H19.5V22.0001H19.8125C20.1577 22.0001 20.4375 21.7203 20.4375 21.3751C20.4375 21.0299 20.1577 20.7501 19.8125 20.7501H17V10.7501H28.25V20.7501H25.4375C25.0923 20.7501 24.8125 21.0299 24.8125 21.3751C24.8125 21.7203 25.0923 22.0001 25.4375 22.0001H25.75V24.5001Z" fill="#24A3FF"/>
<path d="M26.375 15.7501C26.375 13.6823 24.6929 12.0001 22.625 12.0001C20.5571 12.0001 18.875 13.6823 18.875 15.7501C18.875 17.818 20.5571 19.5001 22.625 19.5001C24.6929 19.5001 26.375 17.818 26.375 15.7501ZM20.125 15.7501C20.125 14.3717 21.2466 13.2501 22.625 13.2501C24.0034 13.2501 25.125 14.3717 25.125 15.7501C25.125 17.1285 24.0034 18.2501 22.625 18.2501C21.2466 18.2501 20.125 17.1285 20.125 15.7501Z" fill="#24A3FF"/>
<path d="M0 5.62512C0 6.65906 0.841064 7.50012 1.875 7.50012H11.875C12.9089 7.50012 13.75 6.65906 13.75 5.62512C13.75 4.59119 12.9089 3.75012 11.875 3.75012H11.1873C10.897 2.32556 9.63403 1.25012 8.125 1.25012C7.74219 1.25012 7.36719 1.31946 7.01538 1.45325C6.45117 0.56311 5.46021 0.00012207 4.375 0.00012207C2.65186 0.00012207 1.25 1.40198 1.25 3.12512C1.25 3.36365 1.27881 3.60022 1.33228 3.83044C0.562256 4.06384 0 4.77991 0 5.62512ZM4.375 1.25012C5.02686 1.25012 5.62134 1.5885 5.95972 2.12292C5.50195 2.56287 5.18921 3.13 5.06299 3.75012H2.60742C2.53711 3.55042 2.5 3.33899 2.5 3.12512C2.5 2.09119 3.34106 1.25012 4.375 1.25012ZM1.875 5.00012H5.625C5.97021 5.00012 6.25 4.72034 6.25 4.37512C6.25 3.34924 7.07983 2.50012 8.125 2.50012C9.15894 2.50012 10 3.34119 10 4.37512C10 4.72034 10.2798 5.00012 10.625 5.00012H11.875C12.2197 5.00012 12.5 5.2804 12.5 5.62512C12.5 5.96985 12.2197 6.25012 11.875 6.25012H1.875C1.53027 6.25012 1.25 5.96985 1.25 5.62512C1.25 5.2804 1.53027 5.00012 1.875 5.00012Z" fill="#24A3FF"/>
</g>
<defs>
<clipPath id="clip0">
<rect width="32" height="32" fill="white" transform="translate(0 0.00012207)"/>
</clipPath>
</defs>
</svg>
