<svg width="32" height="32" viewBox="0 0 32 32" fill="none" xmlns="http://www.w3.org/2000/svg">
<g clip-path="url(#clip0)">
<path d="M30.2245 18.221H29.1417L23.8556 13.6666C23.316 13.2017 22.6331 12.9881 21.9596 13.0377L19.8331 9.784C19.5741 9.38776 19.1759 9.11798 18.7117 9.02448C18.2479 8.93073 17.7762 9.02497 17.3841 9.28962L15.4476 10.5955C15.2357 10.7386 14.9656 10.772 14.7252 10.6851L13.3411 10.1851C12.7837 9.98395 12.168 10.076 11.6941 10.4312C11.4839 10.5887 11.4415 10.8865 11.5989 11.0965C11.7564 11.3067 12.054 11.3492 12.2642 11.1917C12.4813 11.0291 12.7632 10.9871 13.0184 11.0792L14.4022 11.5792C14.9268 11.7686 15.5162 11.6956 15.9791 11.3836L17.9156 10.0777C18.0953 9.95637 18.3114 9.9134 18.5238 9.95612C18.7364 9.99909 18.919 10.1226 19.0377 10.3043L19.3831 10.8331L17.5155 11.3931C17.264 11.4686 17.1214 11.7335 17.1968 11.9849C17.2723 12.2364 17.5372 12.379 17.7884 12.3035L19.0902 11.9132L18.7308 12.5123C18.5958 12.7374 18.6688 13.0291 18.8939 13.1641C18.9703 13.2103 19.0548 13.232 19.1378 13.232C19.2994 13.232 19.4569 13.1497 19.546 13.0011L20.1461 12.0006L20.9959 13.3009C20.9215 13.3375 20.8482 13.3775 20.7765 13.4217L16.9627 15.7733L15.8697 14.1827C15.2278 13.2489 13.9964 12.9581 13.0047 13.5062L11.8677 14.1346C11.574 14.2967 11.222 14.3331 10.9017 14.234L10.4158 14.0838L11.3145 12.6253C11.4522 12.4019 11.3826 12.1092 11.1592 11.9715C10.9358 11.8336 10.6429 11.9032 10.5054 12.1268L9.47807 13.794L8.43778 13.4725C7.41629 13.1568 6.32302 13.6192 5.8384 14.5726L3.98293 18.221H1.77564C0.796634 18.221 0 19.0177 0 19.9967V21.9435C0 22.9227 0.796634 23.7191 1.77564 23.7191H2.97291V31.3886C2.97291 31.651 3.1858 31.8639 3.44826 31.8639H28.5516C28.8141 31.8639 29.027 31.651 29.027 31.3886V23.7191H30.2242C31.2035 23.7191 31.9999 22.9227 31.9999 21.9435V19.9967C32.0001 19.0177 31.2035 18.221 30.2245 18.221ZM19.1204 15.5594V16.5553C19.1204 16.8177 19.3333 17.0306 19.5958 17.0306C19.8582 17.0306 20.0711 16.8177 20.0711 16.5553V15.4056L22.0199 16.1717C22.264 16.2679 22.5399 16.1476 22.6361 15.9034C22.732 15.659 22.6119 15.3831 22.3675 15.2872L20.6544 14.6136L21.2752 14.2308C21.8956 13.8485 22.683 13.911 23.235 14.3866L27.6854 18.221H18.6451L17.5018 16.5575L19.1204 15.5594ZM6.68557 15.0033C6.95999 14.4637 7.57889 14.202 8.15726 14.3807L10.6209 15.1422C11.1868 15.3172 11.8089 15.253 12.3274 14.9666L13.4644 14.3382C14.0259 14.0279 14.723 14.1927 15.0862 14.7213L17.4918 18.221H15.4085L14.7046 16.5372C14.6036 16.295 14.325 16.1808 14.0831 16.2818C13.8409 16.3832 13.7266 16.6615 13.8277 16.9037L14.3782 18.221H9.92875L9.88627 17.3758L11.1272 16.9186C11.3736 16.8277 11.4998 16.5545 11.409 16.3084C11.3182 16.0621 11.045 15.9359 10.7989 16.0267L9.43241 16.5301L7.80496 15.6427C7.57449 15.5169 7.28592 15.6019 7.16019 15.8321C7.03445 16.0626 7.11941 16.3514 7.34988 16.4771L8.9329 17.3404L8.97684 18.221H5.04934L6.68557 15.0033ZM3.9236 30.9135V29.1518H23.8453C24.1078 29.1518 24.3207 28.9389 24.3207 28.6764C24.3207 28.414 24.1078 28.2011 23.8453 28.2011H3.9236V26.4315H28.0765V28.2011H25.7464C25.484 28.2011 25.2711 28.414 25.2711 28.6764C25.2711 28.9389 25.484 29.1518 25.7464 29.1518H28.0765V30.9135H3.9236ZM28.0765 25.4811H3.9236V23.7191H28.0765V25.4811ZM31.0497 21.9435C31.0497 22.3986 30.6793 22.7687 30.2245 22.7687H1.77564C1.32056 22.7687 0.950443 22.3986 0.950443 21.9435V19.9967C0.950443 19.5416 1.32081 19.1715 1.77564 19.1715H30.2245C30.6793 19.1715 31.0497 19.5419 31.0497 19.9967V21.9435Z" fill="#24A3FF"/>
<path d="M9.61182 6.62454C9.23096 6.96902 8.75708 7.39749 8.75708 8.24002C8.75708 8.50247 8.96973 8.71536 9.23218 8.71536C9.49463 8.71536 9.70753 8.50247 9.70753 8.24002C9.70753 7.83841 9.89332 7.65164 10.2493 7.32962C10.6304 6.98513 11.1043 6.55666 11.1043 5.71413C11.1043 4.8716 10.6304 4.44313 10.2493 4.09865C9.89332 3.77662 9.70753 3.5901 9.70753 3.18824C9.70753 2.78663 9.89332 2.59986 10.2493 2.27808C10.6304 1.9336 11.1045 1.50513 11.1045 0.662599C11.1045 0.400147 10.8916 0.1875 10.6292 0.1875C10.3667 0.1875 10.1538 0.400147 10.1538 0.662599C10.1538 1.06446 9.96802 1.25098 9.61207 1.573C9.2312 1.91724 8.75708 2.34571 8.75708 3.18824C8.75708 4.03078 9.23096 4.45924 9.61182 4.80373C9.96802 5.12575 10.1538 5.31252 10.1538 5.71413C10.1538 6.11599 9.96802 6.30251 9.61182 6.62454Z" fill="#24A3FF"/>
<path d="M15.6812 6.62454C15.3003 6.96902 14.8262 7.39749 14.8262 8.24002C14.8262 8.50247 15.0391 8.71536 15.3015 8.71536C15.564 8.71536 15.7769 8.50247 15.7769 8.24002C15.7769 7.83841 15.9627 7.65164 16.3186 7.32962C16.6995 6.98513 17.1736 6.55666 17.1736 5.71413C17.1736 4.8716 16.6997 4.44313 16.3186 4.09865C15.9627 3.77662 15.7769 3.5901 15.7769 3.18824C15.7769 2.78663 15.9627 2.59986 16.3186 2.27808C16.6997 1.9336 17.1736 1.50513 17.1736 0.662599C17.1736 0.400147 16.961 0.1875 16.6985 0.1875C16.436 0.1875 16.2232 0.400147 16.2232 0.662599C16.2232 1.06421 16.0374 1.25098 15.6812 1.573C15.3003 1.91724 14.8262 2.34571 14.8262 3.18824C14.8262 4.03078 15.3003 4.45924 15.6812 4.80373C16.0374 5.12575 16.2232 5.31252 16.2232 5.71413C16.2232 6.11599 16.0374 6.30251 15.6812 6.62454Z" fill="#24A3FF"/>
<path d="M21.751 6.62454C21.3701 6.96902 20.896 7.39749 20.896 8.24002C20.896 8.50247 21.1086 8.71536 21.3711 8.71536C21.6335 8.71536 21.8464 8.50247 21.8464 8.24002C21.8464 7.83841 22.0322 7.65164 22.3884 7.32962C22.7693 6.98513 23.2434 6.55666 23.2434 5.71413C23.2434 4.8716 22.7693 4.44313 22.3884 4.09865C22.0322 3.77662 21.8464 3.5901 21.8464 3.18824C21.8464 2.78663 22.0322 2.59986 22.3884 2.27808C22.7693 1.9336 23.2434 1.50513 23.2434 0.662599C23.2434 0.400147 23.0305 0.1875 22.7681 0.1875C22.5056 0.1875 22.2927 0.400147 22.2927 0.662599C22.2927 1.06421 22.1069 1.25098 21.751 1.573C21.3699 1.91724 20.896 2.34571 20.896 3.18824C20.896 4.03078 21.3699 4.45924 21.751 4.80373C22.1069 5.12575 22.2927 5.31252 22.2927 5.71413C22.2927 6.11599 22.1069 6.30251 21.751 6.62454Z" fill="#24A3FF"/>
</g>
<defs>
<clipPath id="clip0">
<rect width="32" height="32" fill="white" transform="translate(0 0.00012207)"/>
</clipPath>
</defs>
</svg>
