<svg width="32" height="33" viewBox="0 0 32 33" fill="none" xmlns="http://www.w3.org/2000/svg">
<path d="M31.8181 12.9691L16.2409 2.16343C16.0959 2.06279 15.9038 2.06279 15.7589 2.16343L0.181858 12.9691C0.0299183 13.0744 -0.0359036 13.2663 0.0193473 13.4428C0.0745277 13.6193 0.238025 13.7393 0.422876 13.7393H2.45116V30.7938H0.883488C0.64994 30.7938 0.46065 30.9832 0.46065 31.2167C0.46065 31.4501 0.64994 31.6395 0.883488 31.6395H31.1164C31.35 31.6395 31.5393 31.4501 31.5393 31.2167C31.5393 30.9832 31.35 30.7938 31.1164 30.7938H29.5488V13.7393H31.5771C31.762 13.7393 31.9254 13.6193 31.9806 13.4428C32.0358 13.2663 31.97 13.0745 31.8181 12.9691ZM3.29684 30.7938V13.7393H4.77677V30.7938H3.29684ZM12.9025 7.23256H19.0973L21.0783 8.60678H10.9215L12.9025 7.23256ZM14.1216 6.38688L15.9999 5.08397L17.8781 6.38688H14.1216ZM9.70242 9.45246H22.2974L24.2785 10.8267H7.72135L9.70242 9.45246ZM6.50224 11.6724H25.4976L27.2583 12.8937H4.74168L6.50224 11.6724ZM10.5031 23.7937V23.3004H21.4969V23.7937H10.5031ZM21.9197 24.6394C22.1532 24.6394 22.3425 24.4501 22.3425 24.2166V22.8776C22.3425 22.6441 22.1532 22.4547 21.9197 22.4547H10.0802C9.84675 22.4547 9.65739 22.6441 9.65739 22.8776V24.2166C9.65739 24.4501 9.84675 24.6394 10.0802 24.6394H14.9076V30.7938H5.62245V18.5312L10.4143 13.7393H21.5857L26.3775 18.5312V30.7938H17.0923V24.6394H21.9197ZM6.67708 13.7393L5.62245 14.794V13.7393H6.67708ZM5.62245 15.9899L7.87301 13.7393H9.21834L5.62245 17.3353V15.9899ZM24.1269 13.7393L26.3775 15.9899V17.3353L22.7816 13.7393H24.1269ZM26.3775 14.794L25.3229 13.7393H26.3775V14.794ZM15.7533 30.7938V24.6394H16.2466V30.7938H15.7533ZM28.7031 30.7938H27.2232V13.7393H28.7031V30.7938ZM28.7419 12.8937L16.2409 4.22188C16.0959 4.12124 15.9038 4.12124 15.7589 4.22188L3.25794 12.8937H1.77427L16 3.02553L30.2257 12.8937H28.7419Z" fill="#24A3FF"/>
</svg>
