<svg width="32" height="32" viewBox="0 0 32 32" fill="none" xmlns="http://www.w3.org/2000/svg">
<g clip-path="url(#clip0)">
<path d="M31.8291 11.1449C27.608 6.92315 21.9858 4.59839 15.9999 4.59839C10.014 4.59839 4.39241 6.92257 0.17066 11.1449C-0.0572122 11.3728 -0.0572122 11.7411 0.17066 11.969C0.398532 12.1968 0.766857 12.1968 0.994729 11.969C4.99619 7.96693 10.3252 5.76339 15.9999 5.76339C21.6746 5.76339 27.0036 7.96693 31.0051 11.9684C31.1187 12.082 31.2679 12.1391 31.4171 12.1391C31.5663 12.1391 31.7155 12.082 31.8291 11.9684C32.057 11.7411 32.057 11.3722 31.8291 11.1449Z" fill="#24A3FF"/>
<path d="M3.59595 14.57C3.36808 14.7979 3.36808 15.1662 3.59595 15.394C3.7096 15.5077 3.85879 15.5648 4.00799 15.5648C4.15718 15.5648 4.30638 15.5077 4.42002 15.394C10.8045 9.00897 21.1934 9.00897 27.5785 15.394C27.8063 15.6219 28.1747 15.6219 28.4025 15.394C28.6304 15.1662 28.6304 14.7979 28.4025 14.57C21.564 7.73149 10.4356 7.73032 3.59595 14.57Z" fill="#24A3FF"/>
<path d="M15.9996 14.2832C12.6048 14.2832 9.41692 15.6021 7.02222 17.9962C6.79435 18.224 6.79435 18.5924 7.02222 18.8202C7.25009 19.0481 7.61842 19.0481 7.84629 18.8202C10.0207 16.6464 12.916 15.4488 15.9996 15.4488C19.0831 15.4488 21.9784 16.6464 24.1528 18.8202C24.2665 18.9339 24.4157 18.991 24.5649 18.991C24.7141 18.991 24.8633 18.9339 24.9769 18.8202C25.2048 18.5924 25.2048 18.224 24.9769 17.9962C22.5828 15.6021 19.3943 14.2832 15.9996 14.2832Z" fill="#24A3FF"/>
<path d="M16.0003 19.7662C13.8952 19.7662 12.1824 21.479 12.1824 23.5846C12.1824 25.6903 13.8952 27.4031 16.0003 27.4031C18.1059 27.4031 19.8187 25.6903 19.8187 23.5846C19.8187 21.479 18.1059 19.7662 16.0003 19.7662ZM16.0003 26.2369C14.5374 26.2369 13.348 25.0469 13.348 23.5841C13.348 22.1212 14.538 20.9312 16.0003 20.9312C17.4625 20.9312 18.6531 22.1212 18.6531 23.5841C18.6531 25.0469 17.4631 26.2369 16.0003 26.2369Z" fill="#24A3FF"/>
</g>
<defs>
<clipPath id="clip0">
<rect width="32" height="32" fill="white" transform="translate(0 0.00012207)"/>
</clipPath>
</defs>
</svg>
