<svg width="32" height="32" viewBox="0 0 32 32" fill="none" xmlns="http://www.w3.org/2000/svg">
<g clip-path="url(#clip0)">
<path d="M25.1804 11.342C24.2504 11.342 23.3635 11.5294 22.5549 11.868L20.6215 8.11662H23.3238C23.6169 8.11662 23.8554 8.35513 23.8554 8.64829C23.8554 8.94145 23.6169 9.17996 23.3238 9.17996H22.7472C22.4437 9.17996 22.1978 9.42594 22.1978 9.72936C22.1978 10.0328 22.4437 10.2788 22.7472 10.2788H23.3238C24.2228 10.2788 24.9542 9.54732 24.9542 8.64829C24.9542 7.74925 24.2229 7.01782 23.3238 7.01782H19.7203C19.5287 7.01782 19.351 7.11767 19.2512 7.28124C19.1515 7.44481 19.1442 7.6486 19.2319 7.81892L20.1934 9.68445H12.2642L11.4643 8.11662H12.7293C13.0328 8.11662 13.2787 7.87063 13.2787 7.56722C13.2787 7.26381 13.0328 7.01782 12.7293 7.01782H9.12579C8.8223 7.01782 8.57639 7.26381 8.57639 7.56722C8.57639 7.87063 8.8223 8.11662 9.12579 8.11662H10.2307L11.2985 10.2093L10.0435 12.1537C9.08294 11.6361 7.98502 11.342 6.81956 11.342C3.05927 11.342 0 14.4012 0 18.1615C0 21.9218 3.05927 24.9811 6.81956 24.9811C10.3949 24.9811 13.3362 22.2153 13.6169 18.7109H15.229L14.6028 20.7487H14.2422C13.9387 20.7487 13.6928 20.9946 13.6928 21.2981C13.6928 21.6015 13.9387 21.8475 14.2422 21.8475H16.2201C16.5235 21.8475 16.7694 21.6015 16.7694 21.2981C16.7694 20.9946 16.5235 20.7487 16.2201 20.7487H15.7523L16.4752 18.3962L21.0466 11.34L21.5791 12.3731C19.6484 13.5787 18.3609 15.7224 18.3609 18.1615C18.3609 21.9218 21.4201 24.9811 25.1805 24.9811C28.9408 24.9811 32.0001 21.9218 32.0001 18.1615C32 14.4012 28.9407 11.342 25.1804 11.342ZM11.8759 11.3409L15.0754 17.6121H13.6169C13.4585 15.6354 12.4535 13.8939 10.9656 12.7511L11.8759 11.3409ZM12.5134 17.6121H7.82811L10.3671 13.6785C11.5545 14.6202 12.3611 16.0216 12.5134 17.6121ZM6.81956 23.8823C3.66507 23.8823 1.0988 21.316 1.0988 18.1615C1.0988 15.0071 3.66507 12.4407 6.81956 12.4407C7.76555 12.4407 8.65785 12.673 9.44473 13.0812L6.35792 17.8635C6.24885 18.0325 6.24087 18.2477 6.33712 18.4243C6.4333 18.6009 6.61841 18.7108 6.81956 18.7108H12.5134C12.2359 21.6085 9.78866 23.8823 6.81956 23.8823ZM16.0292 17.0637L12.8248 10.7832H20.0981L16.0292 17.0637ZM25.1804 23.8823C22.0259 23.8823 19.4596 21.3159 19.4596 18.1615C19.4596 16.1472 20.507 14.374 22.0848 13.3544L24.6921 18.4132C24.7896 18.6024 24.9817 18.711 25.1809 18.711C25.2656 18.711 25.3516 18.6913 25.4321 18.6498C25.7019 18.5109 25.8078 18.1795 25.6688 17.9097L23.0608 12.8495C23.7168 12.5868 24.4316 12.4407 25.1804 12.4407C28.3349 12.4407 30.9012 15.007 30.9012 18.1614C30.9012 21.316 28.3349 23.8823 25.1804 23.8823Z" fill="#24A3FF"/>
</g>
<defs>
<clipPath id="clip0">
<rect width="32" height="32" fill="white" transform="translate(0 -0.000488281)"/>
</clipPath>
</defs>
</svg>
