<svg width="32" height="32" viewBox="0 0 32 32" fill="none" xmlns="http://www.w3.org/2000/svg">
<g clip-path="url(#clip0)">
<path d="M30.561 0.00012207H29.5601C28.7839 0.00012207 28.1526 0.631714 28.1526 1.40784V32.0001H29.0908V5.94348H31.0303V8.78113H31.9688V1.40784C31.9688 0.631714 31.3374 0.00012207 30.561 0.00012207ZM29.0908 5.005V1.40784C29.0908 1.14905 29.3013 0.938599 29.5601 0.938599H30.561C30.8198 0.938599 31.0303 1.14905 31.0303 1.40784V5.005H29.0908Z" fill="#24A3FF"/>
<path d="M31.0303 11.5963H31.9688V32.0001H31.0303V11.5963Z" fill="#24A3FF"/>
<path d="M31.0303 9.71936H31.9688V10.6578H31.0303V9.71936Z" fill="#24A3FF"/>
<path d="M17.2043 9.10266C17.2043 7.11926 15.5906 5.50549 13.6069 5.50549C11.6235 5.50549 10.0098 7.11926 10.0098 9.10266C10.0098 11.0863 11.6235 12.7001 13.6069 12.7001C15.5906 12.7001 17.2043 11.0863 17.2043 9.10266ZM13.6069 11.7616C12.1409 11.7616 10.9482 10.569 10.9482 9.10266C10.9482 7.6366 12.1409 6.44397 13.6069 6.44397C15.0732 6.44397 16.2659 7.6366 16.2659 9.10266C16.2659 10.569 15.0732 11.7616 13.6069 11.7616Z" fill="#24A3FF"/>
<path d="M17.6736 12.3873C15.6899 12.3873 14.0762 14.0009 14.0762 15.9845C14.0762 17.9681 15.6899 19.5817 17.6736 19.5817C19.657 19.5817 21.2708 17.9681 21.2708 15.9845C21.2708 14.0009 19.657 12.3873 17.6736 12.3873ZM17.6736 18.6434C16.2073 18.6434 15.0146 17.4506 15.0146 15.9845C15.0146 14.5184 16.2073 13.3256 17.6736 13.3256C19.1396 13.3256 20.3323 14.5184 20.3323 15.9845C20.3323 17.4506 19.1396 18.6434 17.6736 18.6434Z" fill="#24A3FF"/>
<path d="M13.1379 15.9845C13.1379 14.0009 11.5242 12.3873 9.54053 12.3873C7.55688 12.3873 5.94336 14.0009 5.94336 15.9845C5.94336 17.9681 7.55688 19.5817 9.54053 19.5817C11.5242 19.5817 13.1379 17.9681 13.1379 15.9845ZM9.54053 18.6434C8.07446 18.6434 6.88184 17.4506 6.88184 15.9845C6.88184 14.5184 8.07446 13.3256 9.54053 13.3256C11.0066 13.3256 12.1995 14.5184 12.1995 15.9845C12.1995 17.4506 11.0066 18.6434 9.54053 18.6434Z" fill="#24A3FF"/>
<path d="M10.0098 22.8661C10.0098 24.8497 11.6235 26.4635 13.6069 26.4635C15.5906 26.4635 17.2043 24.8497 17.2043 22.8661C17.2043 20.8827 15.5906 19.2689 13.6069 19.2689C11.6235 19.2689 10.0098 20.8827 10.0098 22.8661ZM13.6069 20.2074C15.0732 20.2074 16.2659 21.4 16.2659 22.8661C16.2659 24.3324 15.0732 25.525 13.6069 25.525C12.1409 25.525 10.9482 24.3324 10.9482 22.8661C10.9482 21.4 12.1409 20.2074 13.6069 20.2074Z" fill="#24A3FF"/>
<path d="M5.47412 19.2689C3.49048 19.2689 1.87695 20.8827 1.87695 22.8661C1.87695 24.8497 3.49048 26.4635 5.47412 26.4635C7.45776 26.4635 9.07129 24.8497 9.07129 22.8661C9.07129 20.8827 7.45776 19.2689 5.47412 19.2689ZM5.47412 25.525C4.00806 25.525 2.81519 24.3324 2.81519 22.8661C2.81519 21.4 4.00806 20.2074 5.47412 20.2074C6.94019 20.2074 8.13306 21.4 8.13306 22.8661C8.13306 24.3324 6.94019 25.525 5.47412 25.525Z" fill="#24A3FF"/>
<path d="M26.7258 20.6073L26.7168 20.5875L21.1689 10.8976L20.3545 11.3639L25.8806 21.0155C26.1423 21.5978 26.2754 22.2194 26.2756 22.8636V22.8719C26.2725 25.3282 24.1646 27.402 21.6699 27.402H9.69141V28.3402H21.6699C23.1296 28.3402 24.5142 27.7706 25.5686 26.736C26.6296 25.6949 27.2141 24.3204 27.2141 22.8661V22.8553C27.2126 22.0719 27.0483 21.3156 26.7258 20.6073Z" fill="#24A3FF"/>
<path d="M19.4219 9.73425L20.2361 9.26794L20.7024 10.0824L19.8882 10.5487L19.4219 9.73425Z" fill="#24A3FF"/>
<path d="M0.938477 22.8636C0.938721 22.2196 1.07178 21.5978 1.3335 21.0155L9.33203 7.04553C10.2073 5.51672 11.8455 4.56702 13.6069 4.56702C15.3687 4.56702 17.0068 5.51672 17.8821 7.04553L18.9558 8.92078L19.7703 8.45447L18.6965 6.57947C17.6545 4.75916 15.7043 3.62878 13.6069 3.62878C11.5098 3.62878 9.55957 4.75916 8.51758 6.57947L0.508057 20.5685L0.488281 20.6073C0.164795 21.318 0.000488281 22.077 0 22.8661C0 24.3204 0.584229 25.6949 1.64551 26.736C2.69971 27.7706 4.08447 28.3402 5.54395 28.3402H6.87622V27.402H5.54395C3.04761 27.402 0.938477 25.3248 0.938477 22.8636Z" fill="#24A3FF"/>
<path d="M7.8147 27.402H8.75317V28.3402H7.8147V27.402Z" fill="#24A3FF"/>
<path d="M18.1428 22.8661C18.1428 24.8497 19.7563 26.4635 21.74 26.4635C23.7236 26.4635 25.3372 24.8497 25.3372 22.8661C25.3372 20.8827 23.7236 19.2689 21.74 19.2689C19.7563 19.2689 18.1428 20.8827 18.1428 22.8661ZM21.74 20.2074C23.2061 20.2074 24.3989 21.4 24.3989 22.8661C24.3989 24.3324 23.2061 25.525 21.74 25.525C20.2739 25.525 19.0811 24.3324 19.0811 22.8661C19.0811 21.4 20.2739 20.2074 21.74 20.2074Z" fill="#24A3FF"/>
<path d="M15.3274 9.10266H14.3892C14.3892 8.67151 14.0383 8.32068 13.6069 8.32068V7.38245C14.5557 7.38245 15.3274 8.15418 15.3274 9.10266Z" fill="#24A3FF"/>
<path d="M7.19458 22.8661H6.2561C6.2561 22.4349 5.90527 22.0841 5.47412 22.0841V21.1459C6.42285 21.1459 7.19458 21.9176 7.19458 22.8661Z" fill="#24A3FF"/>
<path d="M23.4604 22.8661H22.522C22.522 22.4349 22.1711 22.0841 21.74 22.0841V21.1459C22.6887 21.1459 23.4604 21.9176 23.4604 22.8661Z" fill="#24A3FF"/>
</g>
<defs>
<clipPath id="clip0">
<rect width="32" height="32" fill="white" transform="translate(0 0.00012207)"/>
</clipPath>
</defs>
</svg>
