<svg width="295" height="40" viewBox="0 0 295 40" fill="none" xmlns="http://www.w3.org/2000/svg">
<path fill-rule="evenodd" clip-rule="evenodd" d="M36.2308 5.99586C35.6136 7.14318 34.5694 8.3271 34.5694 8.3271C34.5694 8.3271 34.7607 8.4853 35.2324 8.3271C35.7539 8.15317 36.5625 7.66133 36.5625 7.66133C36.5625 7.66133 36.3947 8.42753 35.8979 8.99317C35.3477 9.61902 34.4619 10.0498 34.4619 10.0498C34.4619 10.0498 34.6376 10.2461 35.0043 10.2319C35.3544 10.2179 35.8979 9.99259 35.8979 9.99259C35.8979 9.99259 34.2941 12.7658 31.5761 14.3224C27.5715 16.617 21.9377 17.9854 21.9377 17.9854C21.9377 17.9854 22.7988 19.1412 23.2679 19.9846C23.6112 20.6047 23.5994 20.9843 23.5994 20.9843C23.5994 20.9843 23.4199 20.9199 23.1159 20.8318L21.9377 19.6509L21.7647 20.5178C21.483 20.4652 21.1815 20.4192 20.8605 20.3838L20.2748 19.6509V20.3339C19.9518 20.3143 19.6182 20.3049 19.2781 20.3182C19.0181 20.3261 18.7559 20.3457 18.4939 20.3708L18.6138 19.6509L17.8209 20.4456C17.4245 20.4994 17.0386 20.565 16.6709 20.6361L16.9515 19.6509L15.9287 20.791C14.7781 21.0496 13.9603 21.3164 13.9603 21.3164C13.9603 21.3164 14.9 20.1107 15.9542 19.3188C16.8865 18.6185 17.9487 18.3191 17.9487 18.3191V17.6533C17.9487 17.6533 10.4804 16.5027 6.64727 14.3224C3.75445 12.6765 1.66165 9.32621 1.66165 9.32621C1.66165 9.32621 2.45388 9.61962 3.22241 9.61962C3.72557 9.61962 4.32127 9.32621 4.32127 9.32621C4.32127 9.32621 2.60502 8.6063 1.66165 7.66133C0.473102 6.46985 0 4.99645 0 4.99645C0 4.99645 1.49521 5.8428 2.65889 6.32889C3.1274 6.524 3.98835 6.66163 3.98835 6.66163C3.98835 6.66163 2.03833 5.06965 0.996635 3.33096C0.0484393 1.74685 0 5.33957e-06 0 5.33957e-06C0 5.33957e-06 5.64412 5.78169 11.6336 9.65894C16.2726 12.6635 21.605 13.9899 21.605 13.9899C21.605 13.9899 21.8054 13.9533 22.1409 13.8795L21.7686 14.2516C21.7686 14.2516 21.8971 14.4957 21.9928 14.8753C22.07 15.1878 21.9966 15.6121 22.0675 15.9497C22.234 16.7534 23.3636 16.575 23.3636 16.575C23.3636 16.575 22.9717 15.5135 23.6872 15.1013C24.4669 14.6509 24.9845 15.3009 24.9845 15.3009C24.9845 15.3009 25.177 15.0329 25.0841 14.7755C24.9688 14.4603 24.4604 14.2516 24.4604 14.2516C24.4604 14.2516 24.4315 13.7038 23.8864 13.5277C23.8131 13.5041 23.7461 13.4935 23.6767 13.4778C25.1994 13.0286 27.3277 12.2485 29.2501 10.9914C33.361 8.30533 36.8953 3.99673 36.8953 3.99673C36.8953 3.99673 36.7722 4.98707 36.2308 5.99586Z" fill="white"/>
<path fill-rule="evenodd" clip-rule="evenodd" d="M93.3586 40H91.8635V37.3363L89.2043 36.0045L90.5335 34.6726V32.0065H89.2043V34.0054L88.5401 34.6726L87.21 36.669L85.88 34.6726L91.8635 28.011V26.678L95.8527 22.6809L91.8635 18.0178L89.7678 18.438L92.9524 8.66922L95.1869 11.3565L99.1758 14.0208L99.8404 17.3517L104.495 19.3503L107.001 21.5021L104.495 24.0137L105.16 25.3461L107.818 24.0137L109.147 25.3461L105.824 29.3429L106.311 29.8314L93.3586 40Z" fill="white"/>
<path fill-rule="evenodd" clip-rule="evenodd" d="M85.0542 10.0323L82.5565 6.02744L59.569 30.5723L59.7398 12.2371L61.9481 10.0242H69.9261L79.8973 0.0324847L88.54 3.36315L90.0351 5.16203L85.0542 10.0323Z" fill="white"/>
<path fill-rule="evenodd" clip-rule="evenodd" d="M29.938 37.418L31.115 40H26.7151L29.938 37.418ZM26.7151 36.0045L28.1803 33.5565L29.6307 36.7425L26.7151 40H13.4191L26.7151 36.0045ZM56.9225 33.3989L49.8728 28.0924L49.9823 28.011L44.8964 21.7813L45.9934 20.6827L51.3118 22.6809L56.6304 14.0208L58.6241 13.355L61.3158 10.6587L60.9724 29.0736L56.9225 33.3989ZM114.373 37.9089L116.461 40H92.3156L105.904 29.247L105.824 29.3429L113.114 36.647L116.461 33.3396L117.125 34.0054L114.373 37.9089Z" fill="white"/>
<path fill-rule="evenodd" clip-rule="evenodd" d="M27.5812 34.5571L28.7096 32.6738L35.6718 29.989L28.9302 37.5257L27.5812 34.5571ZM40.6754 28.6756H39.346L43.9994 24.6801L44.6637 26.678H43.3342L40.6754 28.6756ZM30.0553 40L29.1635 38.0378L33.3625 34.6726L34.6925 34.0054L34.0273 37.3363L34.6925 38.0024L39.346 34.0054L40.0102 36.0045H43.3342L48.6529 31.342L47.3234 30.0086L49.9823 28.011L48.1096 25.7176L57.5515 32.7261L50.7389 40H30.0553ZM60.6187 34.0054L67.2667 26.0119L69.2604 27.3437L61.2838 34.6726L60.6187 34.0054ZM65.0427 40L77.2385 27.3437L69.7388 40H65.0427ZM83.487 40H79.4546L81.8919 38.0024L83.487 40ZM88.54 18.6842L86.5457 15.3532L80.5619 19.3503L85.8799 11.3565L84.7609 9.56246L89.6579 4.70788L93.1437 8.89972L90.1531 18.3605L88.54 18.6842ZM111.617 27.8192L111.807 28.011L112.452 27.9296L110.477 29.3429L111.617 27.8192ZM125.102 40L123.773 38.6682V36.669H119.784L119.12 36.0045V31.342L117.125 30.6747L115.773 27.5131L117.125 27.3437L131.085 40H125.102Z" fill="white"/>
<path fill-rule="evenodd" clip-rule="evenodd" d="M149.961 19.9494H148.625V4.0605H158.952V5.35453H149.961V19.9494ZM178.901 5.08109C174.259 5.08109 172.017 8.55391 172.017 12.0044C172.017 15.4545 174.259 18.9276 178.901 18.9276C183.544 18.9276 185.786 15.4545 185.786 12.0044C185.786 8.55391 183.544 5.08109 178.901 5.08109ZM178.901 20.199C173.376 20.199 170.658 16.0443 170.658 12.0044C170.658 7.9644 173.376 3.81095 178.901 3.81095C184.427 3.81095 187.145 7.9644 187.145 12.0044C187.145 16.0443 184.427 20.199 178.901 20.199ZM207.026 5.35453H203.108V12.8674H207.026C209.879 12.8674 212.28 12.0951 212.28 9.09896C212.28 6.10288 209.901 5.35453 207.026 5.35453ZM206.958 14.1611H203.086V19.9494H201.749V4.0605H206.958C210.559 4.0605 213.639 5.19542 213.639 9.09896C213.639 13.0262 210.559 14.1611 206.958 14.1611ZM239.566 12.6175H229.284V19.9494H227.949V4.0605H229.284V11.3241H239.566V4.0605H240.903V19.9494H239.566V12.6175ZM262.687 5.94408C262.618 5.76289 262.55 5.60408 262.482 5.44498C262.414 5.60408 262.346 5.76289 262.278 5.94408L258.542 14.4103H266.423L262.687 5.94408ZM266.967 15.6819H258.022L256.118 19.9494H254.669L261.735 4.0605H263.253L270.295 19.9494H268.846L266.967 15.6819ZM293.641 5.35453H289.068C286.53 5.35453 284.515 6.51154 284.515 9.00858C284.515 11.5276 286.53 12.6859 289.068 12.6859H293.641V5.35453ZM293.665 19.9494V13.9796H288.773L284.13 19.9494H282.499L287.278 13.7972C284.9 13.2757 283.134 11.7324 283.134 9.00858C283.134 5.62616 285.92 4.0605 289.136 4.0605H295V19.9494H293.665Z" fill="white"/>
<path fill-rule="evenodd" clip-rule="evenodd" d="M163.537 34.9274H163.107V29.8904H160.911V29.4818H165.722V29.8904H163.537V34.9274ZM168.112 37.5491C167.919 37.5491 167.738 37.5254 167.546 37.4692V37.0841C167.727 37.1289 167.897 37.1631 168.066 37.1631C168.722 37.1631 169.186 36.7085 169.617 35.7103L169.945 34.951L167.194 29.4818H167.658L170.15 34.4744L172.345 29.4818H172.798L169.967 35.8812C169.425 37.1066 168.847 37.5491 168.112 37.5491ZM177.849 29.7659C176.727 29.7659 175.845 30.5024 175.516 31.4114V32.9994C175.845 33.9069 176.727 34.644 177.849 34.644C179.162 34.644 180.168 33.7362 180.168 32.2048C180.168 30.685 179.162 29.7659 177.849 29.7659ZM177.893 35.0524C176.773 35.0524 175.935 34.4286 175.516 33.6796V37.4244H175.086V29.4818H175.482V30.7758C175.935 29.9812 176.773 29.3572 177.893 29.3572C179.433 29.3572 180.599 30.4921 180.599 32.2048C180.599 33.9187 179.433 35.0524 177.893 35.0524ZM187.539 30.1624L183.566 34.9274H183.181V29.4818H183.612V34.2472L187.573 29.4818H187.969V34.9274H187.539V30.1624ZM193.371 35.0524C191.967 35.0524 190.552 34.1791 190.552 32.2511C190.552 30.2307 192.07 29.3572 193.473 29.3572C194.027 29.3572 194.628 29.4936 195.092 29.7997V30.2202C194.65 29.9129 194.062 29.7659 193.518 29.7659C192.273 29.7659 190.982 30.4921 190.982 32.2387C190.982 33.895 192.182 34.644 193.415 34.644C194.027 34.644 194.65 34.4967 195.148 34.213V34.644C194.616 34.9274 194.005 35.0524 193.371 35.0524ZM199.576 34.9274H199.145V29.8904H196.95V29.4818H201.761V29.8904H199.576V34.9274ZM208.338 30.1624L204.366 34.9274H203.981V29.4818H204.41V34.2472L208.372 29.4818H208.769V34.9274H208.338V30.1624ZM215.324 32.8748C214.77 33.1122 214.193 33.2266 213.502 33.2266C212.199 33.2266 211.328 32.6134 211.328 31.2749V29.4818H211.759V31.2526C211.759 32.3757 212.483 32.8183 213.615 32.8183C214.26 32.8183 214.803 32.7277 215.324 32.4885V29.4818H215.755V34.9274H215.324V32.8748ZM221.02 29.7659C219.866 29.7659 218.812 30.5605 218.768 32.0354H223.069C223.171 31.1044 222.673 29.7659 221.02 29.7659ZM218.768 32.4202C218.835 33.9976 220.057 34.644 221.36 34.644C222.005 34.644 222.661 34.4849 223.125 34.213V34.644C222.651 34.9053 221.97 35.0524 221.303 35.0524C219.752 35.0524 218.337 34.1909 218.337 32.2048C218.337 30.3554 219.661 29.3572 220.997 29.3572C223.024 29.3572 223.691 31.0817 223.442 32.4202H218.768ZM228.448 35.0524C227.043 35.0524 225.629 34.1791 225.629 32.2511C225.629 30.2307 227.146 29.3572 228.549 29.3572C229.105 29.3572 229.703 29.4936 230.169 29.7997V30.2202C229.727 29.9129 229.139 29.7659 228.595 29.7659C227.35 29.7659 226.059 30.4921 226.059 32.2387C226.059 33.895 227.26 34.644 228.493 34.644C229.105 34.644 229.727 34.4967 230.225 34.213V34.644C229.693 34.9274 229.081 35.0524 228.448 35.0524ZM236.928 34.9274L234.561 32.3294H233.204V34.9274H232.773V29.4818H233.204V31.9211H234.595L236.633 29.4818H237.143L234.935 32.1367L237.448 34.9274H236.928ZM243.336 32.3977C242.804 32.2269 242.158 32.1022 241.525 32.1022C240.551 32.1022 239.556 32.4425 239.556 33.4525C239.556 34.2813 240.291 34.6676 241.061 34.6676C241.967 34.6676 242.849 34.2247 243.336 33.3856V32.3977ZM244.196 34.951C243.754 34.951 243.336 34.7239 243.336 34.066V33.9187C242.793 34.644 241.943 35.0524 240.982 35.0524C240.042 35.0524 239.114 34.5533 239.114 33.4644C239.114 32.1706 240.315 31.728 241.479 31.728C242.125 31.728 242.77 31.8424 243.336 32.0235V31.5244C243.336 30.4698 242.692 29.7659 241.469 29.7659C240.654 29.7659 239.974 29.9467 239.533 30.1176V29.6975C239.951 29.5505 240.642 29.3572 241.503 29.3572C242.941 29.3572 243.766 30.1859 243.766 31.5692V34.0538C243.766 34.4523 244.015 34.5756 244.31 34.5756C244.445 34.5756 244.593 34.5427 244.728 34.4967V34.8603C244.559 34.9171 244.378 34.951 244.196 34.951ZM250.706 29.8786H248.636C247.616 29.8786 247.016 30.3895 247.016 31.15C247.016 31.9211 247.628 32.4202 248.636 32.4202H250.706V29.8786ZM250.706 32.8183H248.465L246.869 34.9274H246.361L248.001 32.7605C247.108 32.579 246.586 31.9552 246.586 31.15C246.586 30.1859 247.345 29.4818 248.602 29.4818H251.137V34.9274H250.706V32.8183ZM260.647 35.0524C259.244 35.0524 257.83 34.1791 257.83 32.2511C257.83 30.2307 259.346 29.3572 260.75 29.3572C261.304 29.3572 261.904 29.4936 262.368 29.7997V30.2202C261.926 29.9129 261.338 29.7659 260.796 29.7659C259.551 29.7659 258.26 30.4921 258.26 32.2387C258.26 33.895 259.459 34.644 260.693 34.644C261.304 34.644 261.926 34.4967 262.426 34.213V34.644C261.894 34.9274 261.282 35.0524 260.647 35.0524ZM267.113 29.7659C265.959 29.7659 264.906 30.5605 264.861 32.0354H269.162C269.264 31.1044 268.766 29.7659 267.113 29.7659ZM264.861 32.4202C264.929 33.9976 266.151 34.644 267.453 34.644C268.097 34.644 268.754 34.4849 269.219 34.213V34.644C268.744 34.9053 268.065 35.0524 267.396 35.0524C265.845 35.0524 264.431 34.1909 264.431 32.2048C264.431 30.3554 265.755 29.3572 267.091 29.3572C269.117 29.3572 269.784 31.0817 269.535 32.4202H264.861ZM273.85 34.9274H273.419V29.8904H271.224V29.4818H276.035V29.8904H273.85V34.9274ZM280.62 31.9211H278.685V34.5308H280.62C281.65 34.5308 282.273 34.0094 282.273 33.2266C282.273 32.4319 281.64 31.9211 280.62 31.9211ZM280.666 34.9274H278.255V29.4818H278.685V31.5244H280.666C281.923 31.5244 282.714 32.2387 282.714 33.2266C282.714 34.213 281.923 34.9274 280.666 34.9274Z" fill="white"/>
</svg>
