<svg width="18" height="19" viewBox="0 0 18 19" fill="none" xmlns="http://www.w3.org/2000/svg">
<g clip-path="url(#clip0)">
<path d="M9.00013 9.20016C11.0014 9.20016 12.6239 7.22952 12.6239 4.79859C12.6239 2.36761 12.0912 0.396973 9.00013 0.396973C5.90902 0.396973 5.37622 2.36761 5.37622 4.79859C5.37622 7.22952 6.99874 9.20016 9.00013 9.20016Z" fill="#24A3FF"/>
<path d="M2.15525 15.9209C2.15464 15.7727 2.15402 15.8791 2.15525 15.9209V15.9209Z" fill="#24A3FF"/>
<path d="M15.844 16.0367C15.8459 15.9962 15.8447 15.7552 15.844 16.0367V16.0367Z" fill="#24A3FF"/>
<path d="M15.8369 15.7431C15.7698 11.5083 15.2167 10.3017 10.9845 9.53784C10.9845 9.53784 10.3888 10.297 9.0002 10.297C7.61163 10.297 7.01577 9.53784 7.01577 9.53784C2.82975 10.2933 2.24305 11.4821 2.16591 15.6055C2.15958 15.9422 2.15665 15.9599 2.15552 15.9208C2.15577 15.994 2.15608 16.1295 2.15608 16.3657C2.15608 16.3657 3.16367 18.3969 9.0002 18.3969C14.8366 18.3969 15.8443 16.3657 15.8443 16.3657C15.8443 16.2139 15.8444 16.1084 15.8446 16.0366C15.8434 16.0608 15.8412 16.0139 15.8369 15.7431Z" fill="#24A3FF"/>
</g>
<defs>
<clipPath id="clip0">
<rect width="18" height="18" fill="white" transform="translate(0 0.396973)"/>
</clipPath>
</defs>
</svg>
