<svg width="18" height="19" viewBox="0 0 18 19" fill="none" xmlns="http://www.w3.org/2000/svg">
<g clip-path="url(#clip0)">
<path d="M9.00001 9.60689C11.0013 9.60689 12.6238 7.63625 12.6238 5.20533C12.6238 2.77435 12.0911 0.803711 9.00001 0.803711C5.9089 0.803711 5.3761 2.77435 5.3761 5.20533C5.3761 7.63625 6.99862 9.60689 9.00001 9.60689Z" fill="#828282"/>
<path d="M2.15519 16.3276C2.15458 16.1794 2.15396 16.2859 2.15519 16.3276V16.3276Z" fill="#828282"/>
<path d="M15.8438 16.4434C15.8458 16.4028 15.8445 16.1619 15.8438 16.4434V16.4434Z" fill="#828282"/>
<path d="M15.8368 16.1498C15.7697 11.9151 15.2167 10.7084 10.9845 9.94461C10.9845 9.94461 10.3887 10.7037 9.00014 10.7037C7.61156 10.7037 7.01571 9.94461 7.01571 9.94461C2.82968 10.7001 2.24299 11.8889 2.16585 16.0123C2.15952 16.349 2.15659 16.3667 2.15546 16.3276C2.15571 16.4008 2.15602 16.5363 2.15602 16.7725C2.15602 16.7725 3.16361 18.8037 9.00014 18.8037C14.8366 18.8037 15.8443 16.7725 15.8443 16.7725C15.8443 16.6207 15.8444 16.5152 15.8445 16.4434C15.8434 16.4676 15.8411 16.4207 15.8368 16.1498Z" fill="#828282"/>
</g>
<defs>
<clipPath id="clip0">
<rect width="18" height="18" fill="white" transform="translate(0 0.803711)"/>
</clipPath>
</defs>
</svg>
