<svg width="1842" height="562" viewBox="0 0 1842 562" fill="none" xmlns="http://www.w3.org/2000/svg">
<g opacity="0.7">
<path fill-rule="evenodd" clip-rule="evenodd" d="M509.043 84.2418C500.372 100.362 485.7 116.996 485.7 116.996C485.7 116.996 488.389 119.219 495.016 116.996C502.343 114.552 513.703 107.642 513.703 107.642C513.703 107.642 511.346 118.407 504.366 126.354C496.636 135.147 484.191 141.199 484.191 141.199C484.191 141.199 486.658 143.957 491.81 143.758C496.729 143.562 504.366 140.396 504.366 140.396C504.366 140.396 481.833 179.359 443.645 201.229C387.38 233.469 308.225 252.696 308.225 252.696C308.225 252.696 320.323 268.935 326.914 280.783C331.737 289.496 331.571 294.829 331.571 294.829C331.571 294.829 329.05 293.924 324.778 292.687L308.225 276.096L305.795 288.276C301.836 287.536 297.601 286.89 293.091 286.393L284.862 276.096V285.692C280.324 285.416 275.636 285.284 270.857 285.471C267.205 285.581 263.521 285.858 259.839 286.21L261.524 276.096L250.384 287.26C244.814 288.017 239.393 288.939 234.227 289.938L238.169 276.096L223.798 292.114C207.632 295.747 196.142 299.496 196.142 299.496C196.142 299.496 209.345 282.555 224.156 271.429C237.256 261.591 252.18 257.383 252.18 257.383V248.029C252.18 248.029 147.249 231.863 93.3942 201.229C52.7501 178.105 23.3462 131.033 23.3462 131.033C23.3462 131.033 34.477 135.156 45.2749 135.156C52.3444 135.156 60.7139 131.033 60.7139 131.033C60.7139 131.033 36.6006 120.918 23.3462 107.642C6.64709 90.9013 0 70.2001 0 70.2001C0 70.2001 21.0077 82.0913 37.3574 88.9209C43.9401 91.6621 56.0364 93.5958 56.0364 93.5958C56.0364 93.5958 28.6385 71.2285 14.0027 46.8C0.680572 24.5432 0 1.78513e-05 0 1.78513e-05C0 1.78513e-05 79.2999 81.2328 163.452 135.708C228.63 177.923 303.551 196.559 303.551 196.559C303.551 196.559 306.367 196.044 311.081 195.007L305.85 200.235C305.85 200.235 307.655 203.664 308.999 208.998C310.083 213.388 309.053 219.351 310.048 224.094C312.387 235.386 328.258 232.878 328.258 232.878C328.258 232.878 322.753 217.965 332.805 212.173C343.76 205.845 351.033 214.978 351.033 214.978C351.033 214.978 353.738 211.212 352.432 207.596C350.812 203.167 343.669 200.235 343.669 200.235C343.669 200.235 343.264 192.538 335.605 190.065C334.574 189.733 333.633 189.584 332.658 189.363C354.052 183.052 383.954 172.092 410.965 154.429C468.722 116.69 518.38 56.1541 518.38 56.1541C518.38 56.1541 516.65 70.0683 509.043 84.2418Z" fill="white"/>
<path fill-rule="evenodd" clip-rule="evenodd" d="M1311.69 562H1290.68V524.575L1253.32 505.863L1272 487.15V449.692H1253.32V477.775L1243.99 487.15L1225.3 515.2L1206.61 487.15L1290.68 393.555V374.825L1346.73 318.667L1290.68 253.15L1261.24 259.053L1305.98 121.802L1337.38 159.559L1393.42 196.992L1402.76 243.792L1468.15 271.871L1503.36 302.105L1468.15 337.392L1477.49 356.113L1514.85 337.392L1533.52 356.113L1486.83 412.267L1493.67 419.131L1311.69 562Z" fill="white"/>
<path fill-rule="evenodd" clip-rule="evenodd" d="M1195.02 140.952L1159.93 84.6829L836.952 429.538L839.352 171.929L870.378 140.837H982.47L1122.57 0.453704L1243.99 47.2496L1265 72.5238L1195.02 140.952Z" fill="white"/>
<path fill-rule="evenodd" clip-rule="evenodd" d="M420.628 525.723L437.165 562H375.345L420.628 525.723ZM375.345 505.863L395.932 471.468L416.311 516.233L375.345 562H188.537L375.345 505.863ZM799.761 469.254L700.712 394.698L702.251 393.555L630.794 306.028L646.207 290.592L720.93 318.667L795.656 196.992L823.668 187.638L861.487 149.754L856.662 408.485L799.761 469.254ZM1606.94 532.62L1636.27 562H1297.03L1487.94 410.92L1486.82 412.267L1589.25 514.89L1636.27 468.421L1645.61 477.775L1606.94 532.62Z" fill="white"/>
<path fill-rule="evenodd" clip-rule="evenodd" d="M387.513 485.527L403.367 459.067L501.187 421.345L406.467 527.236L387.513 485.527ZM571.487 402.892H552.808L618.189 346.754L627.522 374.825H608.844L571.487 402.892ZM422.275 562L409.745 534.431L468.74 487.15L487.427 477.775L478.082 524.575L487.427 533.934L552.808 477.775L562.141 505.863H608.844L683.571 440.355L664.892 421.621L702.249 393.555L675.938 361.332L808.596 459.802L712.88 562H422.275ZM851.69 477.775L945.095 365.467L973.107 384.179L861.036 487.15L851.69 477.775ZM913.848 562L1085.2 384.179L979.828 562H913.848ZM1172.99 562H1116.34L1150.58 533.934L1172.99 562ZM1243.99 262.513L1215.97 215.712L1131.89 271.871L1206.61 159.558L1190.89 134.352L1259.69 66.145L1308.67 125.04L1266.65 257.965L1243.99 262.513ZM1568.22 390.86L1570.89 393.555L1579.95 392.411L1552.2 412.267L1568.22 390.86ZM1757.68 562L1739.01 543.288V515.2H1682.97L1673.63 505.863V440.355L1645.61 430.979L1626.61 386.559L1645.61 384.179L1841.75 562H1757.68Z" fill="white"/>
</g>
</svg>
