<svg width="41" height="40" viewBox="0 0 41 40" fill="none" xmlns="http://www.w3.org/2000/svg">
<path d="M29.5489 22.0006C32.2002 21.5722 34.6393 22.2147 36.8664 23.9281C38.9874 25.6414 40.0479 27.8366 40.0479 30.5137C40.0479 32.9767 39.1464 35.1184 37.3436 36.9388C35.5407 38.7592 33.4197 39.6694 30.9806 39.6694C28.5415 39.6694 26.5265 38.7057 24.9358 36.7782C23.345 34.9577 22.4436 32.7625 22.2315 30.1925C21.8073 25.5879 21.9664 21.6793 22.7087 18.4668C23.4511 15.3614 24.6176 12.4701 26.2084 9.79299C27.3749 7.97256 28.9657 6.20568 30.9806 4.49233C32.8895 2.77899 34.9575 1.60106 37.1845 0.958557C38.3511 0.637306 39.0404 0.583767 39.2525 0.797935C39.3585 1.0121 39.4115 1.70815 39.4115 2.88607V4.65296C39.4115 5.93797 39.3585 6.68756 39.2525 6.90173C39.0404 7.22298 38.3511 7.59777 37.1845 8.02611C34.8514 8.88278 32.9955 10.489 31.6169 12.8449C30.2383 15.2007 29.5489 18.2526 29.5489 22.0006ZM7.59666 22.0006C10.2479 21.5722 12.687 22.2147 14.9141 23.9281C17.0351 25.6414 18.0956 27.8366 18.0956 30.5137C18.0956 32.9767 17.1941 35.1184 15.3913 36.9388C13.5885 38.7592 11.4675 39.6694 9.02833 39.6694C6.58919 39.6694 4.57425 38.7057 2.98349 36.7782C1.39275 34.9577 0.491333 32.7625 0.279236 30.1925C-0.144966 25.5879 0.0141029 21.6793 0.756451 18.4668C1.4988 15.3614 2.66534 12.4701 4.25609 9.79299C5.42264 7.97256 7.01339 6.20568 9.02833 4.49233C10.9372 2.77899 13.0052 1.60106 15.2322 0.958557C16.3988 0.637306 17.0881 0.583767 17.3002 0.797935C17.4062 1.0121 17.4593 1.70815 17.4593 2.88607V4.65296C17.4593 5.93797 17.4062 6.68756 17.3002 6.90173C17.0881 7.22298 16.3988 7.59777 15.2322 8.02611C12.8991 8.88278 11.0433 10.489 9.66463 12.8449C8.28598 15.2007 7.59666 18.2526 7.59666 22.0006Z" fill="#24A3FF"/>
</svg>
