<svg width="449" height="137" viewBox="0 0 449 137" fill="none" xmlns="http://www.w3.org/2000/svg">
<path fill-rule="evenodd" clip-rule="evenodd" d="M124.09 20.5359C121.977 24.4655 118.4 28.5204 118.4 28.5204C118.4 28.5204 119.055 29.0622 120.671 28.5204C122.457 27.9247 125.226 26.2402 125.226 26.2402C125.226 26.2402 124.652 28.8644 122.95 30.8017C121.066 32.9452 118.032 34.4205 118.032 34.4205C118.032 34.4205 118.634 35.0929 119.89 35.0442C121.089 34.9965 122.95 34.2247 122.95 34.2247C122.95 34.2247 117.457 43.7229 108.148 49.0542C94.4325 56.9133 75.1366 61.6002 75.1366 61.6002C75.1366 61.6002 78.0858 65.5588 79.6924 68.4472C80.8682 70.5711 80.8278 71.8713 80.8278 71.8713C80.8278 71.8713 80.2133 71.6506 79.1719 71.3491L75.1366 67.3045L74.5443 70.2737C73.5792 70.0935 72.5468 69.936 71.4473 69.8148L69.4414 67.3045V69.6438C68.335 69.5765 67.1923 69.5444 66.0274 69.59C65.1371 69.6169 64.2391 69.6842 63.3415 69.7702L63.7522 67.3045L61.0367 70.0261C59.6788 70.2105 58.3573 70.4354 57.098 70.6788L58.0588 67.3045L54.5558 71.2092C50.6149 72.095 47.8139 73.0088 47.8139 73.0088C47.8139 73.0088 51.0324 68.8793 54.643 66.167C57.8364 63.7686 61.4744 62.743 61.4744 62.743V60.4627C61.4744 60.4627 35.8953 56.5217 22.7669 49.0542C12.859 43.4172 5.69116 31.9424 5.69116 31.9424C5.69116 31.9424 8.40453 32.9473 11.0368 32.9473C12.7601 32.9473 14.8003 31.9424 14.8003 31.9424C14.8003 31.9424 8.92219 29.4766 5.69116 26.2402C1.62037 22.1593 0 17.1129 0 17.1129C0 17.1129 5.12109 20.0117 9.1067 21.6765C10.7114 22.3448 13.6601 22.8162 13.6601 22.8162C13.6601 22.8162 6.98128 17.3636 3.41348 11.4086C0.165905 5.98304 0 9.38699e-05 0 9.38699e-05C0 9.38699e-05 19.3311 19.8024 39.8449 33.082C55.7335 43.3727 73.9971 47.9156 73.9971 47.9156C73.9971 47.9156 74.6836 47.7902 75.8327 47.5374L74.5576 48.8117C74.5576 48.8117 74.9977 49.6478 75.3252 50.948C75.5896 52.0182 75.3384 53.4717 75.5811 54.6279C76.1513 57.3806 80.0202 56.7693 80.0202 56.7693C80.0202 56.7693 78.6781 53.134 81.1286 51.7219C83.7992 50.1793 85.5719 52.4056 85.5719 52.4056C85.5719 52.4056 86.2314 51.4878 85.913 50.6061C85.5182 49.5266 83.777 48.8117 83.777 48.8117C83.777 48.8117 83.678 46.9355 81.811 46.3326C81.5599 46.2518 81.3305 46.2155 81.0926 46.1616C86.3079 44.6231 93.5973 41.9513 100.182 37.6456C114.261 28.4458 126.367 13.6889 126.367 13.6889C126.367 13.6889 125.945 17.0808 124.09 20.5359Z" fill="#E5E5E5"/>
<path fill-rule="evenodd" clip-rule="evenodd" d="M319.753 137H314.633V127.877L305.525 123.315L310.077 118.754V109.622H305.525V116.468L303.25 118.754L298.694 125.591L294.139 118.754L314.633 95.9376V91.3719L328.296 77.682L314.633 61.7109L307.455 63.1499L318.362 29.6919L326.015 38.8959L339.677 48.021L341.953 59.4296L357.895 66.2745L366.477 73.6447L357.895 82.2467L360.172 86.8103L369.277 82.2467L373.829 86.8103L362.447 100.499L364.116 102.172L319.753 137Z" fill="#E5E5E5"/>
<path fill-rule="evenodd" clip-rule="evenodd" d="M291.312 34.3603L282.757 20.6435L204.025 104.71L204.61 41.9118L212.173 34.3323H239.498L273.65 0.110822L303.251 11.5183L308.371 17.6795L291.312 34.3603Z" fill="#E5E5E5"/>
<path fill-rule="evenodd" clip-rule="evenodd" d="M102.537 128.156L106.568 137H91.4982L102.537 128.156ZM91.4982 123.315L96.5167 114.931L101.484 125.843L91.4982 137H45.9595L91.4982 123.315ZM194.959 114.391L170.814 96.2163L171.189 95.9376L153.769 74.6009L157.527 70.8382L175.742 77.682L193.958 48.021L200.787 45.7408L210.006 36.5058L208.83 99.5771L194.959 114.391ZM391.728 129.838L398.877 137H316.18L362.719 100.171L362.446 100.499L387.414 125.516L398.877 114.188L401.153 116.468L391.728 129.838Z" fill="#E5E5E5"/>
<path fill-rule="evenodd" clip-rule="evenodd" d="M94.4652 118.358L98.3301 111.908L122.176 102.712L99.0857 128.525L94.4652 118.358ZM139.313 98.2137H134.76L150.698 84.529L152.973 91.3719H148.419L139.313 98.2137ZM102.939 137L99.8847 130.279L114.266 118.754L118.821 116.468L116.543 127.877L118.821 130.158L134.76 116.468L137.035 123.315H148.419L166.636 107.346L162.082 102.779L171.189 95.9376L164.775 88.0825L197.113 112.087L173.78 137H102.939ZM207.619 116.468L230.388 89.0906L237.217 93.6521L209.897 118.754L207.619 116.468ZM222.771 137L264.542 93.6521L238.855 137H222.771ZM285.943 137H272.132L280.48 130.158L285.943 137ZM303.249 63.9932L296.419 52.5847L275.924 66.2745L294.138 38.8959L290.306 32.7513L307.078 16.1243L319.017 30.4814L308.774 62.8847L303.249 63.9932ZM382.289 95.2808L382.94 95.9376L385.149 95.6589L378.384 100.499L382.289 95.2808ZM428.474 137L423.922 132.438V125.591H410.261L407.984 123.315V107.346L401.153 105.061L396.522 94.2323L401.153 93.6521L448.967 137H428.474Z" fill="#E5E5E5"/>
</svg>
