<svg width="32" height="33" viewBox="0 0 32 33" fill="none" xmlns="http://www.w3.org/2000/svg">
<g clip-path="url(#clip0)">
<path d="M31.7186 30.8922L23.9421 23.1157C26.0282 20.7175 27.2911 17.5885 27.2911 14.1685C27.2911 6.64036 21.1678 0.52417 13.6468 0.52417C6.11863 0.52417 0.00244141 6.64745 0.00244141 14.1685C0.00244141 21.6896 6.12572 27.8129 13.6468 27.8129C17.0667 27.8129 20.1958 26.5499 22.594 24.4639L30.3705 32.2404C30.555 32.4248 30.8033 32.5242 31.0446 32.5242C31.2858 32.5242 31.5341 32.4319 31.7186 32.2404C32.0876 31.8714 32.0876 31.2612 31.7186 30.8922ZM1.91109 14.1685C1.91109 7.69756 7.17583 2.43991 13.6397 2.43991C20.1106 2.43991 25.3683 7.70466 25.3683 14.1685C25.3683 20.6324 20.1106 25.9042 13.6397 25.9042C7.17583 25.9042 1.91109 20.6395 1.91109 14.1685Z" fill="#00CCC2"/>
</g>
<defs>
<clipPath id="clip0">
<rect width="32" height="32" fill="white" transform="translate(0 0.52417)"/>
</clipPath>
</defs>
</svg>
