<svg width="24" height="25" viewBox="0 0 24 25" fill="none" xmlns="http://www.w3.org/2000/svg">
<path d="M22.5512 1.70654H1.44886C0.64997 1.70654 0 2.35651 0 3.15541V17.7251C0 18.524 0.64997 19.1739 1.44886 19.1739H8.67981V20.2282C8.67981 21.1946 7.89353 21.9809 6.92711 21.9809H5.33349C5.02796 21.9809 4.78023 22.2285 4.78023 22.5341C4.78023 22.8397 5.02796 23.0874 5.33349 23.0874H18.6665C18.972 23.0874 19.2197 22.8397 19.2197 22.5341C19.2197 22.2285 18.972 21.9809 18.6665 21.9809H17.0728C16.1064 21.9809 15.3201 21.1946 15.3201 20.2282V19.174H22.551C23.3499 19.174 24 18.524 24 17.7251V3.15541C24 2.35651 23.3501 1.70654 22.5512 1.70654ZM9.18377 21.981C9.56093 21.4965 9.78644 20.8884 9.78644 20.2283V19.174H14.2137V20.2283C14.2137 20.8884 14.4392 21.4965 14.8163 21.981H9.18377ZM22.8935 17.7251C22.8935 17.9139 22.74 18.0675 22.5511 18.0675H1.44886C1.2601 18.0675 1.10649 17.9139 1.10649 17.7251V14.8173H22.8935V17.7251ZM22.8935 13.7107H1.10653V3.15541C1.10653 2.96664 1.2601 2.81303 1.44891 2.81303H22.5511C22.7399 2.81303 22.8936 2.96659 22.8936 3.15541V13.7107H22.8935Z" fill="#828282"/>
<path d="M12.0004 17.0398C12.3302 17.0398 12.5975 16.7724 12.5975 16.4427C12.5975 16.1129 12.3302 15.8456 12.0004 15.8456C11.6706 15.8456 11.4033 16.1129 11.4033 16.4427C11.4033 16.7724 11.6706 17.0398 12.0004 17.0398Z" fill="#828282"/>
<path d="M12.949 5.51811C12.7329 5.30207 12.3827 5.30207 12.1666 5.51811L8.25652 9.42815C8.04047 9.64419 8.04047 9.99454 8.25652 10.2106C8.36461 10.3187 8.50613 10.3727 8.64778 10.3727C8.78944 10.3727 8.93096 10.3187 9.039 10.2106L12.949 6.3006C13.1651 6.08455 13.1651 5.73421 12.949 5.51811Z" fill="#828282"/>
<path d="M15.2665 7.78411C15.0505 7.56806 14.7003 7.56806 14.4841 7.78406L12.9264 9.34163C12.7104 9.55772 12.7104 9.90807 12.9264 10.1241C13.0345 10.2322 13.176 10.2862 13.3177 10.2862C13.4592 10.2862 13.6008 10.2322 13.7089 10.1241L15.2665 8.56655C15.4826 8.3505 15.4826 8.00016 15.2665 7.78411Z" fill="#828282"/>
</svg>
