<svg width="24" height="25" viewBox="0 0 24 25" fill="none" xmlns="http://www.w3.org/2000/svg">
<g clip-path="url(#clip0)">
<path d="M23.8718 9.12278C20.7059 5.95646 16.4893 4.21289 11.9999 4.21289C7.51047 4.21289 3.29425 5.95602 0.127934 9.12278C-0.0429702 9.29368 -0.0429702 9.56992 0.127934 9.74083C0.298838 9.91173 0.575082 9.91173 0.745986 9.74083C3.74708 6.7393 7.74387 5.08664 11.9999 5.08664C16.2559 5.08664 20.2527 6.7393 23.2537 9.74039C23.339 9.82562 23.4509 9.86846 23.5628 9.86846C23.6747 9.86846 23.7866 9.82562 23.8718 9.74039C24.0427 9.56992 24.0427 9.29324 23.8718 9.12278Z" fill="#828282"/>
<path d="M2.69678 11.6916C2.52588 11.8625 2.52588 12.1387 2.69678 12.3096C2.78202 12.3949 2.89391 12.4377 3.00581 12.4377C3.1177 12.4377 3.2296 12.3949 3.31483 12.3096C8.10321 7.52083 15.8949 7.52083 20.6837 12.3096C20.8546 12.4805 21.1308 12.4805 21.3017 12.3096C21.4726 12.1387 21.4726 11.8625 21.3017 11.6916C16.1729 6.56272 7.82653 6.56184 2.69678 11.6916Z" fill="#828282"/>
<path d="M11.9996 11.4766C9.45354 11.4766 7.06263 12.4657 5.26661 14.2613C5.0957 14.4322 5.0957 14.7084 5.26661 14.8793C5.43751 15.0502 5.71375 15.0502 5.88466 14.8793C7.51546 13.249 9.68695 12.3508 11.9996 12.3508C14.3123 12.3508 16.4838 13.249 18.1146 14.8793C18.1998 14.9646 18.3117 15.0074 18.4236 15.0074C18.5355 15.0074 18.6474 14.9646 18.7326 14.8793C18.9035 14.7084 18.9035 14.4322 18.7326 14.2613C16.937 12.4657 14.5457 11.4766 11.9996 11.4766Z" fill="#828282"/>
<path d="M11.9999 15.5887C10.4211 15.5887 9.13647 16.8734 9.13647 18.4526C9.13647 20.0318 10.4211 21.3164 11.9999 21.3164C13.5791 21.3164 14.8637 20.0318 14.8637 18.4526C14.8637 16.8734 13.5791 15.5887 11.9999 15.5887ZM11.9999 20.4418C10.9028 20.4418 10.0107 19.5493 10.0107 18.4522C10.0107 17.355 10.9032 16.4625 11.9999 16.4625C13.0966 16.4625 13.9895 17.355 13.9895 18.4522C13.9895 19.5493 13.097 20.4418 11.9999 20.4418Z" fill="#828282"/>
</g>
<defs>
<clipPath id="clip0">
<rect width="24" height="24" fill="white" transform="translate(0 0.76416)"/>
</clipPath>
</defs>
</svg>
