<svg width="24" height="25" viewBox="0 0 24 25" fill="none" xmlns="http://www.w3.org/2000/svg">
<g clip-path="url(#clip0)">
<path d="M17.625 0.396973H6.375C5.341 0.396973 4.5 1.23798 4.5 2.27197V20.647C4.5 21.681 5.341 22.522 6.375 22.522H6.84375V22.9907C6.84375 23.766 7.47473 24.397 8.25 24.397H8.71875C9.23584 24.397 9.65625 23.9766 9.65625 23.4595V22.522H14.3438V23.4595C14.3438 23.9766 14.7642 24.397 15.2812 24.397H15.75C16.5253 24.397 17.1562 23.766 17.1562 22.9907V22.522H17.625C18.659 22.522 19.5 21.681 19.5 20.647V2.27197C19.5 1.23798 18.659 0.396973 17.625 0.396973ZM8.71875 23.4595H8.25C7.99164 23.4595 7.78125 23.2491 7.78125 22.9907V22.522H8.71875L8.7193 23.4595C8.7193 23.4595 8.7193 23.4595 8.71875 23.4595ZM16.2188 22.9907C16.2188 23.2491 16.0084 23.4595 15.75 23.4595H15.2812V22.522H16.2188V22.9907ZM18.5625 20.647C18.5625 21.1641 18.1421 21.5845 17.625 21.5845H6.375C5.85791 21.5845 5.4375 21.1641 5.4375 20.647V9.39697H18.5625V20.647ZM18.5625 8.45947H5.4375V2.27197C5.4375 1.75488 5.85791 1.33447 6.375 1.33447H17.625C18.1421 1.33447 18.5625 1.75488 18.5625 2.27197V8.45947Z" fill="#828282"/>
<path d="M10.6021 7.52197H7.3208C6.80389 7.52197 6.3833 7.10138 6.3833 6.58447V6.11572C6.3833 5.34027 7.0141 4.70947 7.78955 4.70947H10.1333C10.9088 4.70947 11.5396 5.34027 11.5396 6.11572V6.58447C11.5396 7.10138 11.119 7.52197 10.6021 7.52197ZM7.78955 5.64697C7.53101 5.64697 7.3208 5.85718 7.3208 6.11572V6.58447H10.6022L10.6021 6.11572C10.6021 5.85718 10.3918 5.64697 10.1333 5.64697H7.78955Z" fill="#828282"/>
<path d="M10.1333 13.147H7.78955C7.0141 13.147 6.3833 12.5162 6.3833 11.7407V11.272C6.3833 10.7551 6.80389 10.3345 7.3208 10.3345H10.6021C11.119 10.3345 11.5396 10.7551 11.5396 11.272V11.7407C11.5396 12.5162 10.9088 13.147 10.1333 13.147ZM7.3208 11.272V11.7407C7.3208 11.9993 7.53101 12.2095 7.78955 12.2095H10.1333C10.3918 12.2095 10.6021 11.9993 10.6021 11.7407V11.272H7.3208Z" fill="#828282"/>
<path d="M17.1562 20.647C16.8973 20.647 16.6875 20.4371 16.6875 20.1782V16.4282C16.6875 16.1693 16.8973 15.9595 17.1562 15.9595C17.4152 15.9595 17.625 16.1693 17.625 16.4282V20.1782C17.625 20.4371 17.4152 20.647 17.1562 20.647Z" fill="#828282"/>
<path d="M17.1572 15.022C16.8983 15.022 16.6882 14.8121 16.6882 14.5532C16.6882 14.2943 16.8979 14.0845 17.1568 14.0845H17.1572C17.4161 14.0845 17.6259 14.2943 17.6259 14.5532C17.6259 14.8121 17.4161 15.022 17.1572 15.022Z" fill="#828282"/>
</g>
<defs>
<clipPath id="clip0">
<rect width="24" height="24" fill="white" transform="translate(0 0.396973)"/>
</clipPath>
</defs>
</svg>
