<svg width="24" height="25" viewBox="0 0 24 25" fill="none" xmlns="http://www.w3.org/2000/svg">
<g clip-path="url(#clip0)">
<path d="M24 6.78934C23.9988 6.74305 23.9896 6.69734 23.9729 6.65418C23.968 6.64305 23.9627 6.63191 23.9568 6.62137C23.9502 6.60555 23.9428 6.58992 23.9344 6.57488L22.3344 4.17488C22.26 4.06316 22.1344 3.99637 22 3.99695H2C1.86621 3.99695 1.74141 4.06375 1.66719 4.17488L0.0671875 6.57488C0.0587891 6.58992 0.0513672 6.60555 0.0447266 6.62137C0.0388672 6.63191 0.0335938 6.64305 0.028711 6.65418C0.0113281 6.69715 0.0015625 6.74285 0 6.78934V6.79695V9.19695C0 9.41785 0.179102 9.59695 0.4 9.59695H0.8V20.397C0.8 20.6179 0.979102 20.797 1.2 20.797H3.6C3.8209 20.797 4 20.6179 4 20.397V11.197H20V20.397C20 20.6179 20.1791 20.797 20.4 20.797H22.8C23.0209 20.797 23.2 20.6179 23.2 20.397V9.59695H23.6C23.8209 9.59695 24 9.41785 24 9.19695V6.79695C24 6.79422 24 6.79207 24 6.78934ZM2.21406 4.79695H21.7859L22.8527 6.39695H1.14727L2.21406 4.79695ZM22.4 19.997H20.8V10.797C20.8 10.5761 20.6209 10.397 20.4 10.397H3.6C3.3791 10.397 3.2 10.5761 3.2 10.797V19.997H1.6V9.59695H22.4V19.997ZM23.2 8.79695H0.8V7.19695H23.2V8.79695Z" fill="#828282"/>
</g>
<defs>
<clipPath id="clip0">
<rect width="24" height="24" fill="white" transform="translate(0 0.396973)"/>
</clipPath>
</defs>
</svg>
