<svg width="24" height="25" viewBox="0 0 24 25" fill="none" xmlns="http://www.w3.org/2000/svg">
<path d="M22.1256 6.02197C22.1245 5.12718 21.7686 4.26931 21.1359 3.6366C20.5032 3.00388 19.6453 2.64798 18.7506 2.64697H14.9154C14.1457 1.75382 12.481 1.14697 10.5006 1.14697C7.87114 1.14697 5.79543 2.21493 5.6406 3.60613C5.25622 3.99763 4.9191 4.57007 4.62533 5.27197H2.25055C2.18927 5.27196 2.12892 5.28697 2.07479 5.31568C2.02065 5.34439 1.97438 5.38593 1.94001 5.43667C1.90564 5.4874 1.88424 5.54578 1.87766 5.60671C1.87108 5.66763 1.87953 5.72924 1.90227 5.78614L3.40227 9.53614C3.4169 9.5725 3.43715 9.60633 3.46227 9.63641C2.7785 13.5148 2.63493 17.7183 2.62555 18.0103C2.62555 18.0123 2.62658 18.0141 2.62654 18.0161C2.62649 18.0181 2.62555 18.0199 2.62555 18.022C2.62591 18.4588 2.73531 18.8885 2.94383 19.2723C3.15235 19.6561 3.45339 19.9818 3.81964 20.2198C3.23935 20.4916 2.74839 20.9229 2.40413 21.4634C2.05987 22.0039 1.87654 22.6312 1.87555 23.272C1.87555 23.3714 1.91506 23.4668 1.98539 23.5371C2.05571 23.6075 2.15109 23.647 2.25055 23.647H18.7506C18.85 23.647 18.9454 23.6075 19.0157 23.5371C19.086 23.4668 19.1256 23.3714 19.1256 23.272C19.1246 22.6312 18.9412 22.0039 18.597 21.4634C18.2527 20.9229 17.7618 20.4916 17.1815 20.2198C17.5477 19.9818 17.8488 19.6561 18.0573 19.2723C18.2658 18.8885 18.3752 18.4588 18.3756 18.022C18.3756 18.0199 18.3744 18.0182 18.3744 18.0161C18.3744 18.0141 18.3755 18.0123 18.3754 18.0103C18.3727 17.9269 18.3586 17.5193 18.3247 16.897H18.7506C19.6453 16.896 20.5032 16.5401 21.1359 15.9073C21.7686 15.2746 22.1245 14.4168 22.1256 13.522V6.02197ZM10.5006 1.89697C12.5916 1.89697 14.1374 2.62794 14.5289 3.39697H6.47221C6.86371 2.62794 8.4095 1.89697 10.5006 1.89697ZM2.80443 6.02197H4.34399C4.09319 6.77393 3.88543 7.53956 3.72172 8.31514L2.80443 6.02197ZM18.3488 22.897H2.65227C2.74326 22.2725 3.0558 21.7017 3.53283 21.2886C4.00985 20.8755 4.61953 20.6478 5.25055 20.647H15.7506C16.3816 20.6478 16.9913 20.8755 17.4683 21.2886C17.9453 21.7017 18.2578 22.2725 18.3488 22.897ZM15.7506 19.897H5.25055C4.81851 19.8964 4.39987 19.7469 4.0652 19.4737C3.73053 19.2004 3.50029 18.8202 3.41329 18.397H17.5881C17.501 18.8202 17.2708 19.2005 16.936 19.4737C16.6013 19.747 16.1826 19.8965 15.7506 19.897ZM3.39093 17.647C3.43175 16.7402 3.56141 14.3621 3.88879 11.8301C4.26847 8.89255 4.74008 7.01727 5.20452 5.8176C5.21423 5.79826 5.22218 5.77808 5.22829 5.75732C5.55172 4.93743 5.87094 4.43924 6.15233 4.14697H14.8488C15.5409 4.86585 16.4613 6.79541 17.1123 11.8301C17.4397 14.3621 17.5693 16.7402 17.6102 17.647H3.39093ZM16.8701 6.68943C16.8708 6.68005 16.8756 6.67204 16.8756 6.66247V6.02197C16.8759 5.72371 16.9945 5.43775 17.2054 5.22685C17.4163 5.01594 17.7023 4.89731 18.0006 4.89697H18.7506C19.0488 4.89731 19.3348 5.01594 19.5457 5.22685C19.7566 5.43775 19.8752 5.72371 19.8756 6.02197V13.522C19.8752 13.8202 19.7566 14.1062 19.5457 14.3171C19.3348 14.528 19.0488 14.6466 18.7506 14.647H18.1672C17.9661 12.2779 17.583 9.11671 16.8701 6.68943ZM21.3756 13.522C21.3747 14.2179 21.0979 14.8851 20.6058 15.3772C20.1137 15.8693 19.4465 16.1462 18.7506 16.147H18.2797C18.2645 15.912 18.2474 15.6637 18.2275 15.397H18.7506C19.2477 15.3964 19.7242 15.1987 20.0757 14.8472C20.4272 14.4956 20.625 14.0191 20.6256 13.522V6.02197C20.625 5.52487 20.4272 5.0483 20.0757 4.69679C19.7242 4.34529 19.2477 4.14756 18.7506 4.14697H18.0006C17.6548 4.14816 17.3161 4.24516 17.0222 4.4272C16.7283 4.60925 16.4905 4.86921 16.3354 5.17822C16.0513 4.51893 15.7273 3.97986 15.3604 3.60604C15.3526 3.53555 15.34 3.46569 15.3224 3.39697H18.7506C19.4465 3.39778 20.1137 3.6746 20.6058 4.16671C21.0979 4.65882 21.3747 5.32603 21.3756 6.02197V13.522Z" fill="#828282"/>
<path d="M11.625 21.397H9.375C9.27554 21.397 9.18016 21.4365 9.10983 21.5068C9.03951 21.5771 9 21.6725 9 21.772C9 21.8714 9.03951 21.9668 9.10983 22.0371C9.18016 22.1075 9.27554 22.147 9.375 22.147H11.625C11.7245 22.147 11.8198 22.1075 11.8902 22.0371C11.9605 21.9668 12 21.8714 12 21.772C12 21.6725 11.9605 21.5771 11.8902 21.5068C11.8198 21.4365 11.7245 21.397 11.625 21.397Z" fill="#828282"/>
</svg>
