<svg width="24" height="25" viewBox="0 0 24 25" fill="none" xmlns="http://www.w3.org/2000/svg">
<g clip-path="url(#clip0)">
<g clip-path="url(#clip1)">
<path d="M17.2075 24.397C16.1181 24.397 15.2325 23.5105 15.2325 22.4212L15.8023 10.449C14.1431 9.82655 13.1628 8.02012 13.1628 5.54621C13.1628 2.70688 14.9769 0.396973 17.2075 0.396973C19.4373 0.396973 21.2521 2.70688 21.2521 5.54621C21.2521 8.02012 20.2718 9.82579 18.6134 10.449L19.1825 22.4036C19.1825 23.5105 18.2968 24.397 17.2075 24.397ZM17.2075 1.15982C15.398 1.15982 13.9257 3.12721 13.9257 5.54621C13.9257 7.79966 14.8136 9.39402 16.2997 9.80977C16.4713 9.85783 16.5865 10.0173 16.5781 10.195L15.9945 22.4395C15.9945 23.091 16.5384 23.6341 17.2075 23.6341C17.8757 23.6341 18.4196 23.0902 18.4196 22.4212L17.8368 10.195C17.8284 10.018 17.9436 9.85783 18.1153 9.80977C19.6021 9.39402 20.4892 7.79966 20.4892 5.54621C20.4892 3.12721 19.0169 1.15982 17.2075 1.15982Z" fill="#828282"/>
<path d="M6.79219 24.397C5.70284 24.397 4.81717 23.5105 4.81717 22.4212L5.38702 10.4422C3.8186 9.87461 2.74756 8.37714 2.74756 6.69963V0.778397C2.74756 0.567851 2.91844 0.396973 3.12898 0.396973H4.837C5.04755 0.396973 5.21843 0.567851 5.21843 0.778397V5.89788H5.64181V0.778397C5.64181 0.567851 5.81269 0.396973 6.02323 0.396973H7.56114C7.77168 0.396973 7.94256 0.567851 7.94256 0.778397V5.89788H8.36594V0.778397C8.36594 0.567851 8.53682 0.396973 8.74737 0.396973H10.4554C10.6659 0.396973 10.8368 0.567851 10.8368 0.778397V6.69963C10.8368 8.37714 9.76577 9.87461 8.19735 10.4422L8.7672 22.4036C8.7672 23.5105 7.88153 24.397 6.79219 24.397ZM3.51041 1.15982V6.69963C3.51041 8.13837 4.48609 9.41385 5.88363 9.80061C6.05527 9.84867 6.17123 10.0073 6.16283 10.1859L5.58002 22.4395C5.58002 23.091 6.12393 23.6341 6.79219 23.6341C7.46044 23.6341 8.00435 23.0902 8.00435 22.4212L7.42154 10.1859C7.41314 10.0081 7.5291 9.84867 7.70074 9.80061C9.09828 9.41309 10.074 8.1376 10.074 6.69963V1.15982H9.12879V6.2793C9.12879 6.48985 8.95791 6.66073 8.74737 6.66073H7.56114C7.35059 6.66073 7.17971 6.48985 7.17971 6.2793V1.15982H6.40466V6.2793C6.40466 6.48985 6.23378 6.66073 6.02323 6.66073H4.83777C4.62722 6.66073 4.45634 6.48985 4.45634 6.2793V1.15982H3.51041Z" fill="#828282"/>
</g>
</g>
<defs>
<clipPath id="clip0">
<rect width="24" height="24" fill="white" transform="translate(0 0.396973)"/>
</clipPath>
<clipPath id="clip1">
<rect width="24" height="24" fill="white" transform="translate(0 0.396973)"/>
</clipPath>
</defs>
</svg>
