<svg width="24" height="25" viewBox="0 0 24 25" fill="none" xmlns="http://www.w3.org/2000/svg">
<g clip-path="url(#clip0)">
<path d="M21.2707 11.1642V4.49104C21.2707 3.1341 20.1668 2.03015 18.8099 2.03015H5.19005C3.83311 2.03015 2.72925 3.1341 2.72925 4.49104V11.1642C1.16569 11.5403 0 12.9497 0 14.627V19.6043C0 19.9992 0.320109 20.3193 0.714984 20.3193H2.7292V22.0486C2.7292 22.4435 3.04931 22.7636 3.44419 22.7636C3.83906 22.7636 4.15917 22.4435 4.15917 22.0486V20.3193H19.8407V22.0486C19.8407 22.4435 20.1608 22.7636 20.5557 22.7636C20.9506 22.7636 21.2707 22.4435 21.2707 22.0486V20.3193H23.2849C23.6798 20.3193 23.9999 19.9992 23.9999 19.6043V14.627C24 12.9497 22.8343 11.5403 21.2707 11.1642ZM4.15922 4.49104C4.15922 3.92264 4.62169 3.46017 5.19005 3.46017H18.8099C19.3783 3.46017 19.8408 3.92264 19.8408 4.49104V11.0649H17.478V9.93689C17.478 8.06798 15.9576 6.54754 14.0887 6.54754H9.91139C8.04248 6.54754 6.52205 8.06803 6.52205 9.93689V11.0648H4.15922V4.49104ZM16.0481 9.93689V11.0648H7.95192V9.93689C7.95192 8.85646 8.83087 7.97751 9.9113 7.97751H14.0887C15.169 7.97746 16.0481 8.85651 16.0481 9.93689ZM1.42997 18.8894V14.627C1.42997 13.4513 2.38645 12.4949 3.56212 12.4949H20.4378C21.6135 12.4949 22.5699 13.4513 22.5699 14.627V18.8894H1.42997Z" fill="#828282" stroke="white" stroke-width="0.5"/>
</g>
<defs>
<clipPath id="clip0">
<rect width="24" height="24" fill="white" transform="translate(0 0.396973)"/>
</clipPath>
</defs>
</svg>
