<svg width="24" height="25" viewBox="0 0 24 25" fill="none" xmlns="http://www.w3.org/2000/svg">
<g clip-path="url(#clip0)">
<path d="M18.3227 0.396973H5.67802C5.17888 0.396973 4.76294 0.812917 4.76294 1.31205V21.6933C4.76294 22.1925 5.17888 22.6084 5.67802 22.6084H5.76121V23.981C5.76121 24.2306 5.92758 24.397 6.17715 24.397H8.29847C8.54803 24.397 8.71441 24.2306 8.71441 23.981V22.6084H15.3279V23.981C15.3279 24.2306 15.4943 24.397 15.7439 24.397H17.8236C18.0732 24.397 18.2395 24.2306 18.2395 23.981V22.6084H18.3227C18.8219 22.6084 19.2378 22.1925 19.2378 21.6933V1.31205C19.2378 0.812917 18.8219 0.396973 18.3227 0.396973ZM7.88252 23.6067H6.5931V22.65H7.88252V23.6067ZM17.4077 23.6067H16.1182V22.65H17.4077V23.6067ZM18.4475 21.7349H18.4059C18.4059 21.7765 18.3643 21.8181 18.3227 21.8181H17.8236H15.7023H8.29847H6.17715H5.67802C5.63642 21.8181 5.59483 21.7765 5.59483 21.7349V1.35365C5.59483 1.31205 5.63642 1.27046 5.67802 1.27046H18.3643C18.4059 1.27046 18.4475 1.31205 18.4475 1.35365V21.7349Z" fill="#828282"/>
<path d="M16.3673 1.89429H7.42451C6.92538 1.89429 6.55103 2.31023 6.55103 2.76777V5.38822C6.55103 5.88735 6.92538 6.3033 7.42451 6.3033H16.3673C16.8665 6.3033 17.2408 5.88735 17.2408 5.42982V2.76777C17.2408 2.26864 16.8249 1.89429 16.3673 1.89429ZM16.4089 5.38822C16.4089 5.42982 16.3673 5.42982 16.3673 5.42982H7.42451C7.38292 5.42982 7.38292 5.38822 7.38292 5.38822V2.76777C7.38292 2.72618 7.42451 2.72618 7.42451 2.72618H16.3673C16.4089 2.72618 16.4089 2.76777 16.4089 2.76777V5.38822Z" fill="#828282"/>
<path d="M10.8349 6.92725H7.13301C6.63387 6.92725 6.25952 7.34319 6.25952 7.80073V20.2375C6.25952 20.7366 6.67547 21.111 7.13301 21.111H10.8349C11.3341 21.111 11.7084 20.695 11.7084 20.2375V7.84232C11.7084 7.34319 11.3341 6.92725 10.8349 6.92725ZM10.8765 20.2791C10.8765 20.3207 10.8349 20.3207 10.8349 20.3207H7.13301C7.09141 20.3207 7.09141 20.2791 7.09141 20.2791V7.84232C7.09141 7.80073 7.13301 7.80073 7.13301 7.80073H10.8349C10.8765 7.80073 10.8765 7.84232 10.8765 7.84232V20.2791Z" fill="#828282"/>
<path d="M16.8254 6.92725H13.1235C12.6243 6.92725 12.25 7.34319 12.25 7.80073V20.2375C12.25 20.7366 12.6659 21.111 13.1235 21.111H16.8254C17.3245 21.111 17.6989 20.695 17.6989 20.2375V7.84232C17.6989 7.34319 17.2829 6.92725 16.8254 6.92725ZM16.867 20.2791C16.867 20.3207 16.8254 20.3207 16.8254 20.3207H13.1235C13.0819 20.3207 13.0819 20.2791 13.0819 20.2791V7.84232C13.0819 7.80073 13.1235 7.80073 13.1235 7.80073H16.8254C16.867 7.80073 16.867 7.84232 16.867 7.84232V20.2791Z" fill="#828282"/>
<path d="M13.0391 3.68298H10.9594C10.7098 3.68298 10.5435 3.84936 10.5435 4.09893C10.5435 4.3485 10.7098 4.51488 10.9594 4.51488H13.0391C13.2887 4.51488 13.4551 4.3485 13.4551 4.09893C13.4551 3.84936 13.2887 3.68298 13.0391 3.68298Z" fill="#828282"/>
<path d="M9.91961 12.5425C9.67004 12.5425 9.50366 12.7089 9.50366 12.9584V15.0382C9.50366 15.2877 9.67004 15.4541 9.91961 15.4541C10.1692 15.4541 10.3356 15.2877 10.3356 15.0382V12.9584C10.3356 12.7089 10.1692 12.5425 9.91961 12.5425Z" fill="#828282"/>
<path d="M14.079 12.5425C13.8295 12.5425 13.6631 12.7089 13.6631 12.9584V15.0382C13.6631 15.2877 13.8295 15.4541 14.079 15.4541C14.3286 15.4541 14.495 15.2877 14.495 15.0382V12.9584C14.495 12.7089 14.287 12.5425 14.079 12.5425Z" fill="#828282"/>
</g>
<defs>
<clipPath id="clip0">
<rect width="24" height="24" fill="white" transform="translate(0 0.396973)"/>
</clipPath>
</defs>
</svg>
