<svg width="23" height="23" viewBox="0 0 23 23" fill="none" xmlns="http://www.w3.org/2000/svg">
<g clip-path="url(#clip0)">
<path d="M16.9992 0.90155L14.1463 0.896973C10.9411 0.896973 8.86983 3.02206 8.86983 6.3112V8.80752H6.00136C5.75349 8.80752 5.55276 9.00848 5.55276 9.25634V12.8732C5.55276 13.1211 5.75372 13.3218 6.00136 13.3218H8.86983V22.4484C8.86983 22.6963 9.07055 22.897 9.31842 22.897H13.061C13.3088 22.897 13.5095 22.696 13.5095 22.4484V13.3218H16.8635C17.1113 13.3218 17.312 13.1211 17.312 12.8732L17.3134 9.25634C17.3134 9.13733 17.266 9.02335 17.182 8.93913C17.098 8.8549 16.9836 8.80752 16.8646 8.80752H13.5095V6.69136C13.5095 5.67425 13.7519 5.15791 15.0769 5.15791L16.9987 5.15722C17.2464 5.15722 17.4471 4.95627 17.4471 4.70863V1.35014C17.4471 1.10273 17.2466 0.902008 16.9992 0.90155Z" fill="#24A3FF"/>
</g>
<defs>
<clipPath id="clip0">
<rect width="22.0002" height="22" fill="white" transform="translate(0.500061 0.896973)"/>
</clipPath>
</defs>
</svg>
