<svg width="23" height="23" viewBox="0 0 23 23" fill="none" xmlns="http://www.w3.org/2000/svg">
<g clip-path="url(#clip0)">
<path d="M15.6245 0.896973H7.37445C3.57808 0.896973 0.499451 3.9756 0.499451 7.77197V16.022C0.499451 19.8183 3.57808 22.897 7.37445 22.897H15.6245C19.4208 22.897 22.4995 19.8183 22.4995 16.022V7.77197C22.4995 3.9756 19.4208 0.896973 15.6245 0.896973ZM20.437 16.022C20.437 18.6757 18.2782 20.8345 15.6245 20.8345H7.37445C4.7207 20.8345 2.56195 18.6757 2.56195 16.022V7.77197C2.56195 5.11822 4.7207 2.95947 7.37445 2.95947H15.6245C18.2782 2.95947 20.437 5.11822 20.437 7.77197V16.022Z" fill="#24A3FF"/>
<path d="M11.4995 6.39697C8.46208 6.39697 5.99945 8.8596 5.99945 11.897C5.99945 14.9343 8.46208 17.397 11.4995 17.397C14.5368 17.397 16.9995 14.9343 16.9995 11.897C16.9995 8.8596 14.5368 6.39697 11.4995 6.39697ZM11.4995 15.3345C9.6047 15.3345 8.06195 13.7917 8.06195 11.897C8.06195 10.0008 9.6047 8.45947 11.4995 8.45947C13.3942 8.45947 14.937 10.0008 14.937 11.897C14.937 13.7917 13.3942 15.3345 11.4995 15.3345Z" fill="#24A3FF"/>
<path d="M17.412 6.71745C17.8168 6.71745 18.1449 6.38933 18.1449 5.98458C18.1449 5.57983 17.8168 5.25171 17.412 5.25171C17.0073 5.25171 16.6792 5.57983 16.6792 5.98458C16.6792 6.38933 17.0073 6.71745 17.412 6.71745Z" fill="#24A3FF"/>
</g>
<defs>
<clipPath id="clip0">
<rect width="22" height="22" fill="white" transform="translate(0.499451 0.896973)"/>
</clipPath>
</defs>
</svg>
