<svg width="23" height="23" viewBox="0 0 23 23" fill="none" xmlns="http://www.w3.org/2000/svg">
<g clip-path="url(#clip0)">
<path fill-rule="evenodd" clip-rule="evenodd" d="M19.4344 13.5882C20.1642 14.3006 20.9344 14.971 21.5889 15.7553C21.8781 16.1039 22.1518 16.4636 22.3612 16.8681C22.6579 17.4431 22.3892 18.0758 21.8736 18.1102L18.6686 18.1087C17.8419 18.1773 17.1825 17.8445 16.628 17.2794C16.1843 16.8274 15.7734 16.3463 15.3467 15.8791C15.1717 15.6881 14.9887 15.5084 14.7699 15.3664C14.3324 15.0824 13.9526 15.1693 13.7026 15.6257C13.4479 16.0898 13.3902 16.6037 13.3652 17.121C13.3308 17.8757 13.1027 18.0741 12.3446 18.1087C10.7245 18.1851 9.18687 17.9399 7.75849 17.1226C6.49918 16.4021 5.52264 15.385 4.67267 14.2334C3.01775 11.9911 1.75042 9.52723 0.611382 6.99429C0.354995 6.42362 0.542497 6.11728 1.17215 6.10644C2.21772 6.08613 3.26315 6.08757 4.30995 6.10499C4.7349 6.11121 5.01623 6.35495 5.18031 6.75641C5.74599 8.14735 6.43817 9.4707 7.30701 10.6973C7.53839 11.0239 7.77432 11.3505 8.11029 11.5804C8.48197 11.8349 8.76496 11.7505 8.93981 11.3365C9.05076 11.0739 9.09934 10.7912 9.12435 10.51C9.20718 9.54263 9.2181 8.57693 9.07281 7.61296C8.98361 7.01135 8.64475 6.62189 8.04444 6.50804C7.73811 6.45 7.78372 6.33601 7.93204 6.16116C8.18966 5.85959 8.43195 5.67188 8.91495 5.67188H12.5371C13.1073 5.78442 13.234 6.04059 13.3121 6.61437L13.3152 10.6379C13.3089 10.86 13.4261 11.5191 13.8262 11.6662C14.1464 11.7708 14.3575 11.5146 14.5496 11.3116C15.4169 10.3912 16.0358 9.30337 16.5888 8.17698C16.8342 7.6817 17.0452 7.16734 17.2497 6.65341C17.4012 6.27204 17.6389 6.08439 18.0685 6.09271L21.5546 6.09581C21.658 6.09581 21.7626 6.09733 21.8627 6.11446C22.4501 6.21458 22.6111 6.46728 22.4297 7.04091C22.1438 7.94091 21.5876 8.69092 21.0437 9.44439C20.4623 10.2488 19.8406 11.0257 19.264 11.8349C18.7344 12.5739 18.7764 12.9464 19.4344 13.5882Z" fill="#24A3FF"/>
</g>
<defs>
<clipPath id="clip0">
<rect width="22" height="22" fill="white" transform="translate(0.500275 0.896973)"/>
</clipPath>
</defs>
</svg>
