<svg width="23" height="23" viewBox="0 0 23 23" fill="none" xmlns="http://www.w3.org/2000/svg">
<g clip-path="url(#clip0)">
<path d="M10.4173 16.3932C8.71181 16.2153 7.17404 15.7953 5.85746 14.7656C5.6941 14.6375 5.52544 14.514 5.37636 14.3709C4.8001 13.8174 4.74203 13.1836 5.19802 12.5303C5.58811 11.9714 6.24294 11.8218 6.92358 12.1428C7.05537 12.205 7.18095 12.2827 7.30122 12.3661C9.75489 14.052 13.1256 14.0985 15.5885 12.4419C15.8325 12.2548 16.0933 12.1022 16.3956 12.0244C16.9834 11.8734 17.5315 12.0893 17.847 12.6036C18.2073 13.1909 18.2027 13.7642 17.7587 14.2202C17.0776 14.9193 16.2585 15.425 15.3484 15.778C14.4878 16.1116 13.5452 16.2796 12.6122 16.3911C12.753 16.5444 12.8194 16.6197 12.9074 16.7082C14.1742 17.981 15.4465 19.2485 16.7092 20.5252C17.1394 20.9602 17.2292 21.4996 16.9924 22.0056C16.7334 22.5586 16.1537 22.9224 15.5852 22.8835C15.2251 22.8586 14.9442 22.6793 14.6947 22.4279C13.7387 21.466 12.7648 20.5217 11.8281 19.5416C11.5556 19.2565 11.4245 19.3105 11.1839 19.5579C10.2222 20.548 9.24475 21.5229 8.26158 22.4922C7.82011 22.9275 7.29477 23.0058 6.7828 22.7572C6.23856 22.4934 5.89225 21.9379 5.91898 21.3796C5.93741 21.0019 6.12312 20.7134 6.38234 20.4547C7.63601 19.2029 8.88623 17.9478 10.1369 16.6939C10.2196 16.6105 10.2968 16.522 10.4173 16.3932Z" fill="#24A3FF"/>
<path d="M11.4562 12.0326C8.4136 12.0222 5.91869 9.4999 5.93643 6.45247C5.95395 3.37139 8.45046 0.888469 11.523 0.896995C14.6018 0.905289 17.073 3.42393 17.0575 6.53703C17.0419 9.57824 14.5297 12.0432 11.4562 12.0326ZM14.2214 6.45984C14.2161 4.94672 13.011 3.74213 11.5009 3.74074C9.9781 3.73913 8.76221 4.96562 8.77396 6.49256C8.78525 7.99992 10.0007 9.19599 11.5149 9.19046C13.0246 9.18516 14.2264 7.97273 14.2214 6.45984Z" fill="#24A3FF"/>
</g>
<defs>
<clipPath id="clip0">
<rect width="22" height="22" fill="white" transform="translate(0.500183 0.896973)"/>
</clipPath>
</defs>
</svg>
