<svg width="81" height="81" viewBox="0 0 81 81" fill="none" xmlns="http://www.w3.org/2000/svg">
<g clip-path="url(#clip0)">
<path d="M16.8594 1.36182H64.3594C68.3949 1.36182 71.6719 4.61791 71.6719 8.61059V33.5616C71.6719 34.1376 71.2001 34.6114 70.6094 34.6114C70.0187 34.6114 69.5469 34.1376 69.5469 33.5616V8.61059C69.5469 5.76699 67.2163 3.46132 64.3594 3.46132H16.8594C14.0024 3.46132 11.6719 5.76699 11.6719 8.61059V72.4605C11.6719 75.3041 14.0024 77.6097 16.8594 77.6097H64.3594C67.2163 77.6097 69.5469 75.3041 69.5469 72.4605V47.5094C69.5469 46.9335 70.0187 46.4597 70.6094 46.4597C71.2001 46.4597 71.6719 46.9335 71.6719 47.5094V72.4605C71.6719 76.4531 68.3949 79.7092 64.3594 79.7092H16.8594C12.8238 79.7092 9.54688 76.4531 9.54688 72.4605V8.61059C9.54688 4.61791 12.8238 1.36182 16.8594 1.36182Z" fill="#24A3FF" stroke="#24A3FF"/>
<path d="M53.9219 10.1603V9.6603H53.4219H27.7969H27.2969V10.1603V16.9792V17.4792H27.7969H53.4219H53.9219V16.9792V10.1603ZM25.1719 10.1603V9.6603H24.6719H18.4219H17.9219V10.1603V38.9857V39.4857H18.4219H27.8956H28.3378L28.3919 39.0469C29.1346 33.0187 34.3268 28.3275 40.6094 28.3275C46.8919 28.3275 52.0841 33.0187 52.8269 39.0469L52.881 39.4857H53.3231H62.7969H63.2969V38.9857V10.1603V9.6603H62.7969H56.5469H56.0469V10.1603V18.529C56.0469 19.1049 55.5751 19.5787 54.9844 19.5787H26.2344C25.6437 19.5787 25.1719 19.1049 25.1719 18.529V10.1603ZM30.5563 38.9047L30.4609 39.4857H31.0497H50.1691H50.7579L50.6625 38.9047C49.8735 34.101 45.6654 30.427 40.6094 30.427C35.5534 30.427 31.3453 34.101 30.5563 38.9047ZM50.6625 42.1663L50.7579 41.5852H50.1691H31.0497H30.4609L30.5563 42.1663C31.3453 46.97 35.5534 50.644 40.6094 50.644C45.6654 50.644 49.8735 46.97 50.6625 42.1663ZM27.2969 70.9107V71.4107H27.7969H53.4219H53.9219V70.9107V64.0917V63.5917H53.4219H27.7969H27.2969V64.0917V70.9107ZM56.0469 70.9107V71.4107H56.5469H62.7969H63.2969V70.9107V42.0852V41.5852H62.7969H53.3231H52.881L52.8269 42.0241C52.0841 48.0523 46.8919 52.7435 40.6094 52.7435C34.3268 52.7435 29.1346 48.0523 28.3919 42.0241L28.3378 41.5852H27.8956H18.4219H17.9219V42.0852V70.9107V71.4107H18.4219H24.6719H25.1719V70.9107V62.542C25.1719 61.9661 25.6437 61.4922 26.2344 61.4922H54.9844C55.5751 61.4922 56.0469 61.9661 56.0469 62.542V70.9107ZM26.2344 7.56079H54.9844H64.3594C64.9501 7.56079 65.4219 8.03461 65.4219 8.61055V72.4604C65.4219 73.0364 64.9501 73.5102 64.3594 73.5102H54.9844H26.2344H16.8594C16.2687 73.5102 15.7969 73.0364 15.7969 72.4604V8.61055C15.7969 8.03461 16.2687 7.56079 16.8594 7.56079H26.2344Z" fill="#24A3FF" stroke="#24A3FF"/>
<path d="M71.3619 39.7938L71.362 39.7939C71.5585 39.9889 71.6719 40.2611 71.6719 40.5346C71.6719 40.8099 71.5583 41.0821 71.362 41.2768C71.1662 41.471 70.8901 41.5844 70.6094 41.5844C70.3289 41.5844 70.053 41.4712 69.8573 41.2773C69.6598 41.0801 69.5469 40.8089 69.5469 40.5346C69.5469 40.2621 69.6596 39.9909 69.8573 39.7935C70.0539 39.5987 70.3301 39.4849 70.6094 39.4849C70.889 39.4849 71.1653 39.5988 71.3619 39.7938Z" fill="#24A3FF" stroke="#24A3FF"/>
</g>
<defs>
<clipPath id="clip0">
<rect width="80" height="79.3474" fill="#24A3FF" transform="translate(0.609375 0.861816)"/>
</clipPath>
</defs>
</svg>
