<svg width="81" height="80" viewBox="0 0 81 80" fill="none" xmlns="http://www.w3.org/2000/svg">
<g clip-path="url(#clip0)">
<path d="M48 29.8398V29.9106L48.0197 29.9787L52.6841 46.1052C52.8861 46.8873 53.6471 47.3994 54.4999 47.3994H55.1666C57.161 47.3994 58.6665 48.8985 58.6665 50.8667V65.4138C58.6665 67.382 57.161 68.8812 55.1664 68.8812H54.6664V69.3812V75.9934C54.6664 77.9616 53.1609 79.4607 51.1665 79.4607H48.4998C46.5054 79.4607 44.9999 77.9616 44.9999 75.9934V69.3812V68.8812H44.4999H15.1665H14.6665V69.3812V75.9934C14.6665 77.9616 13.161 79.4607 11.1666 79.4607H8.49989C6.50548 79.4607 4.99994 77.9616 4.99994 75.9934V69.3812V68.8812H4.49994C2.50553 68.8812 1 67.382 1 65.4138V50.8667C1 48.8985 2.50553 47.3994 4.49994 47.3994H5.16665C5.93653 47.3994 6.61857 46.8489 6.94637 46.1989L6.96731 46.1574L6.98023 46.1127L11.6469 29.9787L11.6666 29.9106V29.8398V29.8167C12.6742 27.6675 14.8679 26.2402 17.2999 26.2402H42.3666C44.7987 26.2402 46.9923 27.6675 48 29.8167V29.8398ZM7.16679 68.8812H6.66679V69.3812V75.9934C6.66679 76.505 6.84099 76.9696 7.18132 77.3072C7.52128 77.6444 7.98766 77.8158 8.50005 77.8158H11.1667C11.6791 77.8158 12.1455 77.6444 12.4855 77.3072C12.7106 77.0838 12.8631 76.8048 12.9405 76.4934H13.0002V75.9934V69.3812V68.8812H12.5002H7.16679ZM47.1667 68.8812H46.6667V69.3812V75.9934C46.6667 76.505 46.8409 76.9696 47.1812 77.3072C47.5212 77.6444 47.9876 77.8158 48.5 77.8158H51.1666C51.679 77.8158 52.1454 77.6444 52.4854 77.3072C52.7106 77.0838 52.863 76.8048 52.9404 76.4934H53.0001V75.9934V69.3812V68.8812H52.5001H47.1667ZM57 65.4138V64.9138H56.9999V50.8667C56.9999 50.3552 56.8256 49.8906 56.4853 49.553C56.1454 49.2158 55.679 49.0444 55.1666 49.0444H54.4999C52.994 49.0444 51.5837 48.0052 51.112 46.4907L46.4466 30.4931L46.4363 30.458L46.4211 30.4248C45.6635 28.7713 44.0046 27.8849 42.3666 27.8849H17.2999C15.4959 27.8849 13.9981 28.9311 13.2535 30.408L13.2328 30.449L13.22 30.4931L8.55455 46.4907C8.08288 48.0053 6.67259 49.0444 5.16665 49.0444H4.49994C3.98756 49.0444 3.52118 49.2158 3.18122 49.553C2.84089 49.8906 2.66668 50.3552 2.66668 50.8667V65.4138C2.66668 65.9254 2.84089 66.39 3.18121 66.7276C3.52118 67.0648 3.98756 67.2362 4.49994 67.2362H5.83336H13.8333H45.8334H53.8335H55.1668C55.6791 67.2362 56.1455 67.0648 56.4855 66.7276C56.8258 66.39 57 65.9254 57 65.4138Z" fill="white" stroke="white"/>
<path d="M7.66582 57.479C7.66582 54.8495 9.83806 52.6891 12.4992 52.6891C15.1603 52.6891 17.3325 54.8495 17.3325 57.479C17.3325 60.1084 15.1603 62.2688 12.4992 62.2688C9.83806 62.2688 7.66582 60.1084 7.66582 57.479ZM9.3325 57.479C9.3325 59.2137 10.7602 60.6239 12.4992 60.6239C14.2382 60.6239 15.6659 59.2137 15.6659 57.479C15.6659 55.7442 14.2382 54.334 12.4992 54.334C10.7602 54.334 9.3325 55.7442 9.3325 57.479Z" fill="white" stroke="white"/>
<path d="M42.333 57.479C42.333 54.8495 44.5052 52.6891 47.1663 52.6891C49.8273 52.6891 51.9997 54.8495 51.9997 57.479C51.9997 60.1084 49.8275 62.2688 47.1663 62.2688C44.5052 62.2688 42.333 60.1084 42.333 57.479ZM43.9997 57.479C43.9997 59.2137 45.4274 60.6239 47.1663 60.6239C48.9051 60.6239 50.333 59.2137 50.333 57.479C50.333 55.7442 48.9053 54.334 47.1663 54.334C45.4274 54.334 43.9997 55.7442 43.9997 57.479Z" fill="white" stroke="white"/>
<path d="M27.1653 59.3013H32.4987C32.7863 59.3013 32.9865 59.3943 33.1132 59.52C33.2395 59.6453 33.332 59.8419 33.332 60.1237C33.332 60.4056 33.2395 60.6022 33.1132 60.7275C32.9865 60.8531 32.7863 60.9461 32.4987 60.9461H27.1653C26.8777 60.9461 26.6775 60.8531 26.5508 60.7275C26.4245 60.6022 26.3321 60.4056 26.3321 60.1237C26.3321 59.8418 26.4245 59.6453 26.5508 59.52C26.6775 59.3943 26.8777 59.3013 27.1653 59.3013Z" fill="white" stroke="white"/>
<path d="M35.9999 54.8339V54.834C35.9999 55.1159 35.9075 55.3125 35.7812 55.4377C35.6545 55.5634 35.4542 55.6564 35.1666 55.6564H24.4999C24.2123 55.6564 24.0121 55.5634 23.8854 55.4377C23.7591 55.3125 23.6666 55.1159 23.6666 54.834C23.6666 54.5521 23.7591 54.3555 23.8854 54.2302C24.0121 54.1046 24.2123 54.0116 24.4999 54.0116H35.1666C35.4544 54.0116 35.6546 54.1046 35.7813 54.2302C35.9076 54.3555 36 54.552 35.9999 54.8339Z" fill="white" stroke="white"/>
<path d="M44.8245 43.6133L44.8223 43.606L41.6222 33.0262L41.6188 33.015L41.6159 33.0037C41.4109 32.1905 40.5626 31.53 39.5674 31.53H20.2342C19.2544 31.53 18.5108 32.0486 18.177 33.0338L14.9794 43.606L14.9772 43.6133L14.9747 43.6205C14.7582 44.2647 14.872 45.0093 15.2899 45.5276L44.8245 43.6133ZM44.8245 43.6133L44.8269 43.6205M44.8245 43.6133L44.8269 43.6205M44.8269 43.6205C45.0435 44.2648 44.9298 45.0094 44.5117 45.5277C44.0664 46.0797 43.4058 46.3996 42.7675 46.3996H17.0342M44.8269 43.6205L17.0342 46.3996M17.0342 46.3996C16.3959 46.3996 15.7353 46.0796 15.29 45.5277L17.0342 46.3996ZM20.2342 33.1749H19.863L19.7556 33.5302L16.5556 44.1099L16.3606 44.7547H17.0342H42.7675H43.4411L43.2461 44.1099L40.0461 33.5302L39.9387 33.1749H39.5675H20.2342Z" fill="white" stroke="white"/>
<path d="M66.3303 25.74V25.24H65.8303H56.497C56.2094 25.24 56.0092 25.1469 55.8825 25.0213C55.7562 24.896 55.6638 24.6994 55.6638 24.4176V1.93567C55.6638 1.65379 55.7562 1.4572 55.8825 1.33192C56.0092 1.20629 56.2094 1.11328 56.497 1.11328H79.1635C79.4512 1.11328 79.6515 1.20629 79.7782 1.33195C79.9045 1.45725 79.997 1.65383 79.997 1.93567V24.4176C79.997 24.6994 79.9045 24.896 79.7782 25.0213C79.6515 25.1469 79.4513 25.24 79.1637 25.24H68.497H67.997V25.74V66.7362V67.2362H68.497H71.1637C71.4513 67.2362 71.6515 67.3292 71.7782 67.4549C71.9045 67.5802 71.9969 67.7768 71.9969 68.0586V72.026V72.526H72.4969H75.1636C75.4512 72.526 75.6515 72.619 75.7781 72.7446C75.9044 72.8699 75.9969 73.0665 75.9969 73.3484V78.6382C75.9969 78.9201 75.9044 79.1167 75.7781 79.242C75.6515 79.3676 75.4512 79.4606 75.1636 79.4606H59.1637C58.8761 79.4606 58.6759 79.3676 58.5492 79.242C58.4229 79.1167 58.3305 78.9201 58.3305 78.6382V73.3484C58.3305 73.0665 58.4229 72.8699 58.5492 72.7446C58.6759 72.619 58.8761 72.526 59.1637 72.526H61.8304H62.3304V72.026V68.0586C62.3304 67.7768 62.4228 67.5802 62.5491 67.4549C62.6758 67.3292 62.876 67.2362 63.1636 67.2362H65.8303H66.3303V66.7362V25.74ZM59.997 77.316V77.816H60.497H73.8302H73.8304H74.3304V77.316V74.6711V74.1711H73.8304H71.1637H63.1636H60.497H59.997V74.6711V77.316ZM69.8303 72.5261H70.3303V72.0261V69.3812V68.8812H69.8303H64.4969H63.9969V69.3812V72.0261V72.5261H64.4969H69.8303ZM77.8303 23.5952H78.3303V23.0952V3.25822V2.75822H77.8303H57.8303H57.3303V3.25822V23.0952V23.5952H57.8303H77.8303Z" fill="white" stroke="white"/>
<path d="M67.1662 15.9828H66.6662V16.4828V19.1279C66.6662 19.4098 66.5738 19.6063 66.4475 19.7316C66.3208 19.8573 66.1206 19.9503 65.833 19.9503C65.5454 19.9503 65.3451 19.8573 65.2184 19.7315C65.092 19.6062 64.9995 19.4095 64.9995 19.1276V15.1602V7.22541C64.9995 6.94352 65.092 6.74694 65.2183 6.62166C65.345 6.49602 65.5452 6.40302 65.8328 6.40302H68.4995C71.1606 6.40302 73.3329 8.56341 73.3329 11.1929C73.3329 13.8224 71.1606 15.9828 68.4995 15.9828H67.1662ZM66.6662 13.838V14.338H67.1662H68.4995C70.2385 14.338 71.6662 12.9278 71.6662 11.1931C71.6662 9.45832 70.2385 8.04811 68.4995 8.04811H67.1662H66.6662V8.54811V13.838Z" fill="white" stroke="white"/>
</g>
<defs>
<clipPath id="clip0">
<rect width="80" height="79.3477" fill="white" transform="translate(0.5 0.613281)"/>
</clipPath>
</defs>
</svg>
