<svg width="81" height="81" viewBox="0 0 81 81" fill="none" xmlns="http://www.w3.org/2000/svg">
<g clip-path="url(#clip0)">
<path d="M69.6226 23.2034C66.7419 23.2034 65.2746 21.8605 63.9799 20.6756C62.811 19.6056 61.8876 18.7604 59.9144 18.7604C57.9412 18.7604 57.0177 19.6056 55.8487 20.6756C54.5542 21.8605 53.0869 23.2034 50.206 23.2034C47.3251 23.2034 45.858 21.8605 44.5634 20.6756C43.3945 19.6056 42.4713 18.7604 40.4981 18.7604C38.525 18.7604 37.6018 19.6056 36.4329 20.6756C35.1385 21.8605 33.6712 23.2034 30.7903 23.2034C27.9098 23.2034 26.4429 21.8605 25.1484 20.6756C23.9797 19.6056 23.0565 18.7604 21.0837 18.7604C19.1107 18.7604 18.1874 19.6056 17.0185 20.6756C15.7241 21.8605 14.2568 23.2034 11.3761 23.2034C8.49521 23.2034 7.02791 21.8605 5.73327 20.6756C4.56437 19.6056 3.64113 18.7604 1.66792 18.7604C1.02303 18.7604 0.5 18.2376 0.5 17.5925C0.5 16.9476 1.02303 16.4246 1.66792 16.4246C4.5486 16.4246 6.01591 17.7675 7.31055 18.9523C8.47944 20.0223 9.40288 20.8675 11.3761 20.8675C13.3491 20.8675 14.2723 20.0223 15.4412 18.9525C16.7357 17.7675 18.203 16.4246 21.0837 16.4246C23.9642 16.4246 25.4313 17.7677 26.7257 18.9525C27.8944 20.0225 28.8175 20.8675 30.7903 20.8675C32.7635 20.8675 33.6867 20.0223 34.8556 18.9525C36.1501 17.7675 37.6174 16.4246 40.4981 16.4246C43.3789 16.4246 44.846 17.7675 46.1407 18.9525C47.3096 20.0223 48.233 20.8675 50.206 20.8675C52.1794 20.8675 53.1027 20.0223 54.2716 18.9525C55.5662 17.7675 57.0335 16.4246 59.9144 16.4246C62.7953 16.4246 64.2626 17.7675 65.5572 18.9525C66.7261 20.0223 67.6493 20.8675 69.6226 20.8675C71.5961 20.8675 72.5196 20.0223 73.6889 18.9523C74.9835 17.7675 76.451 16.4246 79.3321 16.4246C79.977 16.4246 80.5 16.9476 80.5 17.5925C80.5 18.2376 79.977 18.7604 79.3321 18.7604C77.3585 18.7604 76.4351 19.6056 75.2658 20.6756C73.9711 21.8605 72.5038 23.2034 69.6226 23.2034Z" fill="white"/>
<path d="M69.6226 33.3253C66.7419 33.3253 65.2746 31.9824 63.9799 30.7976C62.811 29.7275 61.8876 28.8824 59.9144 28.8824C57.9412 28.8824 57.0177 29.7275 55.8487 30.7976C54.5542 31.9824 53.0869 33.3253 50.206 33.3253C47.3251 33.3253 45.858 31.9824 44.5634 30.7976C43.3945 29.7275 42.4713 28.8824 40.4981 28.8824C38.525 28.8824 37.6018 29.7275 36.4329 30.7976C35.1385 31.9824 33.6712 33.3253 30.7903 33.3253C27.9098 33.3253 26.4429 31.9824 25.1484 30.7976C23.9797 29.7275 23.0565 28.8824 21.0837 28.8824C19.1107 28.8824 18.1874 29.7275 17.0185 30.7976C15.7241 31.9824 14.2568 33.3253 11.3761 33.3253C8.49521 33.3253 7.02791 31.9824 5.73327 30.7976C4.56437 29.7275 3.64113 28.8824 1.66792 28.8824C1.02303 28.8824 0.5 28.3595 0.5 27.7144C0.5 27.0695 1.02303 26.5465 1.66792 26.5465C4.5486 26.5465 6.01591 27.8894 7.31055 29.0743C8.47944 30.1443 9.40288 30.9895 11.3761 30.9895C13.3491 30.9895 14.2723 30.1443 15.4412 29.0745C16.7357 27.8894 18.203 26.5465 21.0837 26.5465C23.9642 26.5465 25.4313 27.8896 26.7257 29.0745C27.8944 30.1445 28.8175 30.9895 30.7903 30.9895C32.7635 30.9895 33.6867 30.1443 34.8556 29.0745C36.1501 27.8894 37.6174 26.5465 40.4981 26.5465C43.3789 26.5465 44.846 27.8894 46.1407 29.0745C47.3096 30.1443 48.233 30.9895 50.206 30.9895C52.1794 30.9895 53.1027 30.1443 54.2716 29.0745C55.5662 27.8894 57.0335 26.5465 59.9144 26.5465C62.7953 26.5465 64.2626 27.8894 65.5572 29.0745C66.7261 30.1443 67.6493 30.9895 69.6226 30.9895C71.5961 30.9895 72.5196 30.1443 73.6889 29.0743C74.9835 27.8894 76.451 26.5465 79.3321 26.5465C79.977 26.5465 80.5 27.0695 80.5 27.7144C80.5 28.3595 79.977 28.8824 79.3321 28.8824C77.3585 28.8824 76.4351 29.7275 75.2658 30.7976C73.9711 31.9824 72.5038 33.3253 69.6226 33.3253Z" fill="white"/>
<path d="M69.6226 43.4476C66.7419 43.4476 65.2746 42.1047 63.9799 40.9199C62.811 39.8499 61.8876 39.0047 59.9144 39.0047C57.9412 39.0047 57.0177 39.8499 55.8487 40.9197C54.5542 42.1047 53.0869 43.4476 50.206 43.4476C47.3251 43.4476 45.858 42.1047 44.5634 40.9197C43.3945 39.8499 42.4713 39.0047 40.4981 39.0047C38.525 39.0047 37.6018 39.8499 36.4329 40.9197C35.1385 42.1047 33.6712 43.4476 30.7903 43.4476C27.9098 43.4476 26.4429 42.1047 25.1484 40.9197C23.9797 39.8499 23.0565 39.0047 21.0837 39.0047C19.1107 39.0047 18.1874 39.8499 17.0185 40.9197C15.7241 42.1047 14.2568 43.4476 11.3761 43.4476C8.49521 43.4476 7.02791 42.1047 5.73327 40.9197C4.56437 39.8499 3.64093 39.0047 1.66792 39.0047C1.02303 39.0047 0.5 38.4816 0.5 37.8367C0.5 37.1917 1.02303 36.6688 1.66792 36.6688C4.5486 36.6688 6.01591 38.0117 7.31055 39.1966C8.47944 40.2666 9.40288 41.1118 11.3761 41.1118C13.3491 41.1118 14.2723 40.2666 15.4412 39.1966C16.7357 38.0117 18.203 36.6688 21.0837 36.6688C23.9642 36.6688 25.4313 38.0117 26.7257 39.1968C27.8944 40.2666 28.8175 41.1118 30.7903 41.1118C32.7635 41.1118 33.6867 40.2666 34.8556 39.1966C36.1501 38.0117 37.6174 36.6688 40.4981 36.6688C43.3789 36.6688 44.846 38.0117 46.1407 39.1966C47.3096 40.2666 48.233 41.1118 50.206 41.1118C52.1794 41.1118 53.1027 40.2666 54.2716 39.1966C55.5662 38.0117 57.0335 36.6688 59.9144 36.6688C62.7953 36.6688 64.2626 38.0117 65.5572 39.1966C66.7261 40.2666 67.6493 41.1118 69.6226 41.1118C71.5961 41.1118 72.5196 40.2666 73.6889 39.1966C74.9835 38.0117 76.451 36.6688 79.3321 36.6688C79.977 36.6688 80.5 37.1917 80.5 37.8367C80.5 38.4816 79.977 39.0047 79.3321 39.0047C77.3585 39.0047 76.4351 39.8499 75.2658 40.9199C73.9711 42.1047 72.5038 43.4476 69.6226 43.4476Z" fill="white"/>
<path d="M69.6226 53.5696C66.7419 53.5696 65.2746 52.2267 63.9799 51.0418C62.811 49.9718 61.8876 49.1266 59.9144 49.1266C57.9412 49.1266 57.0177 49.9718 55.8487 51.0416C54.5542 52.2267 53.0869 53.5696 50.206 53.5696C47.3251 53.5696 45.858 52.2267 44.5634 51.0416C43.3945 49.9718 42.4713 49.1266 40.4981 49.1266C38.525 49.1266 37.6018 49.9718 36.4329 51.0416C35.1385 52.2267 33.6712 53.5696 30.7903 53.5696C27.9098 53.5696 26.4429 52.2267 25.1484 51.0416C23.9797 49.9718 23.0565 49.1266 21.0837 49.1266C19.1107 49.1266 18.1874 49.9718 17.0185 51.0416C15.7241 52.2267 14.2568 53.5696 11.3761 53.5696C8.49521 53.5696 7.02791 52.2267 5.73327 51.0416C4.56437 49.9718 3.64093 49.1266 1.66792 49.1266C1.02303 49.1266 0.5 48.6036 0.5 47.9587C0.5 47.3136 1.02303 46.7908 1.66792 46.7908C4.5486 46.7908 6.01591 48.1337 7.31055 49.3185C8.47944 50.3886 9.40288 51.2337 11.3761 51.2337C13.3491 51.2337 14.2723 50.3886 15.4412 49.3185C16.7357 48.1337 18.203 46.7908 21.0837 46.7908C23.9642 46.7908 25.4313 48.1337 26.7257 49.3187C27.8944 50.3886 28.8175 51.2337 30.7903 51.2337C32.7635 51.2337 33.6867 50.3886 34.8556 49.3185C36.1501 48.1337 37.6174 46.7908 40.4981 46.7908C43.3789 46.7908 44.846 48.1337 46.1407 49.3185C47.3096 50.3886 48.233 51.2337 50.206 51.2337C52.1794 51.2337 53.1027 50.3886 54.2716 49.3185C55.5662 48.1337 57.0335 46.7908 59.9144 46.7908C62.7953 46.7908 64.2626 48.1337 65.5572 49.3185C66.7261 50.3886 67.6493 51.2337 69.6226 51.2337C71.5961 51.2337 72.5196 50.3886 73.6889 49.3185C74.9835 48.1337 76.451 46.7908 79.3321 46.7908C79.977 46.7908 80.5 47.3136 80.5 47.9587C80.5 48.6036 79.977 49.1266 79.3321 49.1266C77.3585 49.1266 76.4351 49.9718 75.2658 51.0418C73.9711 52.2267 72.5038 53.5696 69.6226 53.5696Z" fill="white"/>
<path d="M69.6226 63.6915C66.7419 63.6915 65.2746 62.3486 63.9799 61.1638C62.811 60.0938 61.8876 59.2486 59.9144 59.2486C57.9412 59.2486 57.0177 60.0938 55.8487 61.1636C54.5542 62.3486 53.0869 63.6915 50.206 63.6915C47.3251 63.6915 45.858 62.3486 44.5634 61.1636C43.3945 60.0938 42.4713 59.2486 40.4981 59.2486C38.525 59.2486 37.6018 60.0938 36.4329 61.1636C35.1385 62.3486 33.6712 63.6915 30.7903 63.6915C27.9098 63.6915 26.4429 62.3486 25.1484 61.1636C23.9797 60.0938 23.0565 59.2486 21.0837 59.2486C19.1107 59.2486 18.1874 60.0938 17.0185 61.1636C15.7241 62.3486 14.2568 63.6915 11.3761 63.6915C8.49521 63.6915 7.02791 62.3486 5.73327 61.1636C4.56437 60.0938 3.64093 59.2486 1.66792 59.2486C1.02303 59.2486 0.5 58.7255 0.5 58.0806C0.5 57.4354 1.02303 56.9127 1.66792 56.9127C4.5486 56.9127 6.01591 58.2556 7.31055 59.4405C8.47944 60.5105 9.40288 61.3557 11.3761 61.3557C13.3491 61.3557 14.2723 60.5105 15.4412 59.4405C16.7357 58.2556 18.203 56.9127 21.0837 56.9127C23.9642 56.9127 25.4313 58.2556 26.7257 59.4407C27.8944 60.5105 28.8175 61.3557 30.7903 61.3557C32.7635 61.3557 33.6867 60.5105 34.8556 59.4405C36.1501 58.2556 37.6174 56.9127 40.4981 56.9127C43.3789 56.9127 44.846 58.2556 46.1407 59.4405C47.3096 60.5105 48.233 61.3557 50.206 61.3557C52.1794 61.3557 53.1027 60.5105 54.2716 59.4405C55.5662 58.2556 57.0335 56.9127 59.9144 56.9127C62.7953 56.9127 64.2626 58.2556 65.5572 59.4405C66.7261 60.5105 67.6493 61.3557 69.6226 61.3557C71.5961 61.3557 72.5196 60.5105 73.6889 59.4405C74.9835 58.2556 76.451 56.9127 79.3321 56.9127C79.977 56.9127 80.5 57.4354 80.5 58.0806C80.5 58.7255 79.977 59.2486 79.3321 59.2486C77.3585 59.2486 76.4351 60.0938 75.2658 61.1638C73.9711 62.3486 72.5038 63.6915 69.6226 63.6915Z" fill="white"/>
</g>
<defs>
<clipPath id="clip0">
<rect width="80" height="80" fill="white" transform="translate(0.5 0.0581055)"/>
</clipPath>
</defs>
</svg>
