<svg width="81" height="80" viewBox="0 0 81 80" fill="none" xmlns="http://www.w3.org/2000/svg">
<g clip-path="url(#clip0)">
<path d="M58.625 53.2143C58.625 54.0703 57.9255 54.7641 57.0625 54.7641C56.1995 54.7641 55.5 54.0703 55.5 53.2143C55.5 52.3583 56.1995 51.6646 57.0625 51.6646C57.9255 51.6646 58.625 52.3583 58.625 53.2143Z" fill="white"/>
<path d="M78.9375 76.4606H75.8125C74.9507 76.4606 74.25 75.7656 74.25 74.9109C74.25 73.4283 74.25 28.3976 74.25 26.8684H75.8125C76.4113 26.8684 76.9575 26.5288 77.2188 25.9942C77.48 25.4597 77.4098 24.8247 77.0387 24.3585L58.2887 0.802223C57.6655 0.0188697 56.4637 0.0140267 55.8363 0.802223L37.0863 24.3585C36.7152 24.8247 36.6456 25.4597 36.9069 25.9942C37.1675 26.5288 37.7137 26.8684 38.3125 26.8684H39.875V42.5809C27.8077 42.7752 24.6376 47.8143 20.9871 53.6078L12.9066 66.4332C12.6185 66.8896 12.1235 67.1621 11.5815 67.1621H7.0625C6.19946 67.1621 5.5 67.8558 5.5 68.7118V78.0104C5.5 78.8664 6.19946 79.5601 7.0625 79.5601H11.2422C15.0367 79.5601 18.5042 77.6544 20.5171 74.4617L30.0752 59.2922C32.8169 54.9402 37.325 54.6526 39.875 54.7113V74.9109C39.875 75.7656 39.1743 76.4606 38.3125 76.4606H35.1875C34.3245 76.4606 33.625 77.1544 33.625 78.0104C33.625 78.8664 34.3245 79.5601 35.1875 79.5601H38.3125C40.8973 79.5601 43 77.4746 43 74.9109V54.764H46.125V78.0104C46.125 78.8664 46.8245 79.5601 47.6875 79.5601C48.5505 79.5601 49.25 78.8664 49.25 78.0104V73.3611H64.875V78.0104C64.875 78.8664 65.5745 79.5601 66.4375 79.5601C67.3005 79.5601 68 78.8664 68 78.0104V54.764H71.125V74.9109C71.125 77.4746 73.2277 79.5601 75.8125 79.5601H78.9375C79.8005 79.5601 80.5 78.8664 80.5 78.0104C80.5 77.1544 79.8005 76.4606 78.9375 76.4606ZM57.0625 4.26375L72.588 23.7689H41.537L57.0625 4.26375ZM27.425 57.6498L17.8676 72.8181C16.429 75.0991 13.9528 76.4606 11.2422 76.4606H8.625V70.2616H11.5815C13.2069 70.2616 14.6931 69.4449 15.5562 68.0762L23.6372 55.2507C27.1754 49.6359 29.571 45.842 39.875 45.6792V51.6106C36.8385 51.5465 31.0286 51.9297 27.425 57.6498ZM49.25 70.2616V64.0626H64.875V70.2616H49.25ZM64.875 60.963H49.25V54.764H50.0312C50.8943 54.764 51.5938 54.0703 51.5938 53.2143C51.5938 52.3583 50.8943 51.6645 50.0312 51.6645H43V26.8684H71.125V51.6645H64.0938C63.2307 51.6645 62.5312 52.3583 62.5312 53.2143C62.5312 54.0703 63.2307 54.764 64.0938 54.764H64.875V60.963Z" fill="white"/>
<path d="M66.4375 39.2666C66.4375 34.139 62.2322 29.968 57.0625 29.968C51.8928 29.968 47.6875 34.139 47.6875 39.2666C47.6875 44.3941 51.8928 48.5651 57.0625 48.5651C62.2322 48.5651 66.4375 44.3941 66.4375 39.2666ZM50.8125 39.2666C50.8125 35.8486 53.6165 33.0675 57.0625 33.0675C60.5085 33.0675 63.3125 35.8486 63.3125 39.2666C63.3125 42.6845 60.5085 45.4656 57.0625 45.4656C53.6165 45.4656 50.8125 42.6845 50.8125 39.2666Z" fill="white"/>
<path d="M0.5 14.1605C0.5 16.7242 2.60266 18.8097 5.1875 18.8097H30.1875C32.7723 18.8097 34.875 16.7242 34.875 14.1605C34.875 11.5967 32.7723 9.51119 30.1875 9.51119H28.4681C27.7424 5.97883 24.5851 3.31216 20.8125 3.31216C19.8555 3.31216 18.918 3.48409 18.0385 3.81583C16.6279 1.60864 14.1505 0.212646 11.4375 0.212646C7.12964 0.212646 3.625 3.6887 3.625 7.96143C3.625 8.55288 3.69702 9.13949 3.83069 9.71035C1.90564 10.2891 0.5 12.0647 0.5 14.1605ZM11.4375 3.31216C13.0671 3.31216 14.5533 4.15121 15.3993 5.47637C14.2549 6.56725 13.473 7.97354 13.1575 9.51119H7.01855C6.84277 9.01599 6.75 8.49174 6.75 7.96143C6.75 5.39767 8.85266 3.31216 11.4375 3.31216ZM5.1875 12.6107H14.5625C15.4255 12.6107 16.125 11.9169 16.125 11.0609C16.125 8.51716 18.1996 6.41167 20.8125 6.41167C23.3973 6.41167 25.5 8.49719 25.5 11.0609C25.5 11.9169 26.1995 12.6107 27.0625 12.6107H30.1875C31.0493 12.6107 31.75 13.3057 31.75 14.1605C31.75 15.0152 31.0493 15.7102 30.1875 15.7102H5.1875C4.32568 15.7102 3.625 15.0152 3.625 14.1605C3.625 13.3057 4.32568 12.6107 5.1875 12.6107Z" fill="white"/>
</g>
<defs>
<clipPath id="clip0">
<rect width="80" height="79.3475" fill="white" transform="translate(0.5 0.212646)"/>
</clipPath>
</defs>
</svg>
