<svg width="81" height="80" viewBox="0 0 81 80" fill="none" xmlns="http://www.w3.org/2000/svg">
<g clip-path="url(#clip0)">
<path d="M76.1706 45.7057H73.4637L60.2483 34.4125C58.8994 33.2598 57.1922 32.7301 55.5083 32.853L50.1921 24.7852C49.5445 23.8027 48.549 23.1338 47.3887 22.9019C46.2291 22.6694 45.0499 22.9031 44.0696 23.5593L39.2283 26.7975C38.6985 27.1522 38.0235 27.2352 37.4223 27.0197L33.9622 25.7798C32.5687 25.281 31.0294 25.5092 29.8447 26.3901C29.3192 26.7805 29.213 27.5191 29.6067 28.0397C30.0004 28.5609 30.7444 28.6663 31.2699 28.2758C31.8125 27.8726 32.5175 27.7685 33.1553 27.9967L36.6148 29.2365C37.9264 29.7063 39.3998 29.5253 40.557 28.7516L45.3984 25.5135C45.8476 25.2126 46.3878 25.1061 46.9188 25.212C47.4504 25.3186 47.9069 25.6249 48.2036 26.0753L49.0672 27.3865L44.398 28.7752C43.7693 28.9623 43.4129 29.6191 43.6015 30.2427C43.7901 30.8662 44.4523 31.2197 45.0804 31.0327L48.3348 30.0647L47.4363 31.5503C47.0988 32.1084 47.2813 32.8318 47.8441 33.1666C48.0351 33.281 48.2463 33.3349 48.4538 33.3349C48.8579 33.3349 49.2515 33.1309 49.4743 32.7622L50.9746 30.2814L53.0992 33.5056C52.9131 33.5964 52.7299 33.6957 52.5505 33.8053L43.0162 39.6362L40.2836 35.6922C38.679 33.3767 35.6004 32.6557 33.1211 34.0147L30.2787 35.573C29.5444 35.9749 28.6643 36.0651 27.8635 35.8194L26.6489 35.4471L28.8956 31.8306C29.2399 31.2766 29.0659 30.5508 28.5074 30.2094C27.949 29.8673 27.2165 30.0399 26.8729 30.5944L24.3045 34.7285L21.7038 33.9312C19.1501 33.1485 16.4169 34.295 15.2054 36.659L10.5667 45.7057H5.04848C2.60096 45.7057 0.609375 47.681 0.609375 50.1086V54.9358C0.609375 57.364 2.60096 59.3387 5.04848 59.3387H8.04166V78.3559C8.04166 79.0067 8.57388 79.5346 9.23001 79.5346H71.9884C72.6446 79.5346 73.1768 79.0067 73.1768 78.3559V59.3387H76.17C78.6181 59.3387 80.6091 57.364 80.6091 54.9358V50.1086C80.6097 47.681 78.6181 45.7057 76.1706 45.7057ZM48.4105 39.1059V41.5752C48.4105 42.226 48.9427 42.7539 49.5988 42.7539C50.255 42.7539 50.7872 42.226 50.7872 41.5752V38.7245L55.659 40.6242C56.2694 40.8627 56.9591 40.5643 57.1996 39.9589C57.4394 39.3529 57.1391 38.6689 56.5282 38.4309L52.2453 36.7607L53.7975 35.8115C55.3484 34.8635 57.3168 35.0185 58.6968 36.1977L69.8229 45.7057H47.2221L44.3638 41.5807L48.4105 39.1059ZM17.3233 37.7269C18.0093 36.389 19.5566 35.7401 21.0025 36.1832L27.1616 38.0713C28.5764 38.5054 30.1316 38.3462 31.428 37.6361L34.2704 36.0779C35.6742 35.3084 37.4168 35.7171 38.325 37.0277L44.3388 45.7057H39.1306L37.371 41.5305C37.1183 40.9299 36.4219 40.6466 35.817 40.8972C35.2116 41.1485 34.9259 41.8386 35.1786 42.4391L36.555 45.7057H25.4313L25.3251 43.6099L28.4275 42.476C29.0433 42.2508 29.3589 41.5734 29.1318 40.9632C28.9048 40.3524 28.2218 40.0394 27.6066 40.2646L24.1904 41.5129L20.1218 39.3124C19.5456 39.0006 18.8242 39.2113 18.5098 39.7821C18.1955 40.3536 18.4079 41.0698 18.9841 41.3815L22.9416 43.5221L23.0515 45.7057H13.2327L17.3233 37.7269ZM10.4184 77.1779V72.8095H60.2227C60.8788 72.8095 61.411 72.2816 61.411 71.6308C61.411 70.98 60.8788 70.4522 60.2227 70.4522H10.4184V66.0644H70.8007V70.4522H64.9755C64.3193 70.4522 63.7871 70.98 63.7871 71.6308C63.7871 72.2816 64.3193 72.8095 64.9755 72.8095H70.8007V77.1779H10.4184ZM70.8007 63.7077H10.4184V59.3387H70.8007V63.7077ZM78.2336 54.9358C78.2336 56.0643 77.3077 56.982 76.1706 56.982H5.04848C3.91078 56.982 2.98548 56.0643 2.98548 54.9358V50.1086C2.98548 48.9802 3.91139 48.0624 5.04848 48.0624H76.1706C77.3077 48.0624 78.2336 48.9808 78.2336 50.1086V54.9358Z" fill="white" stroke="white" stroke-width="0.5"/>
<path d="M24.6399 16.9511C23.6878 17.8053 22.5031 18.8677 22.5031 20.9568C22.5031 21.6076 23.0347 22.1355 23.6908 22.1355C24.3469 22.1355 24.8792 21.6076 24.8792 20.9568C24.8792 19.961 25.3436 19.4979 26.2335 18.6994C27.1863 17.8452 28.371 16.7828 28.371 14.6936C28.371 12.6045 27.1863 11.5421 26.2335 10.6879C25.3436 9.8894 24.8792 9.42689 24.8792 8.43045C24.8792 7.43461 25.3436 6.9715 26.2335 6.17362C27.1863 5.31944 28.3716 4.25701 28.3716 2.16786C28.3716 1.51709 27.8394 0.989807 27.1833 0.989807C26.5271 0.989807 25.9949 1.51709 25.9949 2.16786C25.9949 3.16431 25.5304 3.62681 24.6405 4.4253C23.6884 5.27888 22.5031 6.34131 22.5031 8.43045C22.5031 10.5196 23.6878 11.582 24.6399 12.4362C25.5304 13.2347 25.9949 13.6978 25.9949 14.6936C25.9949 15.6901 25.5304 16.1526 24.6399 16.9511Z" fill="white" stroke="white" stroke-width="0.5"/>
<path d="M39.8123 16.9511C38.8602 17.8053 37.6749 18.8677 37.6749 20.9568C37.6749 21.6076 38.2071 22.1355 38.8632 22.1355C39.5194 22.1355 40.0516 21.6076 40.0516 20.9568C40.0516 19.961 40.5161 19.4979 41.406 18.6994C42.3581 17.8452 43.5434 16.7828 43.5434 14.6936C43.5434 12.6045 42.3587 11.5421 41.406 10.6879C40.5161 9.8894 40.0516 9.42689 40.0516 8.43045C40.0516 7.43461 40.5161 6.9715 41.406 6.17362C42.3587 5.31944 43.5434 4.25701 43.5434 2.16786C43.5434 1.51709 43.0118 0.989807 42.3557 0.989807C41.6996 0.989807 41.1673 1.51709 41.1673 2.16786C41.1673 3.1637 40.7028 3.62681 39.8123 4.4253C38.8602 5.27888 37.6749 6.34131 37.6749 8.43045C37.6749 10.5196 38.8602 11.582 39.8123 12.4362C40.7028 13.2347 41.1673 13.6978 41.1673 14.6936C41.1673 15.6901 40.7028 16.1526 39.8123 16.9511Z" fill="white" stroke="white" stroke-width="0.5"/>
<path d="M54.9876 16.9511C54.0354 17.8053 52.8501 18.8677 52.8501 20.9568C52.8501 21.6076 53.3817 22.1355 54.0378 22.1355C54.694 22.1355 55.2262 21.6076 55.2262 20.9568C55.2262 19.961 55.6907 19.4979 56.5812 18.6994C57.5334 17.8452 58.7187 16.7828 58.7187 14.6936C58.7187 12.6045 57.5334 11.5421 56.5812 10.6879C55.6907 9.8894 55.2262 9.42689 55.2262 8.43045C55.2262 7.43461 55.6907 6.9715 56.5812 6.17362C57.5334 5.31944 58.7187 4.25701 58.7187 2.16786C58.7187 1.51709 58.1864 0.989807 57.5303 0.989807C56.8742 0.989807 56.3419 1.51709 56.3419 2.16786C56.3419 3.1637 55.8775 3.62681 54.9876 4.4253C54.0348 5.27888 52.8501 6.34131 52.8501 8.43045C52.8501 10.5196 54.0348 11.582 54.9876 12.4362C55.8775 13.2347 56.3419 13.6978 56.3419 14.6936C56.3419 15.6901 55.8775 16.1526 54.9876 16.9511Z" fill="white" stroke="white" stroke-width="0.5"/>
</g>
<defs>
<clipPath id="clip0">
<rect width="80" height="79.3472" fill="white" transform="translate(0.609375 0.525146)"/>
</clipPath>
</defs>
</svg>
