<svg width="81" height="81" viewBox="0 0 81 81" fill="none" xmlns="http://www.w3.org/2000/svg">
<g clip-path="url(#clip0)">
<path d="M73.2267 15.1131H72.7267V15.6131V79.7235H71.3811V4.36644C71.3811 2.72184 72.7318 1.37585 74.3997 1.37585H76.9022C78.5708 1.37585 79.9215 2.7219 79.9215 4.36644V22.1494H78.5753V15.6131V15.1131H78.0753H73.2267ZM72.7267 13.286V13.786H73.2267H78.0753H78.5753V13.286V4.36644C78.5753 3.44475 77.8214 2.70291 76.9022 2.70291H74.3997C73.4805 2.70291 72.7267 3.44475 72.7267 4.36644V13.286Z" fill="#24A3FF" stroke="#24A3FF"/>
<path d="M78.5772 30.1299H79.9234V79.7235H78.5772V30.1299Z" fill="#24A3FF" stroke="#24A3FF"/>
<path d="M78.5772 25.4758H79.9234V26.8029H78.5772V25.4758Z" fill="#24A3FF" stroke="#24A3FF"/>
<path d="M34.5173 15.0271C39.2042 15.0271 43.0109 18.8086 43.0109 23.4467C43.0109 28.0854 39.2042 31.8669 34.5173 31.8669C29.8311 31.8669 26.0244 28.0854 26.0244 23.4467C26.0244 18.8086 29.8311 15.0271 34.5173 15.0271ZM27.3706 23.4467C27.3706 27.3625 30.5799 30.5398 34.5173 30.5398C38.4554 30.5398 41.6647 27.3626 41.6647 23.4467C41.6647 19.5314 38.4554 16.3542 34.5173 16.3542C30.5799 16.3542 27.3706 19.5314 27.3706 23.4467Z" fill="#24A3FF" stroke="#24A3FF"/>
<path d="M36.1904 40.5109C36.1904 35.8723 39.9971 32.0913 44.6839 32.0913C49.3702 32.0913 53.1769 35.8722 53.1769 40.5109C53.1769 45.1495 49.3702 48.9305 44.6839 48.9305C39.9971 48.9305 36.1904 45.1495 36.1904 40.5109ZM37.5366 40.5109C37.5366 44.4261 40.7459 47.604 44.6839 47.604C48.6214 47.604 51.8307 44.4261 51.8307 40.5109C51.8307 36.5957 48.6214 33.4178 44.6839 33.4178C40.7459 33.4178 37.5366 36.5957 37.5366 40.5109Z" fill="#24A3FF" stroke="#24A3FF"/>
<path d="M24.3513 32.0913C29.0382 32.0913 32.8449 35.8723 32.8449 40.5109C32.8449 45.1495 29.0382 48.9305 24.3513 48.9305C19.6645 48.9305 15.8584 45.1496 15.8584 40.5109C15.8584 35.8722 19.6645 32.0913 24.3513 32.0913ZM17.2046 40.5109C17.2046 44.4261 20.4139 47.604 24.3513 47.604C28.2888 47.604 31.4987 44.4262 31.4987 40.5109C31.4987 36.5956 28.2888 33.4178 24.3513 33.4178C20.4139 33.4178 17.2046 36.5957 17.2046 40.5109Z" fill="#24A3FF" stroke="#24A3FF"/>
<path d="M34.5173 65.9948C29.8311 65.9948 26.0244 62.2133 26.0244 57.5746C26.0244 52.9366 29.8311 49.155 34.5173 49.155C39.2042 49.155 43.0109 52.9366 43.0109 57.5746C43.0109 62.2133 39.2042 65.9948 34.5173 65.9948ZM41.6647 57.5746C41.6647 53.6593 38.4554 50.4821 34.5173 50.4821C30.5799 50.4821 27.3706 53.6594 27.3706 57.5746C27.3706 61.4905 30.5799 64.6678 34.5173 64.6678C38.4554 64.6678 41.6647 61.4905 41.6647 57.5746Z" fill="#24A3FF" stroke="#24A3FF"/>
<path d="M5.69234 57.5746C5.69234 52.9365 9.49846 49.155 14.1853 49.155C18.8721 49.155 22.6782 52.9365 22.6782 57.5746C22.6782 62.2133 18.8721 65.9948 14.1853 65.9948C9.49848 65.9948 5.69234 62.2133 5.69234 57.5746ZM7.03793 57.5746C7.03793 61.4905 10.2479 64.6678 14.1853 64.6678C18.1227 64.6678 21.3326 61.4905 21.3326 57.5746C21.3326 53.6593 18.1226 50.4821 14.1853 50.4821C10.2479 50.4821 7.03793 53.6593 7.03793 57.5746Z" fill="#24A3FF" stroke="#24A3FF"/>
<path d="M65.657 52.7795L65.6469 52.7572L65.6346 52.7359L52.071 29.2397L53.2376 28.5773L66.8475 52.1547L66.8602 52.1823C67.6364 53.873 68.0318 55.6776 68.0353 57.5489V57.5746C68.0353 61.0419 66.6316 64.3221 64.0728 66.8121L64.0728 66.8121C61.5292 69.2876 58.1927 70.6483 54.6748 70.6483H25.2285V69.3219H54.6748C61.1762 69.3219 66.6808 63.9673 66.6891 57.5898V57.5891V57.5686V57.5684C66.6885 55.9001 66.3408 54.2885 65.657 52.7795Z" fill="#24A3FF" stroke="#24A3FF"/>
<path d="M50.4052 26.3522L49.7394 25.1988L50.9054 24.5365L51.5712 25.6899L50.4052 26.3522Z" fill="#24A3FF" stroke="#24A3FF"/>
<path d="M2.34619 57.5686V57.5684C2.34683 55.9007 2.69449 54.2885 3.37832 52.7795L3.38845 52.7572L3.40071 52.7359L23.397 18.0958C23.397 18.0958 23.397 18.0958 23.397 18.0958C25.6752 14.149 29.9364 11.7 34.5173 11.7C39.0989 11.7 43.3601 14.149 45.6382 18.0958C45.6382 18.0958 45.6382 18.0958 45.6382 18.0958L48.0743 22.3157L49.2409 21.6533L46.8083 17.4401L46.8083 17.44C44.2933 13.0823 39.5836 10.3735 34.5173 10.3735C29.4517 10.3735 24.742 13.0823 22.227 17.44L22.227 17.4401L2.20929 52.1168L2.17058 52.1922C1.39512 53.8857 1.00122 55.6932 1 57.5746L2.34619 57.5686ZM2.34619 57.5686C2.34619 63.9583 7.85381 69.3219 14.3599 69.3219H17.1906V70.6483H14.3599C10.8425 70.6483 7.50546 69.2876 4.96254 66.8122L4.96244 66.8121M2.34619 57.5686L4.96244 66.8121M4.96244 66.8121C2.40325 64.3222 1.00008 61.0422 1 57.5749L4.96244 66.8121Z" fill="#24A3FF" stroke="#24A3FF"/>
<path d="M20.5364 69.3219H21.8825V70.6483H20.5364V69.3219Z" fill="#24A3FF" stroke="#24A3FF"/>
<path d="M54.8496 65.9948C50.1628 65.9948 46.3567 62.2133 46.3567 57.5746C46.3567 52.9365 50.1628 49.155 54.8496 49.155C59.5364 49.155 63.3425 52.9365 63.3425 57.5746C63.3425 62.2133 59.5364 65.9948 54.8496 65.9948ZM61.9969 57.5746C61.9969 53.6593 58.787 50.4821 54.8496 50.4821C50.9122 50.4821 47.7022 53.6593 47.7022 57.5746C47.7022 61.4905 50.9122 64.6678 54.8496 64.6678C58.787 64.6678 61.9969 61.4905 61.9969 57.5746Z" fill="#24A3FF" stroke="#24A3FF"/>
<path d="M35.0181 19.7136C36.7156 19.9354 38.06 21.2706 38.2858 22.9466H36.9219C36.7228 21.999 35.9692 21.2546 35.0181 21.0584V19.7136Z" fill="#24A3FF" stroke="#24A3FF"/>
<path d="M14.686 53.8416C16.3835 54.0634 17.728 55.3987 17.9538 57.0747H16.5892C16.3901 56.1272 15.6367 55.3828 14.686 55.1865V53.8416Z" fill="#24A3FF" stroke="#24A3FF"/>
<path d="M55.3503 53.8416C57.0478 54.0634 58.3923 55.3987 58.6181 57.0747H57.2535C57.0544 56.1272 56.301 55.3828 55.3503 55.1865V53.8416Z" fill="#24A3FF" stroke="#24A3FF"/>
</g>
<defs>
<clipPath id="clip0">
<rect width="80" height="79.3477" fill="#24A3FF" transform="translate(0.5 0.875854)"/>
</clipPath>
</defs>
</svg>
