<svg width="81" height="81" viewBox="0 0 81 81" fill="none" xmlns="http://www.w3.org/2000/svg">
<g clip-path="url(#clip0)">
<path d="M1.99574 43.4557C4.81316 43.4557 6.1474 44.2958 7.69217 45.2692C9.35947 46.3191 11.2488 47.5092 14.867 47.5092C18.4853 47.5092 20.3739 46.3191 22.0412 45.2692C23.586 44.2958 24.9202 43.4557 27.7376 43.4557C30.5551 43.4557 31.8893 44.2958 33.4341 45.2692C35.1014 46.3191 36.9907 47.5092 40.6089 47.5092C44.2272 47.5092 46.1165 46.3191 47.7831 45.2692C49.3279 44.2958 50.6621 43.4557 53.4802 43.4557C56.2976 43.4557 57.6319 44.2958 59.1773 45.2692C60.8439 46.3191 62.7333 47.5092 66.3515 47.5092C69.9691 47.5092 71.8591 46.3191 73.5257 45.2692C75.0711 44.2958 76.4054 43.4557 79.2228 43.4557C79.9884 43.4557 80.6092 42.835 80.6092 42.0693C80.6092 41.3037 79.9884 40.683 79.2228 40.683C75.6046 40.683 73.7152 41.873 72.0486 42.923C70.5038 43.8964 69.1689 44.7365 66.3515 44.7365C63.8421 44.7365 62.5234 44.0697 61.1702 43.2357C61.2061 43.1206 61.2271 43.0008 61.2325 42.8803V22.3664C61.2278 20.4717 62.7603 18.933 64.6551 18.9296C65.4207 18.9303 66.0421 18.3102 66.0435 17.5446C66.0442 16.779 65.4241 16.1575 64.6585 16.1569C61.2325 16.1609 58.4577 18.9404 58.4591 22.3664V24.1447H48.9278V22.3664C48.9407 20.4649 50.4861 18.9296 52.3883 18.9296C53.1539 18.9276 53.7733 18.3055 53.772 17.5398C53.7699 16.7742 53.1478 16.1548 52.3822 16.1569C48.9508 16.1589 46.1673 18.935 46.1551 22.3664V42.6765C46.1625 42.7754 46.1815 42.8729 46.2099 42.9676C44.6949 43.9208 43.3702 44.7365 40.5961 44.7365C37.7787 44.7365 36.4505 43.8957 34.9051 42.923C33.2696 41.892 31.4202 40.727 27.9306 40.6843C26.9504 39.8178 26.1705 39.0901 25.3487 38.3279C24.95 37.9569 24.5303 37.565 24.0612 37.1345C25.1165 38.0348 26.4576 38.529 27.8446 38.5283C28.508 38.5276 29.1667 38.4173 29.7935 38.202C31.2794 37.6862 32.4965 36.5963 33.1728 35.1761C33.8599 33.7687 33.9452 32.1427 33.4097 30.6704C32.7287 28.6653 31.0221 27.1808 28.9419 26.7841C26.8617 26.3874 24.7287 27.1402 23.3579 28.7547C21.9871 30.3685 21.5897 32.5956 22.3188 34.5838C22.6166 35.4354 23.1047 36.2077 23.7451 36.8427C23.1521 36.2998 22.4799 35.6926 21.6797 34.9845C19.5467 33.0979 17.4265 31.1916 15.4533 29.4126C14.5475 28.5963 13.5159 28.3065 12.3867 28.5529C11.1364 28.8251 9.88545 29.0945 8.63311 29.3598C7.20613 29.6645 5.73041 29.9792 4.27905 30.2981C2.43778 30.7036 1.2633 32.513 1.64238 34.3604C1.98897 36.1678 3.72599 37.3592 5.53748 37.0316C7.4742 36.6694 9.45762 36.245 11.4302 35.7704C11.5731 35.7319 11.7186 35.7075 11.8655 35.698C11.902 35.7352 11.9345 35.7752 11.9643 35.8178C12.3075 36.2917 12.6798 36.7439 13.0786 37.1731C13.1456 37.2448 13.1767 37.3423 13.1652 37.4398C13.1557 37.5393 13.1029 37.6293 13.021 37.6862L7.21628 41.7986C5.9213 41.1717 4.31358 40.683 1.99574 40.683C1.23013 40.683 0.609375 41.3037 0.609375 42.0693C0.609375 42.835 1.23013 43.4557 1.99574 43.4557ZM58.4591 35.5822H48.9278V32.9828H58.4591V35.5822ZM48.9278 41.4818V38.355H58.4591V41.672C57.246 41.1067 55.6295 40.683 53.4701 40.683C51.9185 40.6579 50.3771 40.9294 48.9278 41.4818ZM58.4591 26.9175V30.2101H48.9278V26.9175H58.4591ZM25.0441 31.2776C25.4036 30.537 26.0446 29.9718 26.8245 29.7078C28.4836 29.1283 30.1949 29.9522 30.8055 31.6222C31.0824 32.3932 31.0343 33.2441 30.6722 33.9793C30.1313 35.1192 28.9548 35.8192 27.695 35.7488C26.4352 35.6791 25.3433 34.8532 24.9324 33.6604C24.6495 32.8833 24.6894 32.0249 25.0441 31.2776ZM14.6233 39.9478C15.3517 39.432 15.8242 38.6278 15.921 37.7403C16.0171 36.8522 15.7281 35.9661 15.1277 35.3054C14.8054 34.9595 14.5035 34.5953 14.2246 34.2135C13.0332 32.534 11.3977 32.9273 10.7817 33.0756C8.85447 33.5386 6.91843 33.9529 5.02707 34.3062C4.71635 34.3495 4.42527 34.1431 4.36435 33.8351C4.31696 33.657 4.34472 33.4682 4.44084 33.3111C4.53697 33.1548 4.69334 33.0444 4.8734 33.0065C6.31663 32.6897 7.7883 32.3749 9.21122 32.0717C10.4669 31.8036 11.722 31.5335 12.9763 31.262C13.1639 31.2207 13.3087 31.2133 13.5957 31.4719C15.5744 33.2556 17.7 35.1673 19.8412 37.0614C21.4266 38.464 22.5083 39.4706 23.4635 40.358C23.7396 40.6146 24.0118 40.8685 24.288 41.1237C22.7209 41.565 21.5992 42.2711 20.5635 42.9236C19.0187 43.8971 17.6844 44.7371 14.8677 44.7371C12.4619 44.7371 11.1378 44.1238 9.84009 43.3386L14.6233 39.9478Z" fill="white"/>
<path d="M1.99574 52.5766C4.81316 52.5766 6.1474 53.4173 7.69217 54.3901C9.35947 55.4407 11.2488 56.6307 14.867 56.6307C18.4853 56.6307 20.3739 55.4407 22.0412 54.3901C23.586 53.4173 24.9202 52.5766 27.7376 52.5766C30.5551 52.5766 31.8893 53.4173 33.4341 54.3901C35.1014 55.4407 36.9907 56.6307 40.6089 56.6307C44.2272 56.6307 46.1165 55.4407 47.7831 54.3901C49.3279 53.4173 50.6621 52.5766 53.4802 52.5766C56.2976 52.5766 57.6319 53.4173 59.1773 54.3901C60.8439 55.4407 62.7333 56.6307 66.3515 56.6307C69.9691 56.6307 71.8591 55.4407 73.5257 54.3901C75.0711 53.4173 76.4054 52.5766 79.2228 52.5766C79.9884 52.5766 80.6092 51.9558 80.6092 51.1902C80.6092 50.4246 79.9884 49.8038 79.2228 49.8038C75.6046 49.8038 73.7152 50.9946 72.0486 52.0445C70.5032 53.0173 69.1682 53.858 66.3508 53.858C63.5334 53.858 62.1992 53.0173 60.6537 52.0452C58.9871 50.9952 57.0978 49.8045 53.4795 49.8045C49.862 49.8045 47.972 50.9952 46.3054 52.0452C44.7599 53.0179 43.4257 53.8587 40.6082 53.8587C37.7908 53.8587 36.4559 53.0173 34.9111 52.0452C33.2445 50.9952 31.3552 49.8045 27.737 49.8045C24.1187 49.8045 22.2294 50.9952 20.5621 52.0452C19.0173 53.0186 17.6838 53.8587 14.8664 53.8587C12.0489 53.8587 10.716 53.0173 9.16992 52.0452C7.5033 50.9952 5.61397 49.8045 1.99574 49.8045C1.23013 49.8045 0.609375 50.4253 0.609375 51.1909C0.609375 51.9572 1.23013 52.5772 1.99574 52.5772V52.5766Z" fill="white"/>
<path d="M1.99574 61.6977C4.81316 61.6977 6.1474 62.5384 7.69217 63.5112C9.35947 64.5618 11.2488 65.7518 14.867 65.7518C18.4853 65.7518 20.3739 64.5618 22.0412 63.5112C23.586 62.5384 24.9202 61.6977 27.7376 61.6977C30.5551 61.6977 31.8893 62.5384 33.4341 63.5112C35.1014 64.5618 36.9907 65.7518 40.6089 65.7518C44.2272 65.7518 46.1165 64.5618 47.7831 63.5112C49.3279 62.5384 50.6621 61.6977 53.4802 61.6977C56.2976 61.6977 57.6319 62.5384 59.1773 63.5112C60.8439 64.5618 62.7333 65.7518 66.3515 65.7518C69.9691 65.7518 71.8591 64.5618 73.5257 63.5112C75.0711 62.5384 76.4054 61.6977 79.2228 61.6977C79.9884 61.6977 80.6092 61.0769 80.6092 60.3113C80.6092 59.5457 79.9884 58.9249 79.2228 58.9249C75.6046 58.9249 73.7152 60.115 72.0486 61.1656C70.5032 62.139 69.1682 62.9805 66.3508 62.9805C63.5334 62.9805 62.1992 62.1397 60.6537 61.1663C58.9871 60.1163 57.0978 58.9263 53.4795 58.9263C49.862 58.9263 47.972 60.1163 46.3054 61.1663C44.7599 62.1397 43.4257 62.9805 40.6082 62.9805C37.7908 62.9805 36.4566 62.1397 34.9118 61.1663C33.2445 60.1157 31.3552 58.9249 27.737 58.9249C24.1187 58.9249 22.2294 60.115 20.5628 61.1656C19.018 62.1383 17.6838 62.9791 14.8664 62.9791C12.0489 62.9791 10.7147 62.1383 9.16992 61.1656C7.5033 60.1157 5.61397 58.9249 1.99574 58.9249C1.23013 58.9249 0.609375 59.5457 0.609375 60.3113C0.609375 61.0769 1.23013 61.6977 1.99574 61.6977Z" fill="white"/>
</g>
<defs>
<clipPath id="clip0">
<rect width="80" height="80" fill="white" transform="translate(0.609375 0.969238)"/>
</clipPath>
</defs>
</svg>
