<svg width="81" height="81" viewBox="0 0 81 81" fill="none" xmlns="http://www.w3.org/2000/svg">
<path d="M76.3692 42.6517C76.2559 42.5067 76.1024 42.3983 75.9278 42.34C75.7533 42.2816 75.5654 42.2759 75.3877 42.3236L63.9795 45.3794L55.5898 42.8386C55.2253 42.7282 54.8594 42.622 54.4922 42.52L54.6923 35.9661C54.6995 35.7302 54.6175 35.5002 54.4626 35.3221C54.3076 35.1441 54.0912 35.031 53.8566 35.0055C49.3253 34.5124 45.7087 39.1688 44.63 40.7333C43.1033 40.6023 41.5708 40.536 40.0323 40.5344C36.8421 40.5323 33.7195 41.4537 31.0414 43.1872L23.9756 47.7542C23.8582 47.8302 23.7592 47.9314 23.686 48.0505C23.6127 48.1696 23.567 48.3036 23.5523 48.4426C23.5375 48.5817 23.5541 48.7223 23.6007 48.8541C23.6473 48.9859 23.7228 49.1057 23.8217 49.2045L26.2837 51.6666L23.8217 54.1288C23.7228 54.2276 23.6473 54.3474 23.6007 54.4792C23.5541 54.611 23.5375 54.7516 23.5523 54.8907C23.567 55.0297 23.6127 55.1637 23.686 55.2828C23.7592 55.402 23.8582 55.5032 23.9756 55.5791L31.0414 60.1461C33.7195 61.8796 36.8421 62.801 40.0323 62.7989C45.3032 62.7996 50.5454 62.0232 55.5898 60.4947L63.9795 57.9539L75.3877 61.0097C75.5655 61.0575 75.7535 61.0518 75.9282 60.9933C76.1028 60.9349 76.2564 60.8263 76.3697 60.6812C76.483 60.536 76.5511 60.3607 76.5654 60.1771C76.5797 59.9935 76.5396 59.8097 76.4502 59.6488L72.0158 51.6663L76.4503 43.6842C76.5397 43.5232 76.5797 43.3394 76.5653 43.1558C76.5509 42.9722 76.4827 42.7968 76.3692 42.6517ZM48.3127 39.2788C49.4119 38.2233 51.0205 37.0288 52.7894 36.8639L52.6316 42.0344C50.7076 41.5696 48.7593 41.2117 46.7958 40.9624C47.2623 40.3671 47.7691 39.8046 48.3127 39.2788ZM25.9689 54.6339L28.2734 52.3292C28.4492 52.1534 28.548 51.915 28.548 51.6663C28.548 51.4177 28.4492 51.1793 28.2734 51.0035L25.9678 48.6986L32.0592 44.7611C33.9572 43.5333 36.1135 42.7613 38.3595 42.5055C39.5193 44.523 40.3986 46.6893 40.973 48.9444C42.1672 53.8053 41.3777 57.808 38.6292 60.8547C36.2877 60.632 34.0342 59.8487 32.0594 58.5711L25.9689 54.6339ZM70.1252 51.211C70.0477 51.3503 70.0071 51.507 70.0071 51.6663C70.0071 51.8257 70.0477 51.9824 70.1252 52.1217L73.7387 58.6261L64.2064 56.0736C64.0375 56.0284 63.8594 56.0313 63.692 56.0819L55.047 58.7C50.4828 60.0828 45.7493 60.8282 40.9809 60.9149C43.3516 57.5752 43.9809 53.3292 42.7934 48.4971C42.2595 46.3825 41.4732 44.3399 40.4517 42.413C45.3979 42.4516 50.313 43.1991 55.047 44.6327L63.6927 47.2511C63.86 47.3016 64.0381 47.3045 64.207 47.2594L73.7375 44.7066L70.1252 51.211Z" fill="#24A3FF" stroke="#24A3FF"/>
<path d="M35.1094 45.9371C34.6149 45.9371 34.1316 46.0838 33.7205 46.3585C33.3093 46.6332 32.9889 47.0236 32.7997 47.4804C32.6105 47.9372 32.5609 48.4399 32.6574 48.9249C32.7539 49.4098 32.992 49.8553 33.3416 50.2049C33.6912 50.5545 34.1367 50.7926 34.6217 50.8891C35.1066 50.9856 35.6093 50.9361 36.0661 50.7468C36.5229 50.5576 36.9134 50.2372 37.1881 49.8261C37.4628 49.4149 37.6094 48.9316 37.6094 48.4371C37.6086 47.7743 37.345 47.1389 36.8763 46.6702C36.4076 46.2016 35.7722 45.9379 35.1094 45.9371ZM35.1094 49.0621C34.9858 49.0621 34.8649 49.0255 34.7621 48.9568C34.6594 48.8881 34.5793 48.7905 34.532 48.6763C34.4847 48.5621 34.4723 48.4364 34.4964 48.3152C34.5205 48.194 34.58 48.0826 34.6674 47.9952C34.7548 47.9078 34.8662 47.8483 34.9874 47.8241C35.1087 47.8 35.2344 47.8124 35.3486 47.8597C35.4628 47.907 35.5604 47.9871 35.629 48.0899C35.6977 48.1927 35.7344 48.3135 35.7344 48.4371C35.7344 48.6029 35.6685 48.7619 35.5513 48.8791C35.4341 48.9963 35.2751 49.0621 35.1094 49.0621Z" fill="#24A3FF" stroke="#24A3FF"/>
<path d="M16.7748 57.9785C16.599 57.8027 16.3606 57.704 16.112 57.704C15.8634 57.704 15.625 57.8027 15.4492 57.9785L11.057 62.3705C10.8812 62.5463 10.7825 62.7848 10.7825 63.0334C10.7825 63.282 10.8812 63.5205 11.057 63.6963C11.1428 63.7832 11.245 63.8522 11.3576 63.8993C11.4703 63.9464 11.5912 63.9707 11.7133 63.9707C11.8354 63.9707 11.9563 63.9464 12.0689 63.8993C12.1816 63.8522 12.2838 63.7832 12.3695 63.6963L15.1875 60.8657V67.5257C15.1875 68.7067 14.7183 69.8394 13.8832 70.6745C13.0481 71.5096 11.9154 71.9788 10.7344 71.9788C9.55333 71.9788 8.42066 71.5096 7.58554 70.6745C6.75042 69.8394 6.28125 68.7067 6.28125 67.5257V7.19971C6.28125 6.95107 6.18248 6.71261 6.00666 6.53679C5.83085 6.36098 5.59239 6.26221 5.34375 6.26221C5.09511 6.26221 4.85665 6.36098 4.68084 6.53679C4.50502 6.71261 4.40625 6.95107 4.40625 7.19971V67.5257C4.40625 69.204 5.07296 70.8136 6.25972 72.0003C7.44647 73.1871 9.05605 73.8538 10.7344 73.8538C12.4127 73.8538 14.0223 73.1871 15.209 72.0003C16.3958 70.8136 17.0625 69.204 17.0625 67.5257V60.9438L19.8281 63.6964C20.0059 63.8723 20.2458 63.9709 20.4959 63.9709C20.7459 63.9709 20.9859 63.8723 21.1636 63.6964C21.3396 63.5208 21.4387 63.2825 21.4389 63.0339C21.4392 62.7852 21.3408 62.5467 21.1652 62.3706L16.7748 57.9785Z" fill="#24A3FF" stroke="#24A3FF"/>
</svg>
