<svg width="81" height="80" viewBox="0 0 81 80" fill="none" xmlns="http://www.w3.org/2000/svg">
<g clip-path="url(#clip0)">
<path d="M80.6116 30.8407H78.031V27.1589C78.031 24.2169 76.0206 21.6649 73.1433 20.9507L67.7074 19.6034V18.9891C70.1122 17.3226 71.5795 14.5737 71.5795 11.6442V9.4059C71.5795 4.43432 67.652 0.273836 62.8247 0.130113C60.3242 0.0420039 58.0246 0.953086 56.2574 2.65527C54.4895 4.35746 53.5155 6.64079 53.5155 9.08471V11.6442C53.5155 14.5725 54.9809 17.3213 57.3864 18.9879V19.6034L51.9511 20.9507C49.0738 21.6649 47.0641 24.2169 47.0641 27.1589V30.8407H44.4835V38.5193H47.0641V61.555H53.5155V62.8348C53.5155 64.8351 54.4883 66.7253 56.0961 67.927V68.2688L51.7426 69.5011C50.3553 69.8954 49.1797 70.734 48.3543 71.8307C47.5271 70.734 46.3528 69.8941 44.9648 69.5011L40.6126 68.2688V67.927C42.2198 66.7253 43.1932 64.8351 43.1932 62.8348V60.5402C43.1932 57.1002 40.6114 54.1852 37.3157 53.9008C35.5044 53.7446 33.7107 54.3501 32.3826 55.5568C31.0526 56.7678 30.2903 58.4875 30.2903 60.2753V62.8348C30.2903 64.8351 31.2631 66.7253 32.8709 67.927V68.2688L28.5174 69.5011C27.1301 69.8954 25.9545 70.734 25.1292 71.8307C24.3019 70.734 23.1276 69.8941 21.7396 69.5011L17.3874 68.2688V67.927C18.9946 66.7253 19.968 64.8351 19.968 62.8348V60.5402C19.968 57.1002 17.3862 54.1852 14.0905 53.9008C12.2779 53.7446 10.4855 54.3501 9.15743 55.5568C7.82745 56.7678 7.06512 58.4875 7.06512 60.2753V62.8348C7.06512 64.8351 8.03788 66.7253 9.6457 67.927V68.2688L5.29223 69.5011C2.53714 70.2834 0.613678 72.8136 0.613678 75.6556V79.4717H72.8698V75.6556C72.8698 72.8136 70.9457 70.2847 68.19 69.5011L63.8378 68.2688V67.927C65.445 66.7253 66.4184 64.8351 66.4184 62.8348V61.555H78.031V38.5193H80.6116V30.8407ZM49.6446 27.1589C49.6446 25.3942 50.8511 23.8626 52.5761 23.4346L59.9669 21.6024V17.5507L59.3231 17.1807C57.3322 16.0366 56.0961 13.9144 56.0961 11.6442V9.08471C56.0961 7.33941 56.791 5.70784 58.0561 4.49306C59.3193 3.27703 60.9901 2.64527 62.7472 2.68964C66.1935 2.79212 68.999 5.80469 68.999 9.4059V11.6442C68.999 13.9157 67.7616 16.0378 65.7688 17.1807L65.1237 17.5519L65.1294 21.6024L72.5189 23.4346C74.2439 23.8626 75.4504 25.3942 75.4504 27.1589V30.8407H49.6446V27.1589ZM23.8389 76.9122H3.19425V75.6556C3.19425 73.9509 4.34909 72.4318 6.00164 71.9638L12.2263 70.1985V66.5079L11.5849 66.138C10.3709 65.4368 9.6457 64.2021 9.6457 62.8348V60.2753C9.6457 59.2017 10.1025 58.17 10.902 57.4446C11.7097 56.7103 12.7706 56.3566 13.8675 56.4516C15.8413 56.6216 17.3874 58.4175 17.3874 60.5402V62.8348C17.3874 64.2021 16.6623 65.4368 15.4476 66.138L14.8068 66.5079V70.1985L21.0296 71.9638C22.684 72.4318 23.8389 73.9509 23.8389 75.6556V76.9122ZM47.0641 76.9122H26.4194V75.6556C26.4194 73.9509 27.5743 72.4318 29.2268 71.9638L35.4515 70.1985V66.5079L34.8101 66.138C33.596 65.4368 32.8709 64.2021 32.8709 62.8348V60.2753C32.8709 59.2017 33.3277 58.17 34.1272 57.4446C34.9361 56.7103 35.9908 56.3566 37.0927 56.4516C39.0665 56.6216 40.6126 58.4175 40.6126 60.5402V62.8348C40.6126 64.2021 39.8875 65.4368 38.6728 66.138L38.032 66.5079V70.1985L44.2548 71.9638C45.9092 72.4318 47.0641 73.9509 47.0641 75.6556V76.9122ZM63.8378 62.8348C63.8378 64.2021 63.1126 65.4368 61.898 66.138L61.2572 66.5079V70.1985L67.48 71.9638C69.1344 72.4318 70.2892 73.9509 70.2892 75.6556V76.9122H49.6446V75.6556C49.6446 73.9509 50.7995 72.4318 52.452 71.9638L58.6767 70.1985V66.5079L58.0353 66.138C56.8212 65.4368 56.0961 64.2021 56.0961 62.8348V60.2753C56.0961 59.2017 56.5528 58.17 57.3523 57.4446C58.1613 56.7103 59.2172 56.3566 60.3179 56.4516C62.2917 56.6216 63.8378 58.4175 63.8378 60.5402V62.8348ZM75.4504 58.9955H66.2206C65.5836 56.2685 63.3269 54.1414 60.5422 53.9021C58.7264 53.7459 56.9372 54.3514 55.6097 55.558C54.5991 56.4747 53.9219 57.6851 53.651 58.9955H49.6446V38.5193H75.4504V58.9955ZM78.031 35.9598H47.0641V33.4002H78.031V35.9598Z" fill="#24A3FF"/>
<path d="M3.19426 33.4002H21.2583V41.2606C19.0375 41.833 17.3874 43.8189 17.3874 46.1978C17.3874 49.0211 19.7022 51.3169 22.5486 51.3169C25.3951 51.3169 27.7098 49.0211 27.7098 46.1978C27.7098 43.8189 26.0591 41.833 23.8389 41.2606V33.4002H41.903V7.80493H44.4835V0.126343H0.613678V7.80493H3.19426V33.4002ZM25.1292 46.1978C25.1292 47.6095 23.9718 48.7574 22.5486 48.7574C21.1254 48.7574 19.968 47.6095 19.968 46.1978C19.968 44.7862 21.1254 43.6383 22.5486 43.6383C23.9718 43.6383 25.1292 44.7862 25.1292 46.1978ZM39.3224 30.8407H5.77484V7.80493H39.3224V30.8407ZM3.19426 2.68587H41.903V5.2454H3.19426V2.68587Z" fill="#24A3FF"/>
<path d="M36.7396 10.3645H28.9979V28.2812H36.7396V10.3645ZM34.1591 25.7217H31.5785V12.924H34.1591V25.7217Z" fill="#24A3FF"/>
<path d="M26.4171 12.9242H18.6754V28.2814H26.4171V12.9242ZM23.8365 25.7218H21.2559V15.4837H23.8365V25.7218Z" fill="#24A3FF"/>
<path d="M16.0954 18.0432H8.3537V28.2814H16.0954V18.0432ZM13.5149 25.7218H10.9343V20.6027H13.5149V25.7218Z" fill="#24A3FF"/>
</g>
<defs>
<clipPath id="clip0">
<rect width="80" height="79.3474" fill="#24A3FF" transform="translate(0.609375 0.124512)"/>
</clipPath>
</defs>
</svg>
