<svg width="81" height="81" viewBox="0 0 81 81" fill="none" xmlns="http://www.w3.org/2000/svg">
<g clip-path="url(#clip0)">
<path d="M80.0452 30.9659L41.1023 4.17214C40.7399 3.9226 40.2596 3.9226 39.8972 4.17214L0.954648 30.9659C0.574799 31.2272 0.410244 31.703 0.548371 32.1406C0.686322 32.5781 1.09507 32.8759 1.55719 32.8759H6.62791V75.1644H2.70872C2.12485 75.1644 1.65163 75.6339 1.65163 76.2128C1.65163 76.7918 2.12485 77.2613 2.70872 77.2613H78.2911C78.875 77.2613 79.3482 76.7918 79.3482 76.2128C79.3482 75.6339 78.875 75.1644 78.2911 75.1644H74.3719V32.8759H79.4426C79.9049 32.8759 80.3135 32.5781 80.4515 32.1406C80.5896 31.703 80.425 31.2273 80.0452 30.9659ZM8.7421 75.1644V32.8759H12.4419V75.1644H8.7421ZM32.7563 16.7416H48.2431L53.1958 20.1491H27.8038L32.7563 16.7416ZM35.8041 14.6447L40.4997 11.414L45.1954 14.6447H35.8041ZM24.7561 22.2461H56.2436L61.1963 25.6536H19.8034L24.7561 22.2461ZM16.7556 27.7506H64.2441L68.6456 30.7789H12.3542L16.7556 27.7506ZM26.7577 57.8069V56.5837H54.2422V57.8069H26.7577ZM55.2993 59.9038C55.883 59.9038 56.3564 59.4343 56.3564 58.8553V55.5352C56.3564 54.9562 55.883 54.4867 55.2993 54.4867H25.7006C25.1169 54.4867 24.6435 54.9562 24.6435 55.5352V58.8553C24.6435 59.4343 25.1169 59.9038 25.7006 59.9038H37.7691V75.1644H14.5561V44.7579L26.5357 32.8759H54.4642L66.4437 44.7579V75.1644H43.2307V59.9038H55.2993ZM17.1927 32.8759L14.5561 35.491V32.8759H17.1927ZM14.5561 38.4564L20.1825 32.8759H23.5459L14.5561 41.7925V38.4564ZM60.8173 32.8759L66.4437 38.4564V41.7925L57.454 32.8759H60.8173ZM66.4437 35.491L63.8071 32.8759H66.4437V35.491ZM39.8833 75.1644V59.9038H41.1166V75.1644H39.8833ZM72.2577 75.1644H68.5579V32.8759H72.2577V75.1644ZM72.3548 30.7789L41.1023 9.27629C40.7399 9.02675 40.2596 9.02675 39.8972 9.27629L8.64485 30.7789H4.93567L40.4999 6.3098L76.0642 30.7789H72.3548Z" fill="#24A3FF" stroke="#24A3FF" stroke-width="0.5"/>
</g>
<defs>
<clipPath id="clip0">
<rect width="80" height="79.3475" fill="#24A3FF" transform="translate(0.5 0.949951)"/>
</clipPath>
</defs>
</svg>
