<svg width="81" height="80" viewBox="0 0 81 80" fill="none" xmlns="http://www.w3.org/2000/svg">
<g clip-path="url(#clip0)">
<path d="M79.8305 28.2522L79.831 28.2527C80.2028 28.6206 80.2028 29.2158 79.831 29.5837L79.8305 29.5842C79.644 29.7691 79.3993 29.8626 79.1525 29.8626C78.9057 29.8626 78.661 29.7691 78.4745 29.5842C68.3765 19.5685 54.927 14.0533 40.6095 14.0533C26.292 14.0533 12.8425 19.5685 2.74446 29.5856C2.36971 29.9573 1.76325 29.9573 1.38849 29.5856C1.01601 29.2162 1.01601 28.6217 1.38849 28.2522L1.38852 28.2522C11.8485 17.8762 25.7757 12.1645 40.6095 12.1645C55.4433 12.1645 69.3719 17.8776 79.8305 28.2522Z" fill="#24A3FF" stroke="#24A3FF"/>
<path d="M9.95246 38.0784C9.57997 37.709 9.57998 37.1145 9.95246 36.7451C26.8567 19.9788 54.3634 19.9817 71.2647 36.7451C71.6372 37.1145 71.6372 37.709 71.2647 38.0784C70.89 38.4501 70.2835 38.4501 69.9087 38.0784C53.7511 22.0527 27.4646 22.0526 11.3084 38.0784C11.1219 38.2634 10.8772 38.3568 10.6304 38.3568C10.3837 38.3568 10.139 38.2634 9.95246 38.0784Z" fill="#24A3FF" stroke="#24A3FF"/>
<path d="M19.8734 46.574L19.8734 46.574C25.4037 41.0903 32.7689 38.0692 40.6087 38.0692C48.4485 38.0692 55.8136 41.0903 61.3439 46.574L61.3439 46.574C61.5304 46.759 61.7752 46.8524 62.0219 46.8524C62.2687 46.8524 62.5134 46.759 62.6999 46.574C63.0724 46.2046 63.0724 45.6101 62.6999 45.2407C56.809 39.3978 48.9647 36.179 40.6087 36.179C32.2527 36.179 24.4098 39.3978 18.5174 45.2407L19.8734 46.574ZM19.8734 46.574C19.4986 46.9457 18.8922 46.9457 18.5174 46.574C18.1449 46.2046 18.1449 45.6102 18.5174 45.2407L19.8734 46.574Z" fill="#24A3FF" stroke="#24A3FF"/>
<path d="M31.5671 58.7427C31.5671 53.8015 35.6215 49.7744 40.6118 49.7744C45.6036 49.7744 49.658 53.8016 49.658 58.7427C49.658 63.6838 45.6036 67.7109 40.6118 67.7109C35.6215 67.7109 31.5671 63.6839 31.5671 58.7427ZM33.4811 58.7412C33.4811 62.6483 36.6824 65.8193 40.6118 65.8193C44.5411 65.8193 47.744 62.6484 47.744 58.7412C47.744 54.834 44.5396 51.6632 40.6118 51.6632C36.6839 51.6632 33.4811 54.8341 33.4811 58.7412Z" fill="#24A3FF" stroke="#24A3FF"/>
</g>
<defs>
<clipPath id="clip0">
<rect width="80" height="79.3472" fill="#24A3FF" transform="translate(0.609375 0.262695)"/>
</clipPath>
</defs>
</svg>
