<svg width="81" height="81" viewBox="0 0 81 81" fill="none" xmlns="http://www.w3.org/2000/svg">
<g clip-path="url(#clip0)">
<path d="M63.4511 29.075C61.126 29.075 58.9087 29.5396 56.8872 30.3792L52.0537 21.0772H58.8094C59.5423 21.0772 60.1386 21.6687 60.1386 22.3956C60.1386 23.1225 59.5423 23.7139 58.8094 23.7139H57.368C56.6093 23.7139 55.9945 24.3239 55.9945 25.0762C55.9945 25.8286 56.6093 26.4385 57.368 26.4385H58.8094C61.057 26.4385 62.8856 24.6248 62.8856 22.3956C62.8856 20.1663 61.0572 18.3527 58.8094 18.3527H49.8008C49.3219 18.3527 48.8774 18.6002 48.628 19.0058C48.3787 19.4114 48.3604 19.9168 48.5798 20.3391L50.9834 24.9649H31.1606L29.1608 21.0772H32.3233C33.082 21.0772 33.6968 20.4673 33.6968 19.715C33.6968 18.9626 33.082 18.3527 32.3233 18.3527H23.3145C22.5558 18.3527 21.941 18.9626 21.941 19.715C21.941 20.4673 22.5558 21.0772 23.3145 21.0772H26.0768L28.7462 26.2663L25.6088 31.0876C23.2073 29.8043 20.4625 29.075 17.5489 29.075C8.14817 29.075 0.5 36.6606 0.5 45.9847C0.5 55.3088 8.14817 62.8945 17.5489 62.8945C26.4872 62.8945 33.8406 56.0364 34.5423 47.347H38.5725L37.0069 52.3998H36.1056C35.3468 52.3998 34.7321 53.0097 34.7321 53.7621C34.7321 54.5144 35.3468 55.1244 36.1056 55.1244H41.0501C41.8088 55.1244 42.4236 54.5144 42.4236 53.7621C42.4236 53.0097 41.8088 52.3998 41.0501 52.3998H39.8806L41.688 46.5666L53.1166 29.0699L54.4477 31.6316C49.6209 34.621 46.4022 39.9366 46.4022 45.9847C46.4022 55.3088 54.0503 62.8945 63.4513 62.8945C72.852 62.8945 80.5002 55.3088 80.5002 45.9847C80.5 36.6606 72.8518 29.075 63.4511 29.075ZM30.1896 29.0723L38.1885 44.6224H34.5421C34.1462 39.7209 31.6336 35.4028 27.914 32.569L30.1896 29.0723ZM31.7834 44.6224H20.0703L26.4178 34.8685C29.3862 37.2035 31.4027 40.6786 31.7834 44.6224ZM17.5489 60.17C9.66267 60.17 3.24699 53.8066 3.24699 45.9847C3.24699 38.1629 9.66267 31.7994 17.5489 31.7994C19.9139 31.7994 22.1446 32.3752 24.1118 33.3875L16.3948 45.2458C16.1221 45.6648 16.1022 46.1983 16.3428 46.6362C16.5833 47.0741 17.046 47.3468 17.5489 47.3468H31.7834C31.0897 54.5319 24.9716 60.17 17.5489 60.17ZM40.5729 43.2625L32.5621 27.6893H50.7452L40.5729 43.2625ZM63.4511 60.17C55.5649 60.17 49.149 53.8064 49.149 45.9847C49.149 40.99 51.7674 36.5932 55.7121 34.065L62.2301 46.6088C62.4741 47.078 62.9543 47.3471 63.4522 47.3471C63.6641 47.3471 63.8791 47.2983 64.0803 47.1955C64.7548 46.8509 65.0196 46.0294 64.672 45.3604L58.152 32.8129C59.7921 32.1616 61.5791 31.7992 63.4511 31.7992C71.3373 31.7992 77.753 38.1628 77.753 45.9845C77.753 53.8066 71.3373 60.17 63.4511 60.17Z" fill="white"/>
</g>
<defs>
<clipPath id="clip0">
<rect width="80" height="79.3475" fill="white" transform="translate(0.5 0.949951)"/>
</clipPath>
</defs>
</svg>
