<svg width="81" height="81" viewBox="0 0 81 81" fill="none" xmlns="http://www.w3.org/2000/svg">
<g clip-path="url(#clip0)">
<path d="M52.7665 1.37534L52.7653 1.37534C45.5387 1.35631 38.6059 4.20488 33.5116 9.28615L33.5107 9.28704L23.777 18.9472C19.7481 22.9464 17.3542 28.282 17.0557 33.9261V33.9465V33.9603L17.0549 33.974C16.8378 37.926 17.661 41.8662 19.4445 45.4073C20.4942 47.3605 20.8513 49.607 20.4585 51.7864L20.4314 51.9371L20.3245 52.0467C15.0162 57.4938 9.36508 62.6015 3.40589 67.3394L3.40555 67.3397L1.3105 69.0024L1.31045 69.0025C1.12557 69.1492 1.01373 69.3657 1.00085 69.598C0.987974 69.8304 1.07512 70.0574 1.2424 70.2233L10.5757 79.4806C10.7317 79.6353 10.9442 79.723 11.1663 79.723H11.2251C11.4582 79.7074 11.6733 79.5957 11.8192 79.4152L13.4946 77.3384L13.4949 77.338C18.2732 71.4261 23.4236 65.8204 28.9167 60.554L29.0262 60.449L29.1757 60.4226C31.3701 60.0349 33.6315 60.3891 35.5996 61.4286C38.7869 63.0037 42.2983 63.829 45.8601 63.8405C46.2564 63.8405 46.665 63.8261 47.0669 63.8027L47.0814 63.8018H47.096H47.1775C52.8695 63.505 58.2487 61.1312 62.281 57.1376L52.7665 1.37534ZM52.7665 1.37534C63.7822 1.37788 73.7085 7.96045 77.9217 18.0501C82.134 28.1391 79.8064 39.7519 72.0212 47.4761C72.0212 47.4761 72.0212 47.4761 72.0212 47.4762L62.2813 57.1373L52.7665 1.37534ZM11.0972 77.6623L10.7036 77.2718L3.4809 70.1081L3.08065 69.7111L3.52258 69.3611L4.45565 68.6222C11.8878 62.7202 18.844 56.2515 25.2612 49.2748L25.9613 48.5138L26.1231 49.5351C26.553 52.249 28.6981 54.3825 31.44 54.8141L32.4738 54.9768L31.6977 55.6789C24.6644 62.0405 18.1421 68.9365 12.1905 76.3052L11.0972 77.6623ZM11.0972 77.6623L11.445 77.2305L12.1901 76.3057L11.0972 77.6623ZM28.5161 45.6977L28.2043 46.3066C27.2574 48.1563 27.615 50.3991 29.0897 51.8668L29.0896 51.8669L29.0953 51.8723C30.5847 53.3086 32.8211 53.6614 34.685 52.7557L35.3192 52.4476L34.8186 51.951L32.9013 50.0494L32.9012 50.0493L29.0016 46.1796L28.5161 45.6977ZM20.9399 44.6796L20.9406 44.6811C21.6059 45.9901 22.0441 47.4004 22.2378 48.8529L22.3777 49.9023L23.0993 49.1275C23.2714 48.9427 23.4478 48.76 23.6276 48.5738L23.6571 48.5433C23.8459 48.3477 24.0382 48.1481 24.2258 47.9449L24.2267 47.9439L27.0269 44.8934L27.3522 44.539L27.0106 44.2003L19.6369 36.888L18.6483 35.9076L18.7873 37.2929C19.0454 39.8646 19.775 42.3681 20.9399 44.6796ZM31.8517 57.8008L31.0643 58.5259L32.1257 58.6644C33.5938 58.8561 35.0184 59.2923 36.3393 59.9548L36.3421 59.9562C38.6726 61.107 41.1935 61.83 43.7828 62.0911L45.1869 62.2326L44.1852 61.2387L36.8095 53.9199L36.4736 53.5867L36.1224 53.9037L33.045 56.6809C33.0449 56.6809 33.0449 56.6809 33.0449 56.681C32.8231 56.881 32.5876 57.1053 32.3583 57.3235C32.1827 57.4907 32.0109 57.6543 31.8517 57.8008ZM61.1101 55.9763L61.1103 55.9761L70.844 46.316C70.844 46.316 70.844 46.316 70.8441 46.3159C80.8296 36.4105 80.8289 20.3494 70.842 10.4446C60.8573 0.542688 44.6712 0.543326 34.6879 10.4472C34.6879 10.4472 34.6879 10.4472 34.6879 10.4472L24.9477 20.1087L24.9475 20.1088C21.352 23.6789 19.156 28.403 18.7532 33.434L18.7347 33.6654L18.8995 33.8289L28.3598 43.212L28.3599 43.2121L47.2889 61.979L47.4517 62.1405L47.6803 62.1224C52.7508 61.7218 57.5115 59.543 61.1101 55.9763Z" fill="white" stroke="white" stroke-width="0.999999"/>
<path d="M50.2156 6.81133C50.8971 6.73318 51.5819 6.68648 52.2682 6.67121V8.31659C51.6589 8.33128 51.0506 8.37281 50.4452 8.44121L50.2156 6.81133Z" fill="white" stroke="white" stroke-width="0.999999"/>
<path d="M37.282 13.027L37.2822 13.0268C39.8434 10.4835 43.0001 8.61208 46.4677 7.57854L46.9053 9.16222C43.7195 10.1207 40.8185 11.8454 38.4632 14.1871C38.4631 14.1871 38.4631 14.1872 38.4631 14.1872C38.463 14.1873 38.4629 14.1874 38.4628 14.1875L32.9858 19.621L31.8104 18.4552L37.282 13.027Z" fill="white" stroke="white" stroke-width="0.999999"/>
<path d="M10.7752 71.1977L9.59925 70.0318L18.2225 61.4795L19.3979 62.6453L10.7752 71.1977Z" fill="white" stroke="white" stroke-width="0.999999"/>
<path d="M71.1665 78.0785L71.1671 78.0785C75.1192 78.0737 78.3282 74.8967 78.3331 70.9668V70.9662C78.3331 67.0346 75.1211 63.8539 71.1665 63.8539C67.2125 63.8539 63.9998 67.0346 63.9998 70.9662C63.9998 74.8985 67.2126 78.0785 71.1665 78.0785ZM62.3331 70.9662C62.3331 66.134 66.2843 62.2091 71.1662 62.209C76.0464 62.2146 79.9939 66.1358 79.9998 70.9662C79.9998 75.7991 76.0491 79.7234 71.1665 79.7234C66.2844 79.7234 62.3331 75.7991 62.3331 70.9662Z" fill="white" stroke="white" stroke-width="0.999999"/>
</g>
<defs>
<clipPath id="clip0">
<rect width="80" height="79.3477" fill="white" transform="translate(0.5 0.875854)"/>
</clipPath>
</defs>
</svg>
