<svg width="81" height="80" viewBox="0 0 81 80" fill="none" xmlns="http://www.w3.org/2000/svg">
<g clip-path="url(#clip0)">
<path d="M57.8588 79.5602C54.2276 79.5602 51.2754 76.6295 51.2754 73.028L53.1749 33.4463C47.6442 31.3882 44.3767 25.4159 44.3767 17.2368C44.3767 7.84954 50.4236 0.212646 57.8588 0.212646C65.2915 0.212646 71.3409 7.84954 71.3409 17.2368C71.3409 25.4159 68.0734 31.3857 62.5452 33.4463L64.4422 72.9699C64.4422 76.6295 61.49 79.5602 57.8588 79.5602ZM57.8588 2.73474C51.8272 2.73474 46.9195 9.23921 46.9195 17.2368C46.9195 24.687 49.8794 29.9582 54.8328 31.3327C55.405 31.4916 55.7889 32.0187 55.761 32.6064L53.8157 73.0885C53.8157 75.2424 55.6287 77.0381 57.8588 77.0381C60.0863 77.0381 61.8994 75.2398 61.8994 73.028L59.9566 32.6064C59.9287 32.0213 60.3126 31.4916 60.8848 31.3327C65.8407 29.9582 68.7981 24.687 68.7981 17.2368C68.7981 9.23921 63.8904 2.73474 57.8588 2.73474Z" fill="white"/>
<path d="M23.1418 79.5602C19.5107 79.5602 16.5584 76.6295 16.5584 73.028L18.4579 33.4236C13.2299 31.5471 9.65973 26.5962 9.65973 21.0502V1.47369C9.65973 0.777595 10.2293 0.212646 10.9311 0.212646H16.6245C17.3264 0.212646 17.896 0.777595 17.896 1.47369V18.3995H19.3072V1.47369C19.3072 0.777595 19.8768 0.212646 20.5786 0.212646H25.705C26.4068 0.212646 26.9764 0.777595 26.9764 1.47369V18.3995H28.3877V1.47369C28.3877 0.777595 28.9573 0.212646 29.6591 0.212646H35.3525C36.0543 0.212646 36.6239 0.777595 36.6239 1.47369V21.0502C36.6239 26.5962 33.0538 31.5471 27.8257 33.4236L29.7252 72.9699C29.7252 76.6295 26.773 79.5602 23.1418 79.5602ZM12.2026 2.73474V21.0502C12.2026 25.8068 15.4548 30.0238 20.1133 31.3025C20.6854 31.4614 21.072 31.986 21.044 32.5761L19.1013 73.0885C19.1013 75.2424 20.9143 77.0381 23.1418 77.0381C25.3693 77.0381 27.1824 75.2398 27.1824 73.028L25.2397 32.5761C25.2117 31.9885 25.5982 31.4614 26.1703 31.3025C30.8288 30.0212 34.0811 25.8043 34.0811 21.0502V2.73474H30.9305V19.6605C30.9305 20.3566 30.3609 20.9215 29.6591 20.9215H25.705C25.0032 20.9215 24.4336 20.3566 24.4336 19.6605V2.73474H21.8501V19.6605C21.8501 20.3566 21.2805 20.9215 20.5786 20.9215H16.6271C15.9253 20.9215 15.3557 20.3566 15.3557 19.6605V2.73474H12.2026Z" fill="white"/>
</g>
<defs>
<clipPath id="clip0">
<rect width="80" height="79.3475" fill="white" transform="translate(0.5 0.212646)"/>
</clipPath>
</defs>
</svg>
