<svg width="80" height="80" viewBox="0 0 480.00072 480" xmlns="http://www.w3.org/2000/svg" fill="#FFFFFF">
    <path d="m313.601562 0c-44.152343-.117188-86.515624 17.429688-117.648437 48.738281l-58.402344 58.4375c-24.71875 24.738281-39.402343 57.753907-41.214843 92.679688v.203125c-1.332032 24.449218 3.722656 48.824218 14.671874 70.726562 5.992188 11.222656 8.03125 24.132813 5.792969 36.65625-31.761719 32.859375-65.574219 63.671875-101.230469 92.253906l-12.570312 10.058594c-1.777344 1.421875-2.863281 3.53125-2.9882812 5.804688-.1249998 2.273437.7226562 4.488281 2.3320312 6.097656l56 56c1.5 1.5 3.535156 2.34375 5.65625 2.34375h.441406c2.273438-.121094 4.382813-1.207031 5.808594-2.984375l10.054688-12.566406c28.589843-35.664063 59.40625-69.480469 92.273437-101.25 12.523437-2.230469 25.429687-.1875 36.65625 5.800781 19.546875 9.746094 41.082031 14.851562 62.925781 14.921875 2.449219 0 4.960938-.089844 7.417969-.234375h.566406c34.914063-1.816406 67.917969-16.488281 92.65625-41.191406l58.441407-58.445313c47.574218-47.589843 61.804687-119.148437 36.058593-181.320312-25.75-62.171875-86.40625-102.714844-153.699219-102.730469zm-144.703124 276.207031 23.398437 23.410157 11.503906 11.503906c-10.054687 4.925781-22.117187 3.003906-30.144531-4.800782-7.925781-7.953124-9.84375-20.097656-4.757812-30.113281zm-43.578126-12.582031c-6.824218-13.652344-11.097656-28.4375-12.609374-43.625l44.242187 44.234375-16.800781 18.453125c-2.199219 2.402344-4.527344 4.738281-6.75 7.144531-1.207032-9.125-3.9375-17.984375-8.082032-26.207031zm-57.511718 190.777344-4.472656 5.597656-43.335938-43.335938 5.601562-4.472656c44.714844-35.800781 86.566407-75.039062 125.175782-117.359375 2.785156 17.726563 16.675781 31.636719 34.398437 34.449219-42.316406 38.589844-81.558593 80.421875-117.367187 125.121094zm122.335937-107.816406c2.398438-2.226563 4.71875-4.554688 7.136719-6.753907l18.464844-16.800781 44.253906 44.273438c-15.179688-1.542969-29.957031-5.816407-43.617188-12.617188-8.226562-4.160156-17.097656-6.898438-26.238281-8.101562zm229.808594-73.847657-58.402344 58.4375c-21.085937 21.070313-48.984375 33.945313-78.703125 36.3125l-113.574218-113.527343-56.761719-56.761719c2.359375-29.710938 15.222656-57.613281 36.289062-78.703125l58.441407-58.445313c58.730468-58.742187 153.960937-58.746093 212.699218-.015625 58.738282 58.734375 58.742188 153.964844.011719 212.703125zm0 0"/>
    <path d="m297.105469 49.136719c5.464843-.757813 10.976562-1.136719 16.496093-1.136719v-16c-6.261718 0-12.511718.429688-18.710937 1.289062zm0 0"/>
    <path d="m218.578125 71.359375-34.976563 34.984375 11.3125 11.3125 34.976563-34.984375c14.472656-14.507813 32.46875-25.003906 52.222656-30.464844l-4.222656-15.40625c-22.433594 6.1875-42.871094 18.097657-59.3125 34.558594zm0 0"/>
    <path d="m50.339844 418.347656 56-55.996094 11.3125 11.3125-55.996094 55.996094zm0 0"/>
    <path d="m424 368c-30.925781 0-56 25.074219-56 56 0 30.929688 25.074219 56 56 56 30.929688 0 56-25.070312 56-56-.035156-30.914062-25.085938-55.964844-56-56zm0 96c-22.089844 0-40-17.90625-40-40 0-22.089844 17.910156-40 40-40 22.09375 0 40 17.910156 40 40-.027344 22.082031-17.917969 39.972656-40 40zm0 0"/>
</svg>